<?xml version="1.0" encoding="UTF-8"?>
<svg xmlns="http://www.w3.org/2000/svg" viewBox="0 0 1220 2712">
  <g id="Background">
    <rect x="0" width="1220" height="2712" fill="#f29140"/>
  </g>
  <g id="mountain_3">
    <polygon points="0 561.8 70.56 579.62 131 675 184.33 770.73 230.56 874.61 269.67 874.61 301.67 902.08 333.67 998.93 387 998.93 436.78 1036.08 549.76 1045.04 671.44 1085.23 760.33 1024.2 891.89 1024.2 934.56 874.61 980.78 828.03 1019.89 701.05 1019.89 675 1066.11 623.84 1066.11 561.8 1037.67 481.55 1080.33 481.55 1155 454 1208.33 481.55 1220 549.88 1220 2712 0 2712 0 561.8" fill="#b95756"/>
  </g>
  <g id="mountain_2">
    <polygon points="0 850.02 106.11 742 195 774.04 269.67 796.01 324.19 850.02 390.56 841.12 445.41 861.24 477.61 892.92 518.56 930.95 566.62 1010.62 566.62 1109.91 629 1166.57 671.44 1218.08 711 1253.67 781.67 1253.67 803 1274.94 867 1274.94 903 1237.12 949 1237.12 984.33 1166.57 1044.78 1166.57 1087.44 1109.91 1119.44 1095.18 1180 972.4 1220 930.95 1220 2712 0 2712 0 850.02" fill="#a63b45"/>
  </g>
  <g id="mountain_1">
    <path d="M0,1937l202-106,11-83,111,50,45-86,77-31-.59-59.63c14.53-19.46,29.06-38.91,43.59-58.37,18.74-35.81,22.27-64.93,22-85-.56-40.64-17.02-64.69-7-103,5.11-19.55,14.83-34.02,22-43,9.39,5.15,32.6,17.86,42,23,24.21,13.25,50.78,27.77,75,41,37.67-17.37,75.33-34.74,113-52.1,58.33,29.37,116.67,58.74,175,88.1,40.33,49.67,80.67,99.33,121,149,20.33,55.67,40.67,111.33,61,167,2.5,13.99,9.54,42.43,32,70,27.46,33.7,61.52,45.94,75,50v844H0v-775Z" fill="#6f2e4c"/>
  </g>
  <g id="Trees">
    <path d="M.09,1983.02c0-35.73,0-71.47,0-107.2,2.91-.72,5.8-1.52,8.73-2.16,10.22-2.23,15.29-9.09,17.42-18.71,.6-2.69,1.2-5.42,2.21-7.97,2.47-6.21,9.8-8.42,15.02-4.33,7.13,5.59,12.06,12.94,15.18,21.33,1.79,4.81-.82,8.28-6.05,8.93-1.76,.22-3.58,.07-5.3,.42-.78,.16-1.4,1.13-2.09,1.73,.57,.46,1.08,1.07,1.73,1.36,7.91,3.54,16.41,2.64,24.71,3.01,2.75,.12,2.72-1.93,2.08-4.32-1.4-5.3-3.03-10.67-3.35-16.08-.4-6.83,4.65-9.34,10.6-5.79,1.5,.9,2.65,2.41,4.18,3.23,4.86,2.6,9.57,5.98,14.79,7.31,12.28,3.12,24.82,2.79,36.58-2.22,10.21-4.35,20.29-9.22,29.82-14.87,11.55-6.84,22.17-15.08,31.07-25.24,3.88-4.44,3.28-6.07-2.38-7.65-8.38-2.35-15.35,1.24-22.21,5.18-3.28,1.88-6.36,4.13-9.62,6.05-2.1,1.23-3.83,1.11-4.47-1.8-.43-1.95-1.01-3.9-1.77-5.75-2.19-5.28-4.56-6.13-9.31-3.14-2.99,1.88-5.72,4.16-8.59,6.24-5.15,3.73-6.9,3.61-11.81-.74q-3.57-3.17-6.34,.89c-5.89,8.66-15.57,10.84-24.54,5.36-7.22-4.41-11.1-10.65-10.91-19.36,.2-8.63-.6-9.08-9.14-7.09-.49,.12-.96,.34-1.46,.43-6.02,1.2-7.04,.45-8.24-6.05-.12-5.47-.4-10.95-.3-16.42,.07-3.67,.59-7.34,1.09-10.99,.18-1.31,.89-2.54,1.35-3.81-1.47,.02-3.15-.41-4.36,.15-2.49,1.17-4.87,2.7-7.04,4.4-1.98,1.55-3.52,3.64-5.45,5.26-3.1,2.59-8.93,2.64-12.9,.47-4.39-2.4-2.21-6.07-1.98-9.38,.02-.24,.17-.47,.23-.72,1.8-7.46,.47-10.57-6.7-12.43-10.29-2.67-16.34-9.6-20.79-18.47-1.89-3.78-1.79-3.98,2.82-4.04,6.86-.09,13.72,.07,20.58,.04,7.08-.03,7.91-.86,8.06-7.7,.02-.75-.08-1.51-.04-2.26,.21-3.76,1.95-5.05,5.31-3.18,3.27,1.82,6.11,4.42,9.08,6.76,2.77,2.18,5.24,4.83,8.24,6.61,4.46,2.63,5.89,1.88,7.86-2.77,1.08-2.54,2.67-4.93,3.38-7.56,.83-3.08,1.21-6.34,1.26-9.52,.03-1.93-.92-3.88-1.42-5.83,2.43,.65,5.29,.71,7.19,2.08,3.23,2.33,5.99,5.37,8.69,8.34,2.37,2.61,4.14,5.75,6.57,8.29,8.65,9.01,19,12.94,31.66,10.28,13.37-2.81,25.27-8.9,36.92-15.61,11.42-6.57,20.63-15.39,27.4-26.67,2.8-4.67,2.9-8.07,.25-10.24-3.12-2.56-9.22-1.74-12.3,1.82-1.31,1.52-2.32,3.29-3.43,4.97-6.02,9.13-9.7,9.19-16.29,.26-.15-.2-.28-.42-.4-.64-1.42-2.67-2.63-2.07-4.42-.11-3.89,4.26-7.86,8.5-12.22,12.28-2.41,2.09-5.54,3.76-9.1,1.86-3.64-1.94-4.4-5.07-4.29-8.9,.17-5.52,.07-11.07-.2-16.59-.13-2.66-1.54-4.72-4.49-5.38-2.8-.63-5.26,0-6.61,2.47-4.04,7.36-11.44,11.22-17.39,16.55-4.1,3.66-8.16,3.17-11.51-.23-3.01-3.05-2.84-4.68,1.18-9.73,4.09-5.12,8.27-10.16,12.36-15.28,1.78-2.22,1.34-4.52-1.02-5.7-.91-.45-3.34,.56-4.12,1.61-5.67,7.57-14.02,11.48-21.97,15.8-2,1.09-5.21,0-7.87-.08,.35-2.33,.7-4.65,1.07-6.97,.04-.23,.26-.43,.36-.66,3.04-6.8,1.83-9.79-5.25-12.9-1.86-.81-3.77-1.5-5.6-2.36-6.06-2.87-6.75-4.78-3.87-10.51,.34-.67,.84-1.26,1.22-1.91,1.56-2.62,.65-4.55-2.13-5.09-3.21-.63-6.56-.47-9.8-.98-3.96-.63-8.1-1.06-11.74-2.56-4.33-1.78-5.71-5.84-4.84-10.81,.7-4,2.79-5.53,8.28-6.16,4.03-.46,8.09-.8,12.08-1.5,5.57-.98,9.64-3.77,11.94-9.3,2.58-6.22,3.28-6.65,9.72-5.79,3.88,.52,7.83,1.87,11.33,3.65,6.08,3.1,11.8,6.9,17.75,10.28,4.76,2.7,4.87,2.65,7.08-2.14,2.84-6.17,5.57-12.4,8.33-18.61,2.69-6.06,2.82-6.11,8.71-2.91,6.9,3.76,9.3,2.82,11.58-4.57,.22-.72,.26-1.49,.42-2.22,.76-3.48,3.11-3.84,5.71-2.37,2.4,1.36,4.49,3.27,6.69,4.96,6.22,4.76,12.57,9.36,18.6,14.35,9.02,7.47,17.92,6.64,27.24,.63,8.06-5.2,8.88-7.53,4.55-15.93-4.43-8.58-1.67-13.3,8.21-13.71,5.07-.21,10.16-.14,15.24-.06,6.16,.1,10.96-2.45,13.98-7.59,10.1-17.18,14.24-35.87,13.76-55.64-.01-.61-.53-1.2-.81-1.8-.51,.49-1.37,.92-1.49,1.49-.83,4.18-2.28,8.41-2.09,12.57,.62,13.65-6.94,24.4-12.17,35.99-1.17,2.58-3.59,3.97-6.23,3.03-1.86-.67-3.93-2.34-4.71-4.09-1.64-3.64-2.39-7.66-3.71-11.45-.43-1.23-1.52-2.24-2.31-3.35-.78,.93-1.82,1.75-2.28,2.81-3.67,8.47-8.82,15.71-16.62,21.01-2.2,1.49-4.46,3.42-6.75,1.54-1.7-1.4-3.03-4.03-3.23-6.23-.27-2.91,.6-5.95,1.2-8.89,.91-4.5,.14-8.5-3.11-11.88-4.24-4.4-7.23-3.38-9.94,1.93-4.56,8.93-9.74,17.57-15.05,26.1-2.3,3.69-6.24,5.2-10.66,3.98-4.28-1.18-4.44-4.99-5.02-8.47-.54-3.2-.8-6.5-1.77-9.58-1.72-5.4-4.6-6.87-8.98-3.81-5.73,4-11.64,3.53-17.43,1.74-6.49-2.01-12.74-4.91-18.88-7.86-2.42-1.16-4.47-3.31-6.34-5.32-2.39-2.56-2.44-5.11,.3-7.87,4.61-4.64,9.29-9.32,13.22-14.51,6.71-8.88,14.93-14.32,26.3-16.05,14.04-2.13,15.33-4.86,11.8-18.13-1.41-5.31-.04-8.69,4.84-11.16,4.34-2.2,8.88-2.4,13.11,.13,3.68,2.2,7.11,4.8,10.59,7.31,1.84,1.33,3.41,3.09,5.35,4.23,3,1.77,6.27,.7,7.74-2.25,1.59-3.19-1.15-4.15-3.07-4.89-4.5-1.73-6.07-4.86-7.36-9.4-1.3-4.62-4.29-9.13-7.6-12.74-3.33-3.65-8.04-6.03-12.01-9.15-4.72-3.71-4.7-8.24,.62-10.69,6.39-2.94,13.11-5.61,19.97-7.05,10.78-2.25,12.47-4.29,8.87-14.45-.5-1.42-1.06-2.85-1.82-4.14-2.86-4.85-5.27-5.17-9.38-1.37-1.11,1.03-2.11,2.21-3.32,3.1-4.7,3.44-8.02,2.8-10.02-2.64-1.85-5.03-5.1-8.54-9.31-11.53-4.33-3.06-8.55-6.28-12.85-9.36-2.87-2.06-3.43-4.44-2.3-7.86,2.48-7.53,7.99-10.22,15.4-11.33,9.8-1.47,11.4-6.34,5.02-13.78-.82-.96-1.93-1.69-2.65-2.7-1.3-1.82-2.45-3.74-3.58-5.67-2.03-3.45-3.74-7.12-6.05-10.38-8.42-11.89-7.86-13.61,6.21-17.3,11.56-3.03,12.02-4.05,6.74-14.79-2.67-5.42-5.58-10.75-7.9-16.31-1.98-4.76-.88-8.14,2.39-9.97,3.98-2.22,6.95-.27,9.26,2.65,4.05,5.13,7.97,10.38,11.63,15.79,5.59,8.26,7.65,8.32,13.19-.18,.28-.42,.5-.88,.8-1.29,3.82-5.32,7.43-5.62,10.34,.07,4.22,8.26,8.88,16.71,10.81,25.61,4.2,19.29,13.25,35.58,26.63,49.83,.93,.56,1.86,1.12,2.79,1.69l-.2,.03c1.84,4.6,4.63,8.4,9.24,10.64l-.1-.08c.98,3.47,3.79,4.31,6.42,2.98,1.52-.77,2.66-3.49,2.85-5.44,1.02-10.45,1.83-20.93,2.46-31.41,.92-15.48,1.68-30.98,2.4-46.47,.2-4.28-.11-8.53-3.16-12.02l.07,.05c-1.06-1.93-1.75-4.21-3.25-5.7-2.65-2.64-6.22-3.38-9.82-2.27-4,1.22-2.75,4.79-2.97,7.64-.08,.99,.03,2,0,3-.14,7.12-.74,7.74-8.27,8.59-.15-.2-.33-.38-.45-.6-4.83-8.64-10.86-13.68-22.09-10.96-6.94,1.68-10.4-3.76-7.12-10.48,5.76-11.81,11.58-23.89,26.83-26.42,.97-.16,2.16-.49,2.73-1.16,.9-1.07,2.06-2.65,1.83-3.75-.31-1.47-1.59-3.1-2.91-3.91-1.15-.7-3.03-.74-4.44-.43-6.13,1.37-12.32,2.66-18.29,4.59-7.82,2.53-14.35,1.26-19.29-4.49-4.18-4.86-3.71-7.6,1.81-10.73,2.42-1.37,5-2.54,7.19-4.2,10.91-8.28,11.09-15.76,.75-24.44-.97-.81-2.22-1.42-2.89-2.42-1.66-2.48-3.54-4.99-4.41-7.77-.59-1.88-.22-4.67,.91-6.22,.61-.84,3.91-.43,5.6,.31,3.22,1.4,6.25,3.31,9.2,5.25,5.07,3.33,9.99,6.89,15.04,10.26,2.66,1.78,4.76,1.55,5.58-2,.28-1.22,.48-2.48,.93-3.64,.6-1.54,1.41-2.99,2.13-4.48,1.68,.91,4.07,1.4,4.91,2.8,3.08,5.12,5.98,10.41,8.34,15.89,3.08,7.14,5.3,14.65,8.46,21.75,1.38,3.1,4.09,5.65,6.35,8.34,.57,.68,1.7,.9,2.57,1.33,.45-1.03,1.25-2.05,1.3-3.1,.9-16.04-1.11-31.71-7.77-46.42-4.56-10.07-10.09-19.7-15.09-29.57-3.87-7.63-7.62-15.32-11.38-23.01-1.28-2.61-2.02-5.45,.43-7.67,2.84-2.58,6.47-3.3,9.91-1.56,2.16,1.09,4.12,2.99,5.55,4.97,2.5,3.47,4.51,7.28,6.73,10.94,1.93,3.19,3.88,6.37,5.82,9.56,1.31-3.87,2.69-7.72,3.89-11.63,.36-1.17,.21-2.5,.28-3.75,.49-8.78,.91-17.57,1.47-26.35,.64-10.06,3.9-19.16,10.73-26.79,.9-1.01,2.42-1.48,3.65-2.2,.26,1.17,.67,2.32,.75,3.5,.13,2,.04,4.02,.04,6.04,0,21.89,0,43.78,0,65.66,0,1.76-.13,3.53,.02,5.28,.3,3.35,1.56,4.14,4.38,2.13,3.03-2.17,5.93-4.73,8.23-7.63,3.76-4.73,6.78-10.02,10.52-14.76,1.93-2.45,4.77-5.88,7.98-4.04,1.6,.92,1.67,5.46,1.48,8.29-.67,9.78-5.28,18.18-9.97,26.59-4.17,7.47-8.24,15.05-11.56,22.91-7.73,18.31-10.23,37.24-5.25,56.76,.2,.78,.83,1.45,1.26,2.17,.43-.59,.96-1.13,1.28-1.78,5.74-11.61,9.62-23.62,10.14-36.77,.27-6.92,2.23-13.83,3.88-20.63,.79-3.25,2.85-6.03,6.98-5.73,4.16,.3,5.32,3.24,5.86,6.71,.39,2.48,.83,4.96,1.37,7.42,1.31,6.02,3.43,6.72,8,2.76,3.81-3.3,7.49-6.8,11.58-9.72,3.31-2.36,8.54-2.06,10.7,.04,2.76,2.67,2.11,6.02,1.45,9.22-.3,1.44-1.13,2.79-1.81,4.14-2.96,5.84-6.03,11.63-8.91,17.5-3.21,6.55-6.34,13.13-9.34,19.77-2.01,4.45-.78,8.34,2.77,11.59,1.31,1.19,2.71,2.29,3.95,3.54,4.14,4.19,4,9.42-.33,14.86-3.58,4.49-6.63,4.75-12.55,1.01-.86-.54-1.6-1.27-2.48-1.75-3.25-1.74-5.59-.85-5.89,2.82-.45,5.49-.25,11.04-.28,16.57-.02,3.49,2.25,4.57,5.05,3.59,3.55-1.25,6.85-3.18,10.23-4.86,2.85-1.42,5.7-4.28,8.89-1.17,2.87,2.79,4.17,6.47,2.59,10.38-1.12,2.76-2.71,5.4-4.45,7.84-1.45,2.03-3.46,3.66-5.14,5.54-6.45,7.22-6.5,11.86-.23,19.14,1.15,1.34,2.37,2.63,3.61,3.89,6.41,6.54,8.12,6.78,15.17,.83,10.04-8.48,19.84-17.24,29.79-25.83,1.71-1.48,3.55-2.9,5.53-3.96,3.34-1.78,6.85-2.07,9.99,.5,3.01,2.45,2.61,5.54,1.74,8.95-2.37,9.31-7.37,16.95-14.1,23.7-3.32,3.33-2.99,3.26,.74,5.87,3.87,2.71,8.08,5.4,10.88,9.05,4.36,5.69,2.71,10.6-4.21,11.77-10.07,1.71-14.62,8.17-17.6,16.67-1.76,5.02-3.66,9.91-7.97,13.46-2.24,1.85-1.45,3.64,.62,4.81,1.72,.97,3.71,1.56,5.64,2.09,3.89,1.08,7.95,1.68,11.72,3.07,6.68,2.47,9.19,8.22,7.15,15.28-1.96,6.77-6.46,9.29-14.07,7.86-1.5-.28-3.03-.46-4.48-.91-8.07-2.5-14.3-.06-19.38,6.48-4.8,6.18-9.01,5.94-13.87-.26-1.52-1.94-3.01-4.46-5.09-5.25-1.94-.74-5.05-.13-6.83,1.07-.83,.57-.35,4.27,.62,5.93,1.49,2.55,3.97,4.53,5.94,6.83,2.28,2.66,3.56,5.46,1.29,8.86-2.18,3.27-5.01,4.41-9.22,3.44-3.57-.82-7.64-4.8-10.47-1.74-2.07,2.23-1.25,7.1-1.67,10.8-.63,5.47-2.6,6.8-8.17,5.56-8.24-1.83-14.22-6.34-17.49-14.19-.33-.8-1.17-1.4-1.78-2.09-.64,.68-1.51,1.26-1.88,2.07-1.57,3.43-3.22,6.85-4.41,10.42-2.89,8.63-.23,14.04,8.42,17.15,21.44,7.71,42.04,5.66,61.22-6.44,7.43-4.69,14.07-10.66,20.82-16.34,5.41-4.55,10.46-3.51,12.94,3.1,1.16,3.1,.72,6.01-1.39,8.5-1.63,1.91-3.54,3.59-5.41,5.29-1.85,1.68-4.64,3.27-3.02,6.01,.46,.78,4.15,.18,6.13-.47,11.06-3.6,20.3-10.27,28.88-17.78,6.65-5.82,12.89-12.1,19.23-18.26,2.55-2.48,5.43-4.17,8.85-2.59,3.42,1.57,5.46,4.5,5.18,8.48-.16,2.25-.66,4.48-.78,6.73-.16,2.94,.59,6.06,3.63,6.79,9.06,2.19,16.9,8.45,26.84,7.69,3.47-.27,6.65,.62,8.14,4.24,1.5,3.67,.27,7.78-3.54,10.59-3.24,2.39-6.71,4.54-10.28,6.42-9.23,4.88-19.24,6-29.54,5.7-4.36-.13-4.89,1-2.65,4.78,2.17,3.68,4.75,7.16,6.58,11,3.48,7.28-.47,13.28-8.69,12.79-3.31-.2-6.99-1.71-9.61-3.74-3.53-2.74-6.13-6.63-9.25-9.9-3.11-3.27-6.23-6.56-9.66-9.49-1.02-.88-3.08-.58-4.66-.82,.43,1.82,.58,3.79,1.41,5.41,.48,.94,2.11,1.27,3.18,1.94,8.04,5.08,10.13,10.07,7.57,19.15-1.5,5.31-3.34,10.54-5.31,15.7-2.16,5.67-5.39,6.42-9.47,1.95-4.26-4.66-9.56-7.29-15.32-9.43-5.9-2.19-12.24-3.59-16.69-8.61-.41-.46-1.28-.53-1.94-.78,0,.91-.4,2.18,.05,2.68,3.25,3.5,6.49,7.04,10.09,10.18,3.76,3.28,6.76,7.06,7.36,11.93,.3,2.45-.48,5.64-1.99,7.55-1.99,2.51-5.36,2.46-8.4,1.07-.69-.31-1.34-.7-2.02-1.03-7.47-3.52-9.37-2.63-11.96,5.41-.33,1.01-1.09,1.89-1.65,2.82-.5-.8-1.11-1.56-1.49-2.42-4.31-9.57-11.81-15.52-21.7-18.69-4.83-1.55-9.73-2.87-14.6-4.28-9.91-2.87-19.31-6.83-25.67-15.25-3.61-4.77-6.14-10.34-9.2-15.52-.4-.68-1.06-1.21-1.6-1.81-.2,.71-.52,1.42-.57,2.14-.81,10.91,2.88,20.52,10.11,28.38,9.38,10.19,19.34,19.88,29.4,29.43,4.74,4.5,10.27,8.19,15.46,12.22,9.89,7.68,22.47,9.55,33.27-.13,1.5-1.34,3.11-2.61,4.83-3.66,4.75-2.9,9.55-5.72,14.39-8.47,2.71-1.54,5.8-1.4,7.7,.85,1.2,1.42,1.25,4.08,1.18,6.16-.06,1.95-.97,3.87-1.48,5.81-.64,2.41-.01,3.97,2.82,3.96,1.27,0,2.55,.08,3.81-.07,7.41-.93,14.28-2.99,20.17-7.97,5.54-4.68,7.73-3.76,9.69,3.42,.53,1.94,.87,3.95,1.59,5.81,2.04,5.23,5.48,6.96,10.79,5.11,3.33-1.16,6.39-3.06,9.64-4.47,5.44-2.36,9.19-1.52,12.66,3.16,1.62,2.19,2.86,4.75,3.85,7.31,2.14,5.56,1.59,7.8-3.7,10.47-3.69,1.86-3.88,3.57-2.31,6.96,2.46,5.32,.43,9.93-3.82,13.43-2.5,2.06-5.5,3.57-8.38,5.13-4.07,2.2-7.88,4.62-10.06,8.88-1.54,1.98-3.18,3.9-4.61,5.96-4.07,5.88-9.32,8.57-16.81,7.86-8.06-.77-9.52,.71-11.72,8.36-.49,1.69-1.05,3.38-1.3,5.11-.55,3.82-.77,7.95,2.97,10.19,3.48,2.09,6.16-.71,8.64-2.92,.57-.5,1.13-1.04,1.78-1.41,8.77-4.98,17.75-5.88,26.74-.78,6.05,3.44,6.71,6.27,3.44,12.34-.95,1.77-2.1,3.44-3.1,5.18-3.64,6.34-4.62,13.23-3.96,20.38,.31,3.31,2.24,6.11,5.53,6.32,2.09,.13,4.36-1.78,6.47-2.91,.62-.33,1.08-1.08,1.45-1.73,4.16-7.36,11.66-11.06,18.01-15.97,2.83-2.19,4.44-1.38,5.16,2.29,.63,3.19,.88,6.46,1.35,9.69,.91,6.18,2.63,8,8.94,7.75,7.32-.29,14.62-1.31,21.93-1.93,1.66-.14,4.7-.28,4.8,.14,.51,2.03,.45,4.29,.15,6.4-.16,1.15-1.05,2.32-1.89,3.23-4.26,4.64-8.37,9.44-14.66,11.68-7.08,2.52-11.56,7.26-11.32,15.14,.11,3.66-1.85,5.46-4.81,6.87-4.81,2.28-9.67,4.49-14.32,7.06-8.7,4.79-16.9,10.21-22.21,18.97-2.79,4.6-2.88,4.55-6.27,.51-3.43-4.09-4.31-4.32-8.85-1.67-5.11,2.99-8.89,7.04-11.84,12.35-5.23,9.43-10.87,18.72-17.17,27.47-4.38,6.08-10.11,11.22-15.33,16.69-6.3,6.61-5.82,8.96,2.54,12.08,3.56,1.33,7.18,2.6,10.52,4.36,11.4,5.99,23.43,9.54,36.37,9.47,8.28-.05,16.15-1.61,22.25-7.95,1.92-1.99,3.92-4.06,6.27-5.47,4.86-2.92,9.14-.92,10.18,4.54,.37,1.96,.18,4.03,.52,6.01,1.05,6.01,3.8,8.01,10,6.97,5.24-.87,10.4-2.17,15.61-3.18,5.17-1,8.19,.2,10.5,4,2.55,4.17,2.29,8.91-.91,12.57-1.49,1.7-3.07,3.5-4.98,4.64-7.24,4.34-9.85,11.04-10.67,18.92-.64,6.1-2.41,7.88-8.16,9.12q-6.76,1.46-7.3,7.97c-1.01,12.05-5.51,15.42-17.43,13.07-.25-.05-.48-.16-.73-.21q-5.5-1.13-6.03,4c-.73,7.13-3.35,9.67-10.45,10.28-3.44,.29-6.87,.71-10.3,1.07,.08,4.8,4.84,6.02,7.13,9.13,.29,.4,.7,.72,1.08,1.06,10.1,8.94,27.3,9.96,37.22,1.57,2.51-2.12,5-4.26,7.44-6.45,5.63-5.06,8.02-4.71,11.6,1.77,4.05,7.33,4.89,7.63,13.2,6.43,3.47-.5,7.06-.67,10.56-.44,2.58,.17,5.32,1.53,5.25,4.49-.05,1.96-1.24,4.25-2.62,5.76-2.2,2.38-5.06,4.16-7.53,6.32-6.37,5.56-11.58,11.51-12.92,20.56-1.13,7.63-6.92,9.31-13.55,5.08-.64-.41-1.18-.99-1.85-1.32-3.88-1.9-5.73-.91-6.92,3.37-.6,2.15-1.02,4.67-2.42,6.23-6.72,7.5-13.28,15.25-20.81,21.9-6.28,5.55-12.15,4.66-18.09-1.49-3.84-3.98-6.97-8.62-10.59-12.82-2.62-3.05-5.28-6.15-8.36-8.73-4.43-3.71-11.76-3.59-16.24-.2-2.47,1.87-3.44,4.29-2.53,7.31,.81,2.69,2.96,3.17,5.4,3.17,1.78,0,3.56-.1,5.33,.03,6.89,.47,9.51,4.01,7.65,10.53-1.03,3.62-2.45,7.14-3.59,10.74-2.84,8.93-1.17,13.37,6.95,18.39,6.45,4,12.86,8.08,19.47,11.81,10.17,5.73,20.49,10.67,32.72,11.23,6.93,.32,13.75,3.13,20.62,4.85,4.65,1.17,9.22,2.79,13.93,3.51,4.08,.62,6.37,2.18,7.24,6.31,2.24,10.59,9.2,16.48,19.8,18.07,4.99,.75,10.08,.79,15.12,1.22,4.74,.41,6.37,2.59,5.02,6.98-.49,1.6-1.31,3.54-2.6,4.4-5.86,3.9-11.63,8.15-18.01,11-10.46,4.66-12.67,9.24-7.68,19.31,.45,.9,.88,1.82,1.4,2.68q2.36,3.99,5.86,.84c5.82-5.26,8.21-5.71,14.54-1.18,6.49,4.64,13.71,4.72,21.12,4.57,2.69-.06,3.72-1.66,3.22-3.94-.35-1.57-1.31-3.15-2.39-4.38-1.65-1.89-4.08-3.22-5.35-5.28-.83-1.35-.8-3.9-.02-5.28,.49-.86,3.29-1.07,4.72-.6,1.83,.62,3.18,2.61,5.01,3.28,1.76,.64,3.87,.35,5.83,.46,0-1.82,.53-3.82-.07-5.41-1.39-3.65-2.35-7.18-.74-10.95,.68-1.59,1.68-2.65,3.29-.85,.67,.75,1.21,1.61,1.84,2.4,11.31,13.98,25.82,21.22,44.09,21.59,17.21,.35,33.18-4.22,48.53-11.09,8.66-3.88,14.48-10.95,16.83-20.27,.58-2.28-.03-4.86-.09-7.3-2.15,.39-4.41,.48-6.44,1.2-11.56,4.11-23.08,5.47-34.91,.88-9.27-3.6-18.66-4.98-27.86,.41-2.66,1.56-4.43,.16-5.63-1.96-.85-1.5-1.07-3.33-1.71-4.96-2.28-5.82-5.95-7.77-11.86-6.05-3.14,.92-6.2,2.19-9.18,3.55-5.16,2.36-10.23,2.51-15.37,.03-1.36-.66-2.77-1.23-4.2-1.7-7.97-2.63-8.22-3.06-6.25-11.31,.9-3.74,1.25-7.23-1.42-10.71-5.68-7.39-11.1-14.98-16.46-22.6-5-7.11-10.82-13.26-18.63-17.42-1.77-.94-3.53-2.11-4.9-3.54-2.99-3.12-2.14-6.59,1.91-8.4,1.14-.51,2.44-1.09,3.63-1.03,6.88,.37,11.93-3.44,17.34-6.79,3.11-1.93,6.79-3.51,10.39-3.97,3.58-.46,5.03-1.47,6.14-5.02,2.61-8.34,7.26-9.44,14.17-3.96,.79,.63,1.44,1.42,2.21,2.07,3.76,3.23,7.94,5.08,13.12,5.1,6.07,.02,12.15,.64,18.21,1.14,4.94,.41,6.02-.53,3.87-4.67-2.5-4.81-2.19-9.76-1.93-14.75,.27-5.09,3.42-7.14,8.26-5.48,1.87,.64,3.69,1.77,5.2,3.06,11.94,10.27,25.71,12.25,40.65,8.98,19.52-4.27,37.7-11.98,54.79-22.03,6.69-3.94,12.55-9.35,18.41-14.51,3.78-3.33,3.12-5.6-1.47-7.83-4.46-2.16-8.84-1.47-13.2,.49-5.08,2.28-10.12,4.72-15.38,6.54-4.74,1.65-8.14-.25-9.75-4.53-.83-2.21-1.75-4.38-2.63-6.57-2.11,1.34-4.25,2.63-6.33,4.02-1.47,.99-2.89,2.05-4.25,3.18-3.33,2.75-7.21,3.53-11.4,3.33-7.54-.36-13.78,.86-20.51,3.96-.92,.42-1.85,.84-2.81,1.16-8.8,2.93-16.71-.16-21.21-8.21-2.28-4.07-3.37-8.38-3-13.03,.31-3.83-1.35-5.68-5.31-5.34-.76,.07-1.53,.04-2.29,0-10.99-.58-14.45-4.82-12.88-15.43,.47-3.22,.81-6.55,.46-9.75-.21-1.97-1.83-3.79-2.81-5.68-1.74,.9-3.72,1.53-5.15,2.77-1.69,1.47-2.73,3.65-4.36,5.2-3.77,3.61-10.99,4.23-15.59,1.18-3.89-2.58-1.9-6.14-1.18-9.55,1.2-5.7-.86-9.36-7.08-10.24-7.65-1.09-12.28-6.63-18.1-10.37-2.5-1.61-4.15-4.62-2.63-7.94,1.35-2.96,4.1-3.39,7.06-3.34,5.08,.08,10.17-.1,15.24,.11,4.24,.18,6.74-1.49,7.6-5.62,.25-1.22,.81-2.39,1.08-3.61,.51-2.3,1.55-3.03,3.69-1.56,7.05,4.84,14.07,9.73,21.23,14.41,1.22,.8,3.89,1.46,4.45,.86,3.08-3.28,6.22-6.7,8.36-10.61,1.93-3.53-.87-6.48-2.83-9.52-.89-1.39-.6-4.61,.49-5.9,1.69-2.01,3.51,.05,5.05,1.4,7.81,6.8,15.73,13.49,23.49,20.35,8.12,7.18,17.19,9.46,27.47,5.49,11.35-4.38,22.82-8.52,33.89-13.52,11.68-5.28,21.62-13.09,29.22-23.52,1.78-2.44,3.86-4.94,1.54-8.14-1.9-2.63-6.17-3.63-9.62-1.89-1.96,.99-3.66,2.6-5.28,4.14-1.08,1.03-1.71,2.49-2.7,3.63-5.68,6.56-9.75,6.59-15.54,.15-3.4-3.78-4.43-3.98-7.34,.18-3.23,4.61-7.55,7.4-12.7,9.07-6.73,2.19-10.91-.79-11.13-7.78-.13-4.27-.05-8.55-.19-12.83-.12-3.8-2.52-5.14-6.04-5.29-3.26-.14-4.93,1.84-6.74,4.12-5.54,7-13.78,10.11-21.55,13.63-4.18,1.89-7.71-1.52-6.65-6.04,.54-2.31,2.02-4.61,3.63-6.44,3.33-3.79,7.03-7.25,10.57-10.87,1.45-1.48,3.08-3.05,.9-5.07-2.19-2.02-4.15-1.2-5.83,.84-.16,.19-.29,.41-.45,.61-6.18,7.5-15.01,10.98-23.52,14.75-4.47,1.98-7.43-1.17-6.18-5.92,.19-.72,.61-1.38,.88-2.09,2.67-7.22,1.76-9.06-5.76-11.55-1.2-.4-2.45-.64-3.67-1-6.66-1.93-6.96-2.34-7.3-9.38-.25-5.22-.26-5.51-5.7-5.37-5.36,.14-10.01-1.32-14.2-4.45-1.41-1.05-2.78-2.24-3.89-3.59-4.34-5.26-2.66-11.08,4.05-12.55,5.66-1.24,11.55-1.43,17.33-2.14,4.65-.58,8.78-2,11.85-5.94,5.55-7.1,6.24-7.24,14.38-3.61,3.23,1.44,6.22,3.39,9.37,4.99,3.37,1.72,6.7,3.62,10.24,4.89,5.79,2.08,9.04,1.03,12.35-4.12,2.57-4,4.73-8.31,6.69-12.64,2.28-5.04,2.29-5.22,7.82-4.11,8.28,1.66,9.63,.87,12.03-7.04,1.53-5.04,2.12-5.21,6.33-1.82,5.71,4.59,11.29,9.36,17.15,13.75,12.2,9.13,24.99,13.28,39.31,4.21,4.92-3.12,5.78-5.16,3.05-10.44-.58-1.12-1.34-2.14-1.89-3.27-3.08-6.32-1.61-9.31,5.39-10.63,2.23-.42,4.55-.31,6.82-.51,5.3-.47,10.6-.88,15.88-1.52,7.78-.94,13.23-5.11,15.63-12.49,1.23-3.76,1.55-7.81,2.28-11.73,.07-.22,.14-.44,.21-.66-.12,.17-.25,.33-.37,.5-2.19,2.96-4.67,5.76-6.5,8.92-2.38,4.11-5.45,6.58-10.38,6.09-4.81-.48-5.62-4.41-6.89-7.98-.89-2.49-2-4.9-3.01-7.34-1.72,2.07-3.47,4.1-5.13,6.21-.78,.98-1.37,2.11-2.04,3.17-3.48,5.48-8.5,8.4-14.99,8.99-6.91,.63-8.16-.72-7-7.54,.42-2.45,1.05-4.97,.86-7.41-.33-4.13-5.52-9.03-9.05-8.94-4.67,.13-4.78,4.19-5.37,7.09-1,4.96-3.45,8.82-7,12.22-3.1,2.97-6.07,6.08-9.22,9-6.24,5.78-10.68,4.63-13.24-3.49-.9-2.86-1.22-5.9-2.09-8.78-1.77-5.87-5.34-6.99-10.18-3.33-.8,.61-1.51,1.34-2.25,2.04-3.03,2.85-6.4,3.54-10.51,2.4-8.87-2.44-17.34-5.66-24.85-11.04-1.83-1.31-3.76-2.65-5.15-4.36-2.61-3.23-2.13-5.53,1.08-8.34,2.64-2.31,5.47-4.5,7.75-7.13,7.81-9,16.65-15.6,29.14-17.52,12.56-1.94,15.11-5.93,15.34-18.34,0-.25,0-.5,0-.75,.2-6.26,.95-7.56,6.95-6.99,6.47,.62,12.85,2.36,19.2,3.88,2.93,.7,5.66,2.24,8.59,2.99,1.28,.33,2.82-.35,4.25-.58-.77-1.13-1.28-2.67-2.34-3.31-5.82-3.49-9.74-7.8-9.11-15.21,.13-1.47-1.67-3.61-3.16-4.58-2.29-1.49-5.23-1.96-7.62-3.34-2.55-1.48-5.33-3.11-7.03-5.39-3.15-4.22-1.71-7.59,3.28-9.18,7.23-2.3,14.46-4.59,21.71-6.84,7.08-2.2,8.71-6.83,4.94-13.18-1.96-3.3-4.87-3.05-7.93-3.02-14.9,.16-26.99-6.19-37.06-16.45-6.17-6.28-4.1-13.66,4.21-16.47,2.85-.96,5.95-1.19,8.88-1.96,7.03-1.86,8.34-6.03,3.78-11.61-2.06-2.52-4.37-4.94-5.92-7.75-1.85-3.36-3.52-6.6-7.1-8.55-1.27-.69-2.34-1.97-3.18-3.19-3.44-5.03-1.46-9.86,4.59-11.1,2.72-.56,5.52-.73,8.29-.99,6.5-.61,8.1-2.73,5.55-8.85-1.81-4.37-4.75-8.26-6.94-12.49-1.37-2.65-2.79-5.43-3.29-8.31-.6-3.44,.98-6.51,4.33-8.07,2.96-1.37,5.44,.05,7.47,2.2,2.25,2.38,4.36,4.89,6.6,7.28,3.61,3.84,7.22,7.67,10.94,11.4,1.74,1.75,3.55,1.6,5.19-.35,2.27-2.7,4.66-5.31,6.88-8.04,1.65-2.03,3.28-2.19,5.02-.25,1.18,1.31,2.35,2.64,3.39,4.06,6.06,8.25,9.53,17.63,12.44,27.32,1.65,5.49,3.79,10.9,6.34,16.05,6.05,12.25,16.38,21.01,26.15,30.13,3.02,2.82,6.69,6.33,11.33,4.21,4.54-2.07,3.37-6.92,3.36-10.8-.05-16.34-.12-32.65,4.73-48.52,2.43-7.94-.37-15.4-2.61-22.8-1.25-4.13-7.54-6.78-12.66-6.23-5.2,.56-4.13,4.6-5,7.89-.64,2.45-2.12,5.84-4.04,6.49-1.92,.65-5.52-.92-7.19-2.66-5.53-5.74-11.06-10.53-19.85-7.35-.66,.24-1.52,.05-2.27-.09-5.57-1.05-8.03-6.4-4.47-10.81,4.42-5.48,9.23-10.71,14.36-15.53,2.03-1.91,5.35-2.54,8.15-3.57,2.36-.86,5.05-1.07,7.15-2.31,1.15-.68,1.91-2.92,1.84-4.41-.04-.87-2.07-2.32-3.22-2.34-6.8-.12-13.7-.99-20.25,1.98-2.98,1.35-6.15,2.38-9.32,3.24-4.26,1.16-8.06-.18-11.19-3.09-5.33-4.97-3.79-11.6,3.09-14.1,3.08-1.12,6.19-2.28,9.06-3.84,5.34-2.91,6.2-6.04,2.64-11.03-2.46-3.44-5.28-6.91-8.69-9.33-4.95-3.53-7.12-7.6-5.7-13.48l-.07,.04c4.24-.76,7.68,.6,11.35,2.92,7.42,4.7,15.27,8.76,23.06,12.86,.66,.35,2.6-.69,3.22-1.58,.63-.9,.26-2.44,.53-3.66,.9-4.14,3.69-5.61,7.08-3.03,2.46,1.87,4.51,4.78,5.71,7.64,3.11,7.39,5.75,14.98,8.37,22.56,1.87,5.43,5.87,8.59,10.81,10.95,1.8,.86,3.13,.3,3.04-1.7-.34-7.49,.29-15.25-1.54-22.39-5.45-21.28-17.6-39.24-30.77-56.53-1.04-2.52-2.27-4.98-3.09-7.57-1.76-5.57,1.32-9.56,7.15-9.13,2.19,.16,4.31,1.16,6.46,1.78,2.11,2.05,4.23,4.11,6.34,6.16v-.15c1.04,2.04,2.08,4.07,3.12,6.11l-.06-.09c.53,.54,1.07,1.08,1.6,1.62l-.1-.11,1.62,4.6-.04-.03c5.22,2.12,7.14,1.45,7.49-3.52,.48-6.71,.38-13.46,.31-20.2-.11-10.89,1.45-21.33,7.68-30.65l-.07,.05,4.71-4.5-.11,.14c.5-.05,.99-.1,1.49-.15,.93-.02,1.86-.05,2.79-.07-.02,8.79-.05,17.58-.06,26.37,0,14.32-.04,28.64,.03,42.95,.02,4.21,.17,4.21,4.64,2.8,2.89-2.29,6.1-4.3,8.61-6.95,4.3-4.55,7.99-9.67,12.34-14.18,1.27-1.32,4.39-2.39,5.74-1.73,1.43,.7,2.72,3.77,2.4,5.51-.85,4.62-2.01,9.38-4.11,13.55-4.04,8.02-8.82,15.68-13.29,23.48-2.76,4.69-6.1,9.15-8.18,14.13-5.91,14.16-4.3,29.04-3.35,43.79,.04,.55,.75,1.53,1.07,1.5,.64-.06,1.51-.54,1.79-1.09,2.76-5.32,6.32-10.45,7.92-16.11,2.64-9.37,4.21-19.06,5.8-28.68,.66-3.97,2.16-7.13,5.14-9.72,5.39-1.73,8.1,1.39,10.23,5.55,.03,.98-.09,2,.12,2.95,1.39,6.36,4.47,7.8,10.08,4.62,1.02-.58,1.73-1.69,2.58-2.55,2.66-2.29,5.26-4.64,7.99-6.84,3.07-2.48,6.35-2.84,9.75-.52,3.51,2.4,3.73,5.8,2.69,9.36-.77,2.62-2.08,5.08-3.14,7.62-5.07,8.4-10.26,16.73-15.19,25.2-4.74,8.16-3.97,11.75,3.17,17.34,4.65,3.64,5.44,5.94,3.5,10.17-2.16,4.68-6.02,6.77-11.06,5.73-2.47-.51-4.86-1.42-7.3-2.09-2.49-.68-4.93-.25-5.6,2.38-.98,3.85-2.06,7.93-1.73,11.79,.62,7.22,6.12,9.14,11.79,4.58,2.16-1.74,4.14-3.73,6.44-5.25,2.71-1.79,6.21-2.51,8.37,.07,1.48,1.77,1.39,4.93,1.71,7.51,.11,.87-.59,1.9-1.07,2.77-3.05,5.45-5.49,11.2-10.88,15.17-4.2,3.09-4.1,5.58-.55,9.49,2.37,2.61,4.97,5.04,7.62,7.38,6.32,5.56,10.68,5.86,16.61-.02,10.87-10.78,23.62-18.92,36.51-26.94,3.62-2.25,6.25-1.88,8,1.9,.97,2.1,1.27,4.85,.89,7.15-1.01,6.05-3.74,11.24-8.26,15.75-6.85,6.82-6.03,11.17,2.22,15.92,.22,.13,.45,.23,.68,.34,3.36,1.53,5.18,4.04,4.69,7.77-.49,3.67-3.53,3.76-6.32,4.13-7.98,1.07-13.4,5.46-16.81,12.56-2.18,4.54-4.4,9.07-6.78,13.51-1.19,2.23-1.13,3.48,1.49,4.57,5.62,2.32,11.18,4.81,16.64,7.48,5.52,2.7,7.1,5.93,5.79,10.79-1.15,4.27-5.1,6.96-10.57,6.73-3.53-.15-7.05-.75-10.54-1.32-7.08-1.15-13.01,.7-17.76,6.15-5.01,5.74-8.96,5.61-14.25-.24-1.33-1.47-2.79-2.94-4.47-3.94-2.4-1.43-5-1.25-6.87,1.03-2.04,2.5-.84,4.58,1.2,6.57,1.79,1.75,3.83,3.51,4.86,5.69,.97,2.04,1.54,4.86,.89,6.9-.95,3.01-4.15,3.51-7.06,3.06-2.73-.43-5.48-1.09-8.05-2.08-2.89-1.11-4.71-.34-6.53,2-2.15,2.77-4.43,5.55-7.1,7.81-4.44,3.75-8.59,3.42-12.88-.49-.93-.85-1.71-1.86-2.58-2.77-6.4-6.75-8.1-6.48-11.02,2.39-.99,3.01-1.48,6.42-1.18,9.54,.49,4.98,3.52,7.6,8.6,7.9,11.64,.68,23.3,1.02,34.94,1.68,14.53,.82,26.5-4.34,37.61-13.48,4.81-3.96,11.64-5.74,17.81-7.74,1.66-.54,4.69,1.33,6.33,2.88,2.07,1.95,.5,4.13-1.09,5.93-.83,.94-1.86,1.89-2.21,3.01-.56,1.77-.63,3.69-.91,5.55,1.72,.13,3.52,.65,5.15,.31,7.6-1.57,14.17-5.26,20.26-9.95,7-5.4,13.91-10.94,21.24-15.87,3.02-2.03,6.93-3.26,10.58-3.71,5.09-.63,7.5,2.31,6.84,7.11-1.15,8.38,.65,10.82,9.27,11.9,6.28,.78,12.59,1.35,18.9,1.79,4.3,.3,8.27,1.05,9.74,5.67,1.45,4.56-.03,8.93-3.78,11.38-3.89,2.54-8.53,4.64-13.08,5.34-8.23,1.26-16.66,1.2-24.98,2.02-2,.2-4.67,1.16-5.62,2.66-1.4,2.2,.61,4.07,2.6,5.5,3.43,2.45,5.68,5.75,6.26,9.97,.76,5.5-2.12,9.3-7.59,8.54-4.59-.64-9.17-2.6-13.3-4.8-3.51-1.87-6.35-4.96-9.59-7.38-.63-.47-1.74-.3-2.63-.42-.03,.94-.33,1.98-.03,2.79,.44,1.15,1.3,2.14,2.02,3.17,2.71,3.87,2.97,7.89,.88,12.11-1.12,2.26-2.08,4.6-3.27,6.81-4.21,7.84-7.87,9.03-16.07,5.1-6.17-2.96-12.17-6.27-18.41-9.07-1.8-.81-4.17-.4-6.27-.55,1.04,2.12,1.87,4.39,3.19,6.32,.81,1.18,2.47,1.73,3.57,2.76,1.64,1.52,3.4,3.04,4.62,4.87,3.12,4.71,.43,9.91-5.27,9.99-2.71,.04-5.62-.53-8.12-1.57-4.39-1.83-7.75-1.65-10.39,2.74-1.84,3.06-4.21,2.16-6.31,.19-1.47-1.38-2.85-2.87-4.11-4.44-4.51-5.62-10.72-8.36-17.49-9.95-3.93-.92-7.99-1.57-12.02-1.79-12.37-.65-21.53-6.7-28.77-16.16-2.6-3.4-5.02-6.95-7.63-10.34-.52-.68-1.58-.96-2.39-1.42-.16,.95-.62,1.96-.43,2.83,1.78,8.2,4.62,15.77,10.76,22.04,16.05,16.39,34.95,29.04,54.25,41.16,5.26,3.3,11.32,3.95,16.52,.08,7.56-5.62,15.42-10.44,24.47-13.27,.95-.3,1.74-1.07,2.67-1.43,2.68-1.04,5.39-1.98,8.09-2.96,.59,2.83,1.64,5.64,1.67,8.48,.11,8.88,2.07,10.61,10.81,8.3,2.63-.7,5.09-2.14,7.52-3.44,2-1.07,3.76-2.6,5.78-3.62,5.53-2.8,8.97-1.75,12.04,3.48,.38,.65,.68,1.35,1.04,2.02,3.53,6.55,4.42,6.94,12.06,5.55,3.98-.72,7.97-1.62,11.99-1.92,11.01-.82,16.07,5.91,12.24,16.2-2.41,6.46-6.13,12.21-11.46,16.65-7.36,6.15-15.24,11.71-22.46,18-5.66,4.93-11.38,8.89-19.2,9.78-6.07,.69-8.15,3.66-8.37,9.77-.09,2.5-.03,5.07,.49,7.5,1.13,5.33,3.83,6.3,7.73,2.34,5.73-5.8,12.56-7.38,20.2-6.22,4.99,.75,9.94,1.97,14.78,3.42,4.02,1.2,5,4.1,2.8,7.6-1.47,2.33-3.54,4.27-5.14,6.53-4.35,6.14-5.54,12.94-3.09,20.01,1.74,5.03,5.3,5.88,9.42,2.53,4.31-3.5,8.36-7.3,12.6-10.87,1.92-1.62,3.84-3.42,6.08-4.44,6.44-2.94,9.89-.36,9.08,6.52-.12,.99-.47,1.96-.64,2.95-.86,5.15,.1,6.59,5.29,6.38,5.3-.22,10.58-1.06,15.86-1.67,1.96-.23,3.91-.59,5.86-.89-1.35-1.58-2.68-3.18-4.04-4.75-.33-.38-.75-.69-1.09-1.06-1.74-1.89-3.42-3.75-2.19-6.66,1.24-2.93,3.74-3.42,6.31-2.92,6.18,1.2,12.41,2.39,18.41,4.23,5.85,1.8,11.58,3.78,17.82,3.14,4.57-.47,5.98-1.8,5.41-6.27-.37-2.92-1.94-5.67-2.61-8.57-.67-2.88-1.47-5.93,1.89-8.07,3.22-2.05,5.82-.74,8.31,1.23,3.95,3.13,7.91,6.25,11.71,9.56,3.19,2.78,6.29,5.69,9.16,8.79,1.99,2.15,3.87,3.96,7.11,3.35,3.37-.64,4.49-3.18,4.84-6.01,1.17-9.72,.93-19.09-7.55-26.14-1.34-1.12-2.59-2.46-3.53-3.92-2-3.09-1.48-5.64,1.58-7.8,1.43-1.01,3.09-2.08,4.75-2.29,6.51-.84,13.16-2.34,19.57-1.73,6.92,.66,15.2-.08,19.17,8.28,.29,.61,3.31,.72,4.39,.03,4.19-2.64,5.81-8.09,4.42-13.34-1.97-7.45-4.63-10.31-10.89-10.73-4.03-.27-8.19-.27-12.16,.38-4.12,.67-5.11-.48-5.31-4.51-.41-8.27-2.97-10.39-11.34-10.8q-6.32-.31-6.63-6.19c-.37-6.89-1.02-7.5-8.22-7.58-1.02-.01-2.03,.06-3.05,.04-7.06-.14-8.23-1.69-6.19-8.13q2.29-7.22-4.37-10.64c-.68-.35-1.4-.61-2.04-1.02-3.66-2.34-4.24-4.16-2.67-8.22,3.72-9.61,10.96-13.27,21.16-10.46,3.41,.94,6.62,2.62,10.05,3.49,6.59,1.67,11.16-.91,13.06-6.99,2.68-8.58,3.64-9.02,12.15-5.49,1.87,.78,3.62,1.98,5.55,2.47,6.59,1.66,13.17,3.67,19.89,4.46,7.23,.84,7.3,.3,3.98-6.45-.44-.9-1.06-1.78-1.25-2.74-.65-3.26-1.09-6.55,2-9.01,2.9-2.31,5.63-1.32,8.4,.4,5.56,3.43,11.17,6.77,16.76,10.15v107.2c-4.57,.01-7.1-3.28-10.04-5.99-2.94-2.71-5.71-5.77-9.09-7.78-5.11-3.04-8.16-1.11-8.47,4.68-.72,13.31,9.45,23.9,23.06,24.02,1.51,.01,3.03,.11,4.54,.17v315.57c-6.9,2.99-13.87,5.85-20.64,9.1-1.03,.5-2.01,3.32-1.5,4.18,.65,1.08,2.94,1.85,4.36,1.65,1.57-.22,2.96-1.68,4.42-2.62,4.16-2.71,7.85-6.4,13.36-6.27v138.91c-5.24-.35-10.39,.18-15.52-2.48-4.69-2.42-8.21-.25-10.02,4.81-1.09,3.07-1.4,6.44-2.75,9.37-.69,1.5-2.86,3.17-4.39,3.21-1.37,.03-3.33-1.83-4.06-3.32-.95-1.95-.84-4.38-1.39-6.55-.28-1.12-.96-3-1.53-3.02-1.31-.06-2.95,.49-3.92,1.37-1.26,1.15-2.05,2.83-2.96,4.33-1.3,2.15-2.27,4.56-3.86,6.46-2.74,3.28-5.2,2.94-6.79-.96-1.32-3.24-1.99-6.74-3.1-10.07-.29-.88-1.15-1.57-1.75-2.35-.9,.71-2.1,1.25-2.64,2.17-2.9,5.02-5.34,10.32-8.49,15.17-7.97,12.28-27.69,11.43-34.87-1.37-1.27-2.27-2.33-4.65-3.49-6.98-1.86,1.98-3.73,3.96-5.59,5.94-.35,.37-.67,.76-1.02,1.12-7.54,7.99-9.22,7.66-12.52-2.39-.08-.24-.15-.48-.24-.72-2.94-8.33-8.29-10.88-16.63-7.82-4.05,1.48-7.95,3.37-12.04,4.69-5.71,1.85-8.22,.75-9.37-5.14-1.15-5.87-4.73-7.74-9.95-8.46-1.94-.27-4.3-.64-5.6-1.86-3.76-3.53-7.25-7.38-10.53-11.36-2.29-2.78-4.18-3.25-6.78-.51-2.43,2.56-4.91,5.14-7.68,7.31-6.05,4.74-13.1,4.87-18.84-.1-3.78-3.27-6.92-7.3-10.1-11.19-1.57-1.92-2.58-4.29-3.84-6.46-1.45,2.04-2.85,4.13-4.36,6.12-3.23,4.26-7.29,4.27-10.54-.06-1.2-1.6-2.15-3.41-3.12-5.17-1.04-1.89-2.21-1.87-3.39-.25-1.03,1.43-1.83,3.01-2.81,4.48-3.32,5.01-5.2,5-7.92-.08-.83-1.55-1.42-3.23-2.19-4.82-2.31-4.76-3.74-5.47-8.93-4.74-3.49,.5-6.98,1.11-10.49,1.3-5.66,.3-7.28,2.86-4.29,7.56,.9,1.42,2.31,2.77,3.8,3.54,17.09,8.79,33.74,18.63,52.73,23.08,6.88,1.61,14,2.2,20.93,3.6,6.37,1.29,7.86,5.24,3.92,10.31-3.79,4.88-8.46,8.75-14.91,9.67-3.76,.54-7.55,.82-11.31,1.31-.94,.12-1.83,.6-2.75,.91,.44,1.07,.61,2.42,1.38,3.16,4.46,4.35,9.83,7.4,16.04,7.91,16.17,1.32,32.36,2.85,48.56,3.14,27.94,.51,55.9,.15,83.86,.13,2.03,0,4.34,.4,6.02-.41,6.8-3.27,14.13-3.54,21.38-4.72,22.81-3.72,43.72-12.67,63.78-23.78,2.16-1.2,4.55-1.99,6.83-2.98v355.59c0,1.76,.12,3.54-.07,5.28-.06,.55-.9,1.37-1.46,1.45-1.5,.2-3.04,.07-4.56,.07H6.19c-.76,0-1.55-.13-2.28,.02-3.28,.67-3.92-.56-3.91-3.8,.12-69.2,.09-138.41,.09-207.61,0-124.82,0-249.64,0-374.46,1.95-.83,3.9-1.65,5.85-2.48-1.95-.18-3.9-.36-5.85-.54,0-28.69,0-57.38,0-86.07,8.76,1.25,17.56,2.29,25.53,6.59,1.23,.66,2.64,1.01,3.96,1.51-.39-1.57-.43-3.35-1.23-4.68-1.94-3.22-4.21-6.23-6.38-9.31-1.01-1.43-2.62-2.68-3.01-4.25-.63-2.48-.46-5.16-.63-7.76,2.27,.74,4.56,1.42,6.8,2.24,1.41,.52,2.7,1.67,4.11,1.78,1.31,.1,3.13-.41,3.99-1.32,2.97-3.18-.05-6.03-.93-9-.91-3.09-2.96-2.49-5.42-1.98-8.9,1.82-17.85,3.39-26.78,5.05,0-5.03,0-10.07,0-15.1,10.83-.89,21.65-1.95,32.49-2.61,6.57-.4,13.18-.33,19.76-.16,1.61,.04,3.19,1.28,4.79,1.97-1.29,1.01-2.45,2.35-3.91,2.95-3.27,1.34-6.68,2.32-10.05,3.42-5.64,1.83-5.95,2.21-1.83,5.73,6.11,5.23,12.34,10.46,19.12,14.76,10.43,6.61,22.09,9.25,34.16,5.36,9.83-3.17,19.59-6.88,28.82-11.47,5.74-2.85,10.83-7.37,15.48-11.87,6.22-6.02,8.74-13.94,9.16-22.49,.12-2.33-.15-3.04-2.9-1.67-4.67,2.33-9.65,4.19-14.69,5.59-6.55,1.82-13.44,2.49-19.87,4.62-4.61,1.52-8.25,1.34-12.05-1.5-6.62-4.94-13.39-6.47-21.07-1.67-4.07,2.55-4.67,1.87-5.65-3.14-1.82-9.3-5.9-11.84-15.05-9.2-4.37,1.26-8.62,2.96-13.02,4.1-7.23,1.87-12.03,.23-15.38-4.82q-3.13-4.73-8.01-1.37c-6.1,4.2-12.33,8.05-20.29,6.86Zm241.24-508.68c-.09-.49-.17-.99-.26-1.48-5.93-.13-11.86-.35-17.8-.36-5.03-.02-5.03,.08-5.07,6.23,.57,1.04,.86,2.55,1.74,3.06,7.13,4.09,17.58,.43,21.31-7.29l.07-.14Zm130.57,238.06c4.4,1.04,7.76-.87,11.06-3.51,8.51-6.82,8.25-16.09,7.25-25.43-.34-3.22-3.36-3.02-5.31-1.69-3.5,2.38-6.62,5.29-9.9,7.98-1.94,1.15-3.96,2.18-5.8,3.48-5.01,3.54-9.93,3.27-14.76-.22-2.86-2.07-5.58-4.32-8.33-6.53-3.54-2.84-3.52-2.86-4.75,1.58-1.73,6.25-3.95,7.35-9.82,4.74-1.38-.61-2.63-1.54-4.03-2.08-1.81-.69-3.71-1.13-5.57-1.67,1.21,1.69,2.15,3.68,3.68,5.01,9.73,8.43,21.2,13.64,33.58,16.85,4.08,1.06,8.46,1.03,12.7,1.49Zm772.78,325.33c3.78-.36,7.56-.7,11.33-1.09,17.48-1.78,32.7-10.43,49.01-15.76,1.78-.58,2.56-1.5,1.51-3.32-2.88-4.99-5.28-10.24-11.16-12.85-7.61-3.38-13.35-9.08-17.78-16-5.16-8.06-9.9-16.39-15.25-24.32-2.63-3.9-5.83-7.63-9.46-10.61-4.31-3.54-6.47-2.97-10.46,1-1.25,1.25-2.34,2.67-3.68,3.81-2.82,2.39-4.18,1.91-5.32-1.67-2.73-8.6-3.98-9.71-13.26-10.05-4.31-.16-7.17-1.42-8.57-5.79-1.74-5.45-5.96-7.78-11.62-8-3.53-.14-7.1-.31-10.57-.93-6.87-1.23-7.23-1.92-5.8-8.37,1.72-7.76,1.09-8.9-6.44-11.75-1.42-.54-2.77-1.44-4.23-1.64-1.56-.22-3.5-.31-4.78,.4-8.14,4.52-16.16,9.27-24.2,13.96-2.29,1.34-3.88,2.91-3.63,5.99,.57,6.94,.2,7.32-5.94,10.07-6.47,2.9-13.18,5.39-19.34,8.83-5.45,3.04-10.61,6.79-15.31,10.89-5.12,4.47-4.82,4.8-11.46,1.56-6.09-2.97-9.74-1.97-13.5,3.79-.82,1.26-1.46,2.65-2.19,3.97-9,16.14-18.75,31.67-34.89,42-.42,.27-.84,.58-1.2,.93-3.8,3.72-3.73,6.05,.33,9.31,.98,.78,2.05,1.52,3.2,2.03,16.59,7.34,33.7,12.59,52.14,11.74,6.15-.28,11.99-1.79,16.89-5.94,2.68-2.27,5.49-4.49,8.54-6.2,4.04-2.26,6.86-1.24,8.39,3.04,1.08,3.04,1.29,6.37,2,9.55,1.34,6,6.11,9.26,11.23,6.31,8.12-4.68,16.46-6,25.47-4.89,3.22,.4,6.42,.92,9.61,1.52,4.95,.94,9.84,2.58,14.82,2.87,10.61,.61,11.75-.9,10.54-11.54-.03-.25-.05-.5-.07-.75-.49-6.26,3.24-9.77,9.3-8,3,.87,5.83,2.93,8.25,5.02,7.93,6.84,16.55,11.63,27.55,10.91Zm30.34,155.01s0,.09,0,.14c1.27,0,2.54-.04,3.81,0,2.52,.1,4.89-.56,5.13-3.28,.18-2.05-.09-4.71-1.3-6.2-4.4-5.42-18.94-5.81-23.81-.71-6.59,6.91-13.1,13.91-19.3,21.16-3.05,3.56-6.5,5.66-11.11,5.4-4.27-.25-8.54-.84-12.78-1.47-3.71-.55-5.39-2.57-5.77-6.59-.65-6.91-1.94-7.72-9.08-8.4-5.71-.54-6.82-1.66-7.29-7.43-.08-1,0-2.02-.11-3.01-.62-6.06-3.09-7.97-9.02-6.87-2.74,.51-5.42,1.32-8.17,1.74-6.5,.98-10.78-2.16-11.88-8.48-.34-1.98-.63-3.98-1.2-5.89-1.69-5.69-1.77-5.65-7.99-4.05-1.17,.3-2.49-.03-3.73,.04-6.81,.34-12.96,2.19-17.6,7.55-3.3,3.81-6.75,7.49-10.02,11.31-5.39,6.29-11.63,10.95-20.11,12.68-4,.81-6.76,.29-9.5-2.59-4.86-5.13-10.13-9.9-14.88-15.13-6.65-7.33-14.37-6.46-22.16-2.74-1.01,.48-2.51,2.1-2.31,2.53,.56,1.22,1.71,2.55,2.94,2.99,2.11,.76,4.48,.76,6.69,1.28,7.88,1.85,10.05,5.83,7.16,13.25-.82,2.09-2.08,4.01-3.08,6.04-2.34,4.76-2.14,6.07,1.67,9.99,1.23,1.26,2.6,2.39,3.93,3.55,15.44,13.42,34.13,19.37,53.89,22.56,11.24,1.81,22.57,3.18,33.9,4.29,4.96,.49,8.07,1.91,8.94,7.24,.43,2.63,1.84,5.24,3.32,7.53,3.12,4.82,5.96,5.44,11.66,4.3,5.67-1.13,11.44-1.87,17.21-2.34,13.88-1.12,27.01-4.75,38.62-12.34,6.53-4.27,12.26-9.34,20.3-11.26,6.9-1.65,8.23-5.52,5.52-12.02-1.74-4.16-4.18-8.03-5.93-12.19-2.73-6.5-.31-10.85,6.61-12.15,2.22-.42,4.55-.3,6.83-.42Zm-622.64,80.12c10.62,.01,20.52-4.44,26.58-15.59,.75-1.37,.72-3.16,1.04-4.75-1.48-.15-2.97-.49-4.43-.42-7.34,.38-14.67,1.11-22.01,1.25-6.93,.13-10.02-3.04-10.61-10-.13-1.5-.17-3.03-.04-4.53,.27-3.21-1.13-5.3-4.09-6.44-1.89-.73-3.74-1.61-5.69-2.08-13.05-3.14-21.96-11.04-27.38-23.04-1.86-4.12-3.8-8.22-5.56-12.38-2.18-5.13-4.68-6.91-9.74-6.6-5.05,.3-7.64,2.32-9.23,7.43-.52,1.66-.39,3.55-1.06,5.12-.81,1.91-2.16,3.6-3.28,5.38-1.79-1.24-3.78-2.28-5.3-3.77-1.58-1.55-2.53-3.74-4.1-5.31-1.76-1.76-3.79-1.75-4.68,.94-3.03,9.15-10.71,10.66-18.8,11.15-5.69,.34-10.56-1.68-13.24-7.07-1.56-3.13-2.6-6.52-4.18-9.64-1.2-2.36-2.9-4.47-4.37-6.68-1.3,2.24-2.53,4.52-3.91,6.7-1.01,1.6-2.29,4.37-3.34,4.33-1.88-.08-4.1-1.55-5.43-3.08-1.78-2.05-2.62-4.89-4.3-7.06-1.38-1.77-3.18-1.53-3.97,.82-.64,1.9-.7,4.02-1.55,5.8-.67,1.4-2.13,3.35-3.28,3.38-1.33,.04-3.17-1.5-3.95-2.84-1.1-1.89-1.46-4.22-2.1-6.37-1.6-5.4-4.73-7.15-10.31-5.9-2.68,.6-5.4,.98-8.12,1.41-2.08,.33-5.62,.08-5.96,1-.75,2.07-.39,4.88,.44,7.04,.64,1.68,2.48,3.13,4.11,4.19,6.78,4.42,13.49,8.99,20.57,12.88,11.54,6.35,23.24,12.48,36.6,14.33,4.5,.62,9.11,.89,13.48,2.02,6.45,1.68,7.85,4.99,5.93,11.36-1.62,5.38-5.47,8.16-10.57,9.84-5.29,1.75-10.54,3.6-15.73,5.59-1.33,.51-2.37,1.74-3.55,2.64,1.18,1.18,2.15,2.74,3.56,3.49,11.86,6.25,24.6,8.96,37.99,9.39,15.47,.5,30.94,1.13,46.38,2.13,15.17,.98,30.3,2.5,47.19,3.92Zm561.37-134.39c12.4-.61,23.02-6.3,33.06-13.3,2.26-1.58,1.05-3.07-1.06-3.68-3.65-1.04-7.44-1.65-11.01-2.89-4.24-1.47-8.73-2.66-10.81-7.48-2.9-6.72-3.02-6.67-9.7-4.76-.97,.28-1.95,.55-2.93,.82-7.03,1.9-10.97,.09-14.03-6.51-1.48-3.19-2.69-6.51-4.33-9.61-1.73-3.29-4.45-5.2-8.42-5.58-5.85-.57-6.2-.73-6.65-6.52-.81-10.52-6.65-17.47-15.06-23.05-2.67-1.77-4.41-1.47-6.59,.6-5.82,5.51-10.92,11.27-10.21,20.04,.21,2.64-1.13,4.63-3.93,4.45-7.97-.53-11.52,3.57-12.53,10.85-.4,2.84-2.12,4.57-5.24,4.21-5.85-.68-10.41,2.17-14.42,5.66-6.25,5.44-12.61,10.14-21.58,8.97-.47-.06-1,.15-1.48,.31-3.2,1.03-4.31,3.89-2.19,6.41,1.08,1.28,2.7,2.37,4.3,2.92,16.21,5.61,32.37,8.52,48.33-.96,5.4-3.21,10.71-3.03,15.06,1.99,3.02,3.48,6.86,3.99,11.05,3.5,1.75-.21,3.47-.77,5.22-.97,8.93-1.02,17.36-1.54,24.17,6.62,5.06,6.05,12.9,7.53,20.96,7.98Zm-193.32-249.19c3.81,0,6.85,.13,9.88-.03,7.16-.36,9.96-2.45,12.22-9.05,.97-2.84,2.09-5.72,2.41-8.66,.21-1.94-.31-5.12-1.56-5.77-1.87-.98-4.87-.8-7.01-.05-1.65,.58-2.8,2.72-4.04,4.27-4.82,6.01-10.94,8.6-18.7,7.42-4.86-.74-8.06-3.85-11.33-7.03-4.74-4.61-4.8-4.55-8.66,1.05-3.41,4.95-5.7,5.41-10.57,2.04-1.03-.71-1.91-1.64-2.91-2.41-1.68-1.3-3.51-4-5.51-1.49-.82,1.03,.42,4.06,1.32,5.89,.6,1.22,2.15,2.1,3.44,2.85,12.88,7.56,26.6,12.07,41.03,10.97Zm-331.97,418.41c.05,.36,.1,.71,.16,1.07,11.43-1.68,22.87-3.32,34.3-5.08,2.47-.38,5.05-.86,7.23-1.95,1.08-.54,2.31-3.01,1.9-3.9-2.07-4.54-4.6-8.88-7.09-13.22-1.32-2.31-3.32-2.7-5.85-1.78-4.97,1.81-10.36,2.81-14.95,5.28-7.26,3.9-14.03,8.72-20.98,13.2-2.8,1.81-5.51,3.76-8.27,5.65,3.5,.25,7,.51,10.51,.74,1.01,.06,2.02,0,3.03,0ZM253.02,1427.64c.1-6.95-4-12.65-10.04-12.55-12.22,.19-20.48-5.78-27.01-15.26-2.71-3.92-5.76-7.62-8.77-11.33-1.66-2.05-2.97-1.18-3.89,.82-1.65,3.58,.48,6.31,2.25,9.01,9.71,14.87,23.11,25.73,38.47,34.42,5.98,3.38,8.9,1.69,9-5.12Zm550.66,211.12c.03-4.2-2.75-7.82-6.87-8.64-1.46-.29-3.03-.24-4.53-.11-7.75,.68-14.61-1.1-19.77-7.18-3.54-4.16-6.88-8.5-10.17-12.85-2.4-3.18-5.49-4.58-7.54-3.12-2.34,1.67-2.06,5.62,.64,8.63,.5,.56,1.08,1.05,1.64,1.55,3.2,2.83,6.52,5.54,9.59,8.49,8.46,8.11,18.03,14.42,29.18,18.32,5.33,1.87,7.79,.34,7.82-5.09Zm-519.79-258.51c0,1.61-.12,2.39,.03,3.11,.14,.68,.42,1.58,.93,1.85,.4,.22,1.46-.17,1.86-.62,8.39-9.42,16.84-18.79,25.01-28.4,2.99-3.51,2.77-6.56,.41-8.74-2.4-2.22-5.47-2.11-8.79,.97-4.26,3.95-8.47,8.01-12.17,12.45-4.81,5.78-6.82,12.79-7.28,19.37Zm582.28,194.08c.1-5.39-3.54-7.86-7.16-5.47-4.81,3.17-9.13,7.1-13.5,10.87-6.42,5.53-9.68,12.68-10.35,21.02-.07,.85,.36,1.73,.56,2.6,.85-.42,1.85-.67,2.51-1.28,8.33-7.68,16.66-15.36,24.85-23.19,1.54-1.48,2.47-3.59,3.09-4.53ZM63.59,2184.46c6.35-2.37,12.84-4.44,18.99-7.25,3.07-1.4,2.96-4.08,.62-6.86-4.32-5.15-8.1-5.86-13.85-2.21-4.41,2.79-7.27,6.78-8.75,11.87-.83,2.86,.06,3.7,3,4.44Zm219.23-875.8c.19,2.07,.37,4.83,.73,7.56,.1,.78,.72,1.5,1.1,2.24,.33-.64,.74-1.26,.97-1.94,4.36-13.1,8.7-26.2,12.99-39.32,.28-.86,.02-1.9,.01-2.85-.99,.51-2.19,.81-2.95,1.55-9.04,8.8-12.42,19.85-12.85,32.74Zm551.23,224.4c.23,2.3,.25,4.07,.61,5.78,.36,1.69,1.05,3.31,1.6,4.95,.8-1.44,1.77-2.8,2.36-4.32,1.45-3.73,2.69-7.54,4.1-11.3,2.46-6.57,5.02-13.09,7.41-19.68,.38-1.05,.05-2.35,.05-3.53-1.06,.44-2.39,.62-3.13,1.37-7.52,7.58-11.69,16.74-13,26.73Zm-596.6,78.33c1.04,5.57,1.95,10.69,2.99,15.79,.11,.54,.94,.94,1.43,1.4,.23-.43,.53-.85,.68-1.31,3.57-11,3.15-22.07,.43-33.15-.12-.51-.91-.85-1.39-1.28-.25,.42-.64,.81-.74,1.26-1.17,5.83-2.3,11.67-3.4,17.29Zm541.13,78.67c5.13-.27,8.9-1.61,10.68-5.74,.46-1.06-.58-4.01-1.17-4.08-5.71-.67-11.6-1.93-16.99,1.18-1.11,.64-2.3,2.3-2.26,3.44,.04,1.14,1.37,2.75,2.53,3.22,2.52,1.04,5.3,1.48,7.21,1.97Zm18.36,111.65c-.94-4.8-1.81-9.46-2.83-14.08-.1-.46-1.13-.76-1.78-1-.09-.03-.62,.73-.71,1.18-1.81,8.68-2.65,17.37-.18,26.07,.18,.63,.66,1.17,.99,1.75,.53-.49,1.38-.89,1.53-1.48,1.06-4.08,1.98-8.2,2.97-12.44Zm244.1,514.87c-.41-1.05-.59-1.85-.74-1.85-.66,.03-1.69,.1-1.9,.5-1.33,2.59-2.5,5.26-3.64,7.94-.14,.34,.08,1.03,.37,1.28,.22,.19,1.08,.09,1.22-.14,1.68-2.67,3.28-5.38,4.69-7.73Z" fill="#030202"/>
    <path d="M1194.7,1721.71c-3.44,1.75-6.78,3.92-10.97,2.9-.6-1.11-1.54-2.16-1.74-3.33-1.18-7-3.58-13.19-8.75-18.53-3.08-3.18-2.47-6.02,1.15-9.2,3.17-2.79,7-4.86,10.64-7.11,2.51-1.55,6.04-2.12,5.95-5.98-.02-1.02-.88-2.62-1.73-2.92-3.63-1.28-6.26,.89-8.68,3.17-6.25,5.86-12.37,11.87-18.73,17.62-3.39,3.06-7.22,5.46-12.17,5.54-4.19,.07-7.63-1.22-9.61-4.86-1.96-3.62-1.39-7.31,1.16-10.59,1.24-1.59,2.62-3.07,3.9-4.63,2.08-2.53,4.18-5.05,6.19-7.64,1.37-1.76,.69-2.74-1.41-2.77-4.31-.05-8.66,.29-12.94-.09-6.79-.61-13.57-1.43-20.28-2.61-8.12-1.42-14.09-6.51-19.65-12.17-2.82-2.88-2.72-5.67-.38-8.72,2.27-2.96,5.13-4.67,8.93-5.09,7.79-.85,15.57-1.89,23.35-2.84,1.26-.15,2.53-.21,3.77-.46,7.81-1.53,8.76-3.14,6.38-10.79-2.59-8.35,.22-11.83,9.1-11.48,6.64,.26,11.32,3.91,15.57,8.42,12.46,13.19,27.68,21.83,45.1,26.8,3.64,1.04,7.39,1.69,11.09,2.53v52.85c-4.54,1.09-9.41,1.5-13.53,3.47-4.29,2.06-7.85,5.61-11.73,8.52Z" fill="#030202"/>
    <path d="M1219.96,1561.75c-3.12,.24-2.83-2.16-3.18-4.04-2.12-11.32-3.97-12.98-15.84-14.08-4.34-.4-9.3-4.32-10.22-8.61-.31-1.46,.21-3.58,1.16-4.75,3.49-4.29,7.25-8.32,13.27-9.32,1.46-.24,2.7-1.75,4.04-2.68-1.01-1.04-1.88-2.26-3.04-3.08-6.52-4.63-11.87-10.27-14.73-17.76-1.23-3.2-1.99-6.77-2.02-10.18-.05-5.45,4.14-8.06,9.33-5.99,2.78,1.11,5.24,2.98,7.83,4.53,4.47,2.66,8.94,5.34,13.41,8.01v67.95Z" fill="#030202"/>
    <path d="M1219.96,1602.52c-3.5,.51-7,1.33-10.52,1.48-7.17,.29-13.79-6.34-13.5-13.31,.15-3.73,2.66-6.06,5.82-7.24,4.01-1.49,8.26-2.32,12.41-3.46,1.93-.53,3.86-1.09,5.79-1.64v24.16Z" fill="#030202"/>
    <path d="M1219.96,1653.85c-1.18-.3-2.73-.23-3.49-.96-3.21-3.09-6.45-6.21-9.12-9.74-1.14-1.5-1.89-4.69-1.05-5.92,1.34-1.95,4.02-3.55,6.41-4.06,2.24-.48,4.82,.64,7.26,1.06v19.63Z" fill="#030202"/>
  </g>
  <g id="birds">
    <g>
      <path d="M394.62,355.2c13.86-12.12,27.21-24.87,41.71-36.16,14.38-11.2,31.37-17.89,48.67-23.5,1.68-.54,3.59-1.28,5.16-.92,1.37,.32,3.05,1.89,3.4,3.22,.3,1.16-.86,2.91-1.78,4.1-.57,.74-1.85,.98-2.86,1.33-39.45,13.57-67.93,40.68-90.06,74.77-11.57,17.82-21.7,36.71-30.89,55.87-5.6,11.68-8.19,24.81-12.09,37.31-.63,2.03-.86,4.18-1.56,6.18-.51,1.47-1.5,2.77-2.27,4.15-.86-1.09-1.87-2.1-2.54-3.29-7.1-12.64-14.15-25.31-21.21-37.97-10.23-25.74-15.07-52.82-20.16-79.88-2.99-15.87-6.46-31.75-14.18-46.24l.02-.04-5.74-11.1-.71-.02,.71-.06c-1.32-2.13-2.64-4.26-3.95-6.39l-.19-.36c-1.75-2.54-3.5-5.07-5.25-7.61l.07,.13c-.7-.91-1.4-1.82-2.09-2.73-6.26-6.24-12.48-12.54-18.83-18.69-1.77-1.71-4.54-2.62-5.77-4.58-1.11-1.76-1.37-4.65-.76-6.66,.31-1.02,3.54-2,5.14-1.64,7.24,1.65,14.64,3.11,21.49,5.86,17.89,7.18,32.29,19.13,44.01,34.37,2.37,3.08,4.75,6.15,7.13,9.22,.9,1.46,1.81,2.91,2.71,4.37l-.08-.08c13.45,26.07,22.95,53.4,26.56,82.64,.39,3.13,1.38,6.18,2.1,9.26,2.01-2.8,4.03-5.6,6.04-8.41,0,0,0-.03,0-.03,2.32-3.43,4.63-6.86,6.95-10.29,0,0,.03,.05,.03,.05,2.16-2.82,4.32-5.65,6.48-8.47l-.46-.81,.5,.8c1.48-1.93,2.95-3.86,4.43-5.79l.24-.48c.56-.7,1.13-1.39,1.69-2.09l.09-.12c2.69-3.08,5.38-6.16,8.07-9.23Z" fill="#2b221f"/>
      <path d="M430.51,474.53c-3.25-13.14-10.38-23.97-19.96-33.31-1.52-1.48-3.56-2.53-4.78-4.2-.88-1.2-1.53-3.55-.92-4.58,.62-1.05,3.19-1.92,4.42-1.49,6.33,2.22,13.24,3.84,18.56,7.63,7.69,5.48,14.19,12.64,21.2,19.08,10.02,16.73,17.04,34.55,20.08,53.9,.55,3.53,2.01,6.91,3.05,10.36,2.09-3.18,4.18-6.35,6.27-9.53l.16-.43c2.06-2.84,4.12-5.68,6.18-8.52l.23-.24c3.47-4.25,6.93-8.51,10.4-12.76l.09,.03c2.06-2.19,4.11-4.37,6.17-6.56l.14,.1c1.39-1.31,2.78-2.62,4.17-3.94l.06-.18,3.53-3.05-.14,.1,2.53-2.09-.14,.22c2.07-1.55,4.15-3.11,6.22-4.66,0,0-.07,.06-.07,.06,6.48-3.55,12.95-7.1,19.43-10.64,4.13,.81,8.16-5.41,12.35-.17-3.3,2.21-6.42,4.77-9.93,6.56-19.61,9.96-34.07,25.29-44.91,43.97-7.26,12.52-14.06,25.46-19.39,38.88-3.71,9.36-4.5,19.87-6.8,29.82-.22,.97-1.92,1.59-2.93,2.38-2.79-4.48-5.57-8.96-8.36-13.44l-.21-.54c-1.61-2.61-3.22-5.21-4.82-7.82l.14,.09c-1.55-3.12-3.09-6.24-4.64-9.37l-.25-.84c-3.59-16.85-7.06-33.73-10.83-50.54-1.83-8.16-4.2-16.2-6.33-24.29Z" fill="#2b221f"/>
    </g>
  </g>
  <g id="sun">
    <circle cx="647" cy="675" r="127" fill="#ffd140"/>
  </g>
</svg>