<?xml version="1.0" encoding="UTF-8"?>
<svg xmlns="http://www.w3.org/2000/svg" viewBox="0 0 1233.45 2712.08">
  <g id="Background">
    <rect x="6.31" width="1220" height="2712" fill="#f29140"/>
  </g>
  <g id="mountain_3">
    <polygon points="6.31 561.8 76.86 579.62 137.31 675 190.64 770.73 236.86 874.61 275.97 874.61 307.97 902.08 339.97 998.93 393.31 998.93 443.09 1036.08 556.07 1045.04 677.75 1085.23 766.64 1024.2 898.2 1024.2 940.86 874.61 987.09 828.03 1026.2 701.05 1026.2 675 1072.42 623.84 1072.42 561.8 1043.97 481.55 1086.64 481.55 1161.31 454 1214.64 481.55 1226.31 549.88 1226.31 2712 6.31 2712 6.31 561.8" fill="#b95756"/>
  </g>
  <g id="mountain_2">
    <path d="M6.31,850.02l106.11-108.02c40.42,15.69,122.11,43.12,163.56,54.01,0,0,54.52,54.01,54.52,54.01,66.85-8.8,57.1-14.54,121.22,11.22,17.3,17.54,54.74,52.97,73.15,69.71,58.41,92.55,48.25,71.62,48.06,178.96,0,0,62.38,56.67,62.38,56.67,17.76,23.85,58.34,69.14,82,87.09,0,0,70.66,0,70.66,0,0,0,21.33,21.27,21.33,21.27,0,0,64,0,64,0,42.2-41.88,21.02-38.61,82-37.82l35.33-70.55c84.09,.65,50.77,6.68,103.11-56.67,0,0,32-14.72,32-14.72l60.56-122.78s40-41.45,40-41.45v1781.05H6.31V850.02Z" fill="#a63b45"/>
  </g>
  <g id="mountain_1">
    <path d="M6.31,1937l202-106,11-83,111,50,45-86,77-31-.59-59.63c14.53-19.46,29.06-38.91,43.59-58.37,18.74-35.81,22.27-64.93,22-85-.56-40.64-17.02-64.69-7-103,5.11-19.55,14.83-34.02,22-43,9.39,5.15,32.6,17.86,42,23,24.21,13.25,50.78,27.77,75,41,37.67-17.37,75.33-34.74,113-52.1,58.33,29.37,116.67,58.74,175,88.1,40.33,49.67,80.67,99.33,121,149,20.33,55.67,40.67,111.33,61,167,2.5,13.99,9.54,42.43,32,70,27.46,33.7,61.52,45.94,75,50v844H6.31v-775Z" fill="#6f2e4c"/>
  </g>
  <g id="Trees">
    <path d="M6.4,1983.02c2.53-83.34-16.81-71.33,28.38-136.04,13.41-22.48,48.57,28.38,16.75,28.06,20.54,7.89,33.99,9.34,25.17-16.03-.4-6.83,4.66-9.34,10.6-5.79,34.58,50.13,183.09-66.97,77.78-30.02-3.32-26.49-21.18,9.2-31.49-3.38-10.74-4.02-13.4,18.28-30.88,6.25-15.8-4.14-3.51-31.88-20.04-26.45-17.2,5.14-9.08-27.58-7.57-36.83-55.95,30.34-16.78-9.99-38.2-12.25-9.57-.53-27.78-19.96-17.97-22.51,45.87,4.05,17.35-8.99,33.91-13.11,41.12,38.8,18.46-13.79,35.59-10.24,40.17,81.05,151.73-47.16,95.76-18.83-6.05,9.64-10.45,8.78-16.69-.36-8.22-5.27-14.29,19.99-25.74,14.02-12.91-28.49,5.97-46.94-32.98-11.86-23.5,9.38-7.29-17.77,2.04-25.23,3.17-19.77-37.57,32.34-33.91,4.66,3.57-6.69,2.43-10.49-4.89-13.56-7.3-2.51-15.52-6.61-8.25-14.79,.71-13.01-33.17,.83-28.51-19.45,3.96-12.64,28.31-1.36,32.29-16.96,9.49-22.24,37,18.78,45.87,6,12.25-44.11,22-3.86,29.04-28.32,16.25-8.74,36.08,38.44,58.24,17.56,8.06-5.19,8.88-7.53,4.55-15.92-11.74-35.43,53.4,24.07,50.39-78.8-3.37,13.6-16.48,84.32-30.41,37.54-7.5-8.16-13.81,27.45-27.97,22-7.1-86.51-33.86,53.52-47.59-13.02-4.61-13.04-17.07,5.02-26.42-2.07-47.04-7.61-13.97-44.27,14.6-51.61,28.97,.13-7.21-56.98,45.69-17.61,5.82,4.13,11.95-5.86,4.67-7.14-9.13-3.91-7.24-16.12-14.95-22.14-4.87-5.77-23.48-12.47-11.38-19.85,9.71-7.95,37.53-3.19,28.84-21.5-1.54-5.33-5.95-11.72-11.2-5.51-3.75,4.84-11.12,8.34-13.35,.46-2.7-13.64-26.02-15.04-24.47-28.75,23.91-25.55,34.66-3.36,8.14-43.87-20.8-30.42,38.05-.23,5.04-48.4,3.87-38.78,27.07,35.77,37.27,7.01,16.63-18.1,66.88,167.67,71.25,53.92-1.19-21.12,8.95-46-3.95-64.14-19.83-13.57-5.73,20.83-21.52,16.36-4.83-8.64-10.86-13.68-22.09-10.96-21.75-1.76,5.64-36.84,19.71-36.9,15.4-12.3-14.35-8.82-21.07-4.66-16.71,6.74-31.69-13.35-10.28-19.42,24.24-14.7-11.38-24.63-5.66-40.85,11.6-4.47,34.32,29.88,36.35,10.18,14.56-12.05,17.62,36.68,30.18,44.29,29.75-18.57-62.03-121.86-14.5-105.04,28.71,51.31,5.45-39.33,32.58-50.2,5.87,23.17-7.57,68.43,5.18,82.61,67.19-72.46-18.69,55.89,1.45,88.11,13.35,2.66,13.69-99.62,30.76-48.6,4.74,16.39,19.79-17.52,30.28-6.92,9.1,19.98-29.5,42.92-15.83,62.22,6.42,4.67,9.86,10.91,3.61,18.4-13.67,10.13-24.17-16.16-21.2,18.66,3.44,12.55,17.26-8.88,24.17-2.46,13.13,16.7-28.27,30.71-3.62,46.79,16.7,22.32,54.9-58.56,62.22-19.51-2.37,9.31-7.38,16.96-14.11,23.71-8.12,6.01,30.21,20.44,7.4,26.69-60.64,46.51,6.57,28.78-.43,55.38-1.91,8.92-10.67,9.33-18.54,6.95-14.81-8.33-21.87,21.21-33.24,6.22-2.4-7-16.17-8.13-11.29,1.75,18.23,19.92,3.67,19.32-12.46,17.37-3.66,4.89,1.88,20.11-9.85,16.37-53.96-42.07-20.18,68.09,64.9-9.42,8.09-8.33,17.74,4.18,11.55,11.6-2.21,3.84-10.22,6.34-8.43,11.3,23.26,7.47,66.06-68.78,67.49-23.89,1.41,10.6,20.79,13.17,30.46,14.49,35.55,20.32-46.51,26.04-37.88,31.72,24.1,38.92-18.76,20.98-30.62,.65-14.7,.11,17.22,14.16,7.48,25.69-2.99,41.56-33.46-2.26-48.67,1.5,44.46,48.64-3.89,15.57-8.58,37.94-16.95-31.83-58.35-20.22-74.82-55.84-1.89,26.12,24.01,40.71,39.5,57.82,33.69,38.34,44.3,3.45,75.64,.8-3.31,41.94,32.95-9.96,36.18,11.33,1.13,6.61,4.43,14.22,12.38,10.92,12.8-13.41,37.21,3.96,22.44,16.47-3.69,1.86-3.89,3.57-2.32,6.96,6.16,15.7-17.14,16.45-22.27,27.44-5.79,18.99-28.68,6.6-33.15,22.18-4.45,8.27,1.01,22.59,10.32,12.38,8.53-9.32,40.52-6.94,31.97,10.15-9.06,8.28-11.87,43.59,6.38,27.25,44.18-44.59-2.84,17.08,60.2,1.95,4.2,19.94-28.92,17.94-27.72,36.46-.75,9.03-13.16,9.14-19.13,13.93-11.73,1.18-20.95,25.82-28.48,19.48-18.03-10.97-26.67,28.15-37.86,38.14-3.76,8.96-31.28,22.69-12.79,28.77,23.71,11.03,55.05,24.42,75.41,.41,4.86-2.92,9.14-.91,10.18,4.54-2.34,27.15,27.51,.46,36.64,13.8,7.95,15.73-18.96,19.9-16.56,36.13,.76,12.75-16.83,5.14-15.47,17.09-.86,12.37-6.27,15.66-18.16,12.86-13.46,.3,1.59,17.2-26.78,15.34,26.27,44.37,53.72-9.35,64.47,7.07,4.02,15.57,24.09-2.1,29.01,10.49-4.42,12.83-22.3,16.74-23.07,32.64-1.13,7.63-6.92,9.31-13.55,5.08-15.45-5.84-27.21,50.94-50.09,28.69-20.61-41.24-56.9-15.04-26.98-11.23,26.3,16.09-35.08,38.28,63.22,62.69,51.76,1.85,34.8,35.46,76.69,33.98,22.8,16.38-44.3,21.17-21.87,44.37q2.36,3.99,5.86,.84c6.64-11.93,44.55,18.3,36.49-4.93-4.72-2.79-10.3-12.69-.66-11.17,14.81,10.05,8.61-2.68,10.03-12.62,49.93,59.72,206.89-25.58,39.66-14.98-4.25-24.75-24.64,.54-38.13-7.44-17.32-1.58-6.41-39.82-46.96-63.73-20.77-12.05,19.8-17.91,28.37-23.73,9.42-1.62,7.71-20.44,20.31-8.97,8.31,9.88,22.09,6.54,33.54,8.32,12.35,3.64-11.22-38.6,15.39-21.84,26.61,43.18,172.27-55.83,83.8-28.37-8.22,3.05-10.04-5.38-12.37-11.09-12.22,12.36-27.78,8.73-42.49,14.49-25.79,12.16-21.64-18.71-32.33-25.43-23.56,2.23-9.91-18.8-17.52-30.86-7.22,7.33-30.69,20.55-26.29-.4,4.57-12.6-65.1-30.71-5.5-31.79,9.4,2.48,5.68-13.28,12.36-10.79,21.98,17.3,36.76,24.03,31.7-10.76,18.32,4.34,31.8,38.33,56.02,27.24,22.13-9.76,61.21-18.07,64.65-45.18-12.97-12.87-20.88,23.41-33.14,6.03-3.4-3.78-4.43-3.98-7.34,.18-31.41,29.07-15.92-10.01-30.06-16.83-8.23,2.49-31.5,30.46-34.95,11.71,.98-5.87,27.38-27.19,9.26-21.54-48.56,37.38-16.86,.67-35.03-4.19-16.86-.11-5.1-15.8-16.67-15.75-48.3-16.76-1.67-19.16,15.14-28.67,5.54-7.11,6.24-7.25,14.38-3.62,41.11,26.32,23.62-2.55,46.47-10.99,8.28,1.66,9.64,.87,12.03-7.03,8.51-7.84,61.01,49.28,65.85,5.7-14.75-26.8,39.34-4.32,41.83-28.42,5.28-27.43-2.34,5.75-14.75,3.12-11.03-3.34-6.33-24.89-17.09-5.93-33.75,28.56-11.51-11.26-30.18-14.9-46.3,70.83-24.32,2.66-47.1,12.72-11.86,12.03-32.3-2.58-42.76-10.96-1.74-14.44,23.39-29.9,37.96-33,21.94,1.76,7.68-25.11,22.29-26.09,31.48,1.79,36.41,21.48,20.58-12.21-1.37-7.93-31.7-13-14.52-22.5,86.08-23.75-53.52-22.58-14.13-55.96,17.02-.92,18.09-10.3,6.75-21.32-37.75-43.03,32.93,.34-2.08-53.48,6.03-27.53,23.93,19.04,34.53,12.46,19.82-41.73,50.09,113.86,74.92,62.68,.29-18.24,14-114.17-19.59-63.17-22.32-16.41-54.59-4-19.41-36.43,4.15-4.19,25.01-5.17,13.92-12.63-14-4.48-28.74,11.61-40.76,2.13-9.94-9.68,4.45-14.91,12.14-17.95,16.74-11.22-17.44-20.46-11.75-33.84,12.34-.27,22.74,11.52,34.33,15.81,12.51-23.05,19.83,8.22,24.92,21.95,11.98,23.19,17.3,1.62,12.31-13.14-4.97-24.66-23.42-42.29-33.85-64.1-.35-21.88,25.85,.19,26.1,10.77,18.8-1.05-.51-41.41,15.5-54.36,25.67-20.99-10.4,93.15,22.04,60.63,5.3-4.97,17.33-25.63,20.48-10.4-7.01,29.45-45.14,68.2-26.07,95.37,12.74-9.95,10.71-76.81,29.21-46.02,4.98,21.19,33.13-27.69,33.09,4.07-14,34.01-28.86,25.97-11.66,60.33-4.44,13.4-18.57-1.79-23.96,6.01-7.26,37.21,12.52,5.98,24.87,11.18,4.98,8.85-3.71,19.32-10.24,25.46-8.45,5.51,2.88,12.49,7.07,16.87,18.61,12.56,34.37-22.05,53.12-26.95,15.17-5.81,8.12,19.94,.62,24.79-14.52,12.2,7.81,13.19,7.59,24.03-67.18,42.51-.62,32.87-5.98,53.03-6.46,15.64-29.85-3.22-38.87,11.56-9.42,14.14-16.08-11.2-25.59-3.15-2.64,6.24,18.05,21.98-.1,22.22-16.02-10.82-23.27,22.88-37.14,4.46-10.85-15.05-33.46,29.15,31.35,21.49,23.97,6.12,40.46-27.43,61.75-18.34-10.1,23.64,7.21,14.29,21.19,4.87,57.44-46.98,17.32,6.17,66.83,1.21,36.14,18.75-25.87,23.39-37.73,27.06,20.46,25.79-1.83,31.14-21.62,11.83-7.57-.43,6.23,12.09,.24,17.65-7.7,28.07-26.92,2.79-44.02,2.29,29.89,38.64-.71,14.27-12.4,25.11-3.38,5.35-7.94-1.56-10.43-4.25-15.41-17.74-45.62-5.54-58.28-27.9-34.88-43.75,30.78,97.9,106.31,36.69-.08,40.5,25.25-3.79,37.83,13.19,3.09,6.78,4.95,9.73,13.1,7.57,59.13-10.14-3.43,56.02-28.89,58.71-9.25,.34-9.09,10.23-7.88,17.28,8.16,11.97,18.14-14.56,42.71-.46,8.42,2.59,.93,10.18-2.34,14.12-13.84,21.02,5.32,31.82,18.93,11.66,4.75-5.68,17.13-9.54,15.16,2.08-5.68,16.53,17.73,6.58,26.37,6.76-31.37-37.93,57.23,15.03,38.01-22.86,1.96-32.84,36.22,33.58,43.01,8.85,7.54-15.92-16.44-26.39-9.51-37.86,28.75-17.38,55.49,21.42,52.33-9.04-1.94-19.87-24.76-2.85-28.36-14.86,1.88-16.05-18.11-4.82-17.97-16.99,2.85-15.04-23.68,0-17.46-15.67q2.29-7.22-4.37-10.64c-17.85-13.91,14.08-27.05,26.49-16.2,33.52-7.49-9.12-23.44,50.66-5.56,18.03,3.3-19.72-39.57,29.89-7.66,0,35.73,0,71.47,0,107.2-7.93,1.04-24.21-27.51-27.6-9.1,41.57,72.62,48.25,271.19,7.02,348.88-4.98,15.02,14.52-4.36,20.58-3.07,0,46.3,0,92.61,0,138.91-14.41-1.33-26.28-8.13-28.29,11.71-8.06,9.14-8.49-4.82-11.38-9.69-14.35,8.24-12.38,26.71-22.38-1.22-10.05,21.44-36.85,40.9-49.48,8.98-7.13,5.8-15.26,21.97-19.12,4.67-5.3-25.55-32.48,9.29-38.28-8.99-1.15-9.14-9.78-7.02-15.55-10.32-24.17-35.73-26.84,30.3-57.76-22.31-11.83,18.74-11.75,2.79-21.4,.64-5.16,8.62-9.27,10.98-12.92-.42-3.19-10.39-37.65-3.19-19.91,7.67,26.87,25.97,127.75,21.42,50,52.04,73.78,22.24,169.48,18.79,239.64-17.71,18.2,91.89,3.08,248.61,5.32,359.32-404.09-3.53-820.08,7.22-1218.45-3.69,19.76-213.47-42.34-582.02,29.19-685.06,9.05,.82,4.52-15.47-2.31-12.29-40.86,12.78-29.88-18.08,5.71-12.66,3.64,.87,32.31-3.24,20.63,4.76-4.31,3.08-20.21,2.9-11.88,9.15,42.63,63.9,172.72-44.23,57.24-18.66-6.62-4.94-13.4-6.47-21.08-1.68-10.47,4.63-4.17-21.16-20.71-12.33-37.74,14.17-9.5-12.38-56.7,4.76Zm241.24-508.68c-3.87-2.14-25.3-6.28-23.12,4.38,4.1,9.43,19.69,3.83,23.12-4.38Zm130.57,238.06c15.34,4.93,27.5-31.28,13-30.64-8.78,5.77-19.36,19.66-30.46,11.25-18.29-18.78-7.94,5.42-22.9-.21-24.88-7.35,26.53,24.24,40.35,19.6Zm772.78,325.33c17.58-2.05,83.53-11.73,50.69-33.02-24.05-4.65-31.46-69.58-56.63-46.12-8.9,3.86-5.05-15.65-18.58-11.72-11.33-4.3-14.47-17.83-30.76-14.72-15.19-1.63,6.29-23.64-21.26-21.36-8.39,6.78-24.59,9.28-27.83,19.95,.57,6.94,.21,7.32-5.94,10.07-17.41,2.17-30.63,25.18-46.1,21.28-23.68-2.82-26.35,41.81-50.59,49.74-6.53,4.14-3.7,9.67,2.34,12.27,60.21,31.25,67.47-7.92,85.96,2.63,.98,31.93,29.62,2.66,48.31,12.5,41.11,14.28,13.08-16.97,34.58-17.43,11.97,5.87,20.73,17.85,35.8,15.93Zm30.34,155.01c6.34,2,12-3.09,7.64-9.34-27.34-23.19-48.36,52.53-72.77,17.79-.65-6.91-1.94-7.72-9.08-8.4-13.92-2.59-1.5-25.64-24.59-15.57-21.34,1.94-2.04-36.98-42.4-10.84-34.69,62.32-57.74-23.84-76.05,9.04,13.79,.47,19.23,9.11,10.77,20.58,5.63,34.69,63.97,35.73,93.39,40.39,23.73,35.63,67.12,11.24,100.06-6.88,21.2-5.79-21.36-39.51,13.03-36.77Zm-622.64,80.12c27.28-1.68,39.85-28.14,1.19-19.5-16.92,1.27-4.04-22.58-20.42-23.06-26.16-1.35-23.96-36.08-42.67-42.03-13.8,.06-8.83,31.11-22.98,8.86-13.82,8.53-31.11,25.51-40.91-4.63-7.16-16.47-10.3,20.03-21.36-5.79-4.12-4.23-4.39,4.24-5.52,6.62-3.69,8.07-8.94-.87-9.33-5.82-17.8-16.48-44.19,1.6,.73,20.62,23.72,15.29,95.76,19.56,29.7,43.16,17.19,29.81,93.25,10.67,131.58,21.57Zm561.37-134.39c8.98-.66,36.31-8.27,32.01-16.98-7.59-2.56-17.6-2.29-21.82-10.38-3.9-14.41-21.87,6.18-26.65-10.45-1.59-16.09-17.46-11.38-19.4-21.71-.56-9.78-11.13-27.73-21.64-22.46-10.71,5.09-6.69,20.17-14.13,24.49-13.62-2.89-8.52,13.85-17.78,15.06-14.58-1.03-20.6,17.64-36,14.63-15.03,15.36,38.59,19.19,48.96,8.67,5.41-3.21,10.71-3.03,15.07,2,11.77,9.97,29.51-6.19,40.44,9.15,5.06,6.05,12.9,7.52,20.96,7.98Zm-193.32-249.19c15.29,3.83,29-9.01,22.94-23.51-13.66-.46-26.44,24.27-41.09,4.61-8.2-10.13-11.55,15.07-22.13,.68-24.15-2.8,30.5,25.23,40.28,18.23Zm-331.97,418.41c13.47-1.14,58.31,1.2,36.5-23.09-11-7.8-68.08,28.03-36.5,23.09Zm-335.45-880.05c.1-6.95-4-12.65-10.04-12.55-20.47,4.85-27.31-26.62-39.67-25.77-2.32,13.19,44.69,58.98,49.72,38.32Zm550.66,211.12c-5.89-16.1-32.66-3.83-41.34-28.79-32.81-14.8,38.41,54.3,41.34,28.79Zm-519.79-258.51c-3.05,15.32,36.52-28.37,28.24-32.79-13.26-4.24-27.94,20.83-28.24,32.79Zm582.28,194.08c-5.45-18.17-32.6,15.15-31.01,26.41,6.67,3.78,24.04-19.23,31.01-26.41ZM69.89,2184.46c18.58-1.36,31.78-22.12,5.75-16.32-4.22,2.51-14.05,13.92-5.75,16.32Zm219.23-875.8c1.55,23.72,11.74-22.73,15.79-31.44-6.92-6.68-16.75,21.67-15.79,31.44Zm551.23,224.4c1,25.54,14.61-18.91,16.13-28.1-10.28,4.98-14.37,17.94-16.13,28.1Zm-596.6,78.33c3.92,35.76,12.93-5.66,4.13-18.55-2.41,5.75-2.61,12.63-4.13,18.55Zm541.13,78.67c5.96,.24,13.76-4.37,9.51-9.82-11.24-4.82-29.79,6.45-9.51,9.82Zm18.36,111.65c-1.85-4.74-.32-12.43-4.61-15.08-5.84,11.66-.28,43.81,4.61,15.08Zm244.1,514.87c-1.82-6.13-6.84,5.84-5.91,7.88,3-.41,4.06-5.95,5.91-7.88Z" fill="#030202"/>
    <path d="M1201.01,1721.71c-3.44,1.75-6.78,3.92-10.97,2.9-.6-1.11-1.54-2.16-1.74-3.33-1.18-7-3.58-13.19-8.75-18.53-3.08-3.18-2.47-6.02,1.15-9.2,3.17-2.79,7-4.86,10.64-7.11,2.51-1.55,6.04-2.12,5.95-5.98-.02-1.02-.88-2.62-1.73-2.92-3.63-1.28-6.26,.89-8.68,3.17-6.25,5.86-12.37,11.87-18.73,17.62-3.39,3.06-7.22,5.46-12.17,5.54-4.19,.07-7.63-1.22-9.61-4.86-1.96-3.62-1.39-7.31,1.16-10.59,1.24-1.59,2.62-3.07,3.9-4.63,2.08-2.53,4.18-5.05,6.19-7.64,1.37-1.76,.69-2.74-1.41-2.77-4.31-.05-8.66,.29-12.94-.09-6.79-.61-13.57-1.43-20.28-2.61-8.12-1.42-14.09-6.51-19.65-12.17-2.82-2.88-2.72-5.67-.38-8.72,2.27-2.96,5.13-4.67,8.93-5.09,7.79-.85,15.57-1.89,23.35-2.84,1.26-.15,2.53-.21,3.77-.46,7.81-1.53,8.76-3.14,6.38-10.79-2.59-8.35,.22-11.83,9.1-11.48,6.64,.26,11.32,3.91,15.57,8.42,12.46,13.19,27.68,21.83,45.1,26.8,3.64,1.04,7.39,1.69,11.09,2.53v52.85c-4.54,1.09-9.41,1.5-13.53,3.47-4.29,2.06-7.85,5.61-11.73,8.52Z" fill="#030202"/>
    <path d="M1226.27,1561.75c-3.12,.24-2.83-2.16-3.18-4.04-2.12-11.32-3.97-12.98-15.84-14.08-4.34-.4-9.3-4.32-10.22-8.61-.31-1.46,.21-3.58,1.16-4.75,3.49-4.29,7.25-8.32,13.27-9.32,1.46-.24,2.7-1.75,4.04-2.68-1.01-1.04-1.88-2.26-3.04-3.08-6.52-4.63-11.87-10.27-14.73-17.76-1.23-3.2-1.99-6.77-2.02-10.18-.05-5.45,4.14-8.06,9.33-5.99,2.78,1.11,5.24,2.98,7.83,4.53,4.47,2.66,8.94,5.34,13.41,8.01v67.95Z" fill="#030202"/>
    <path d="M1226.27,1602.52c-3.5,.51-7,1.33-10.52,1.48-7.17,.29-13.79-6.34-13.5-13.31,.15-3.73,2.66-6.06,5.82-7.24,4.01-1.49,8.26-2.32,12.41-3.46,1.93-.53,3.86-1.09,5.79-1.64v24.16Z" fill="#030202"/>
    <path d="M1226.27,1653.85c-1.18-.3-2.73-.23-3.49-.96-3.21-3.09-6.45-6.21-9.12-9.74-1.14-1.5-1.89-4.69-1.05-5.92,1.34-1.95,4.02-3.55,6.41-4.06,2.24-.48,4.82,.64,7.26,1.06v19.63Z" fill="#030202"/>
  </g>
  <g id="birds">
    <g>
      <path d="M400.93,355.2c13.86-12.12,27.21-24.87,41.71-36.16,14.38-11.2,31.37-17.89,48.67-23.5,1.68-.54,3.59-1.28,5.16-.92,1.37,.32,3.05,1.89,3.4,3.22,.3,1.16-.86,2.91-1.78,4.1-.57,.74-1.85,.98-2.86,1.33-39.45,13.57-67.93,40.68-90.06,74.77-11.57,17.82-21.7,36.71-30.89,55.87-5.6,11.68-8.19,24.81-12.09,37.31-.63,2.03-.86,4.18-1.56,6.18-.51,1.47-1.5,2.77-2.27,4.15-.86-1.09-1.87-2.1-2.54-3.29-7.1-12.64-14.15-25.31-21.21-37.97-10.23-25.74-15.07-52.82-20.16-79.88-2.99-15.87-6.46-31.75-14.18-46.24l.02-.04-5.74-11.1-.71-.02,.71-.06c-1.32-2.13-2.64-4.26-3.95-6.39l-.19-.36c-1.75-2.54-3.5-5.07-5.25-7.61l.07,.13c-.7-.91-1.4-1.82-2.09-2.73-6.26-6.24-12.48-12.54-18.83-18.69-1.77-1.71-4.54-2.62-5.77-4.58-1.11-1.76-1.37-4.65-.76-6.66,.31-1.02,3.54-2,5.14-1.64,7.24,1.65,14.64,3.11,21.49,5.86,17.89,7.18,32.29,19.13,44.01,34.37,2.37,3.08,4.75,6.15,7.13,9.22,.9,1.46,1.81,2.91,2.71,4.37l-.08-.08c13.45,26.07,22.95,53.4,26.56,82.64,.39,3.13,1.38,6.18,2.1,9.26,2.01-2.8,4.03-5.6,6.04-8.41,0,0,0-.03,0-.03,2.32-3.43,4.63-6.86,6.95-10.29,0,0,.03,.05,.03,.05,2.16-2.82,4.32-5.65,6.48-8.47l-.46-.81,.5,.8c1.48-1.93,2.95-3.86,4.43-5.79l.24-.48c.56-.7,1.13-1.39,1.69-2.09l.09-.12c2.69-3.08,5.38-6.16,8.07-9.23Z" fill="#2b221f"/>
      <path d="M436.82,474.53c-3.25-13.14-10.38-23.97-19.96-33.31-1.52-1.48-3.56-2.53-4.78-4.2-.88-1.2-1.53-3.55-.92-4.58,.62-1.05,3.19-1.92,4.42-1.49,6.33,2.22,13.24,3.84,18.56,7.63,7.69,5.48,14.19,12.64,21.2,19.08,10.02,16.73,17.04,34.55,20.08,53.9,.55,3.53,2.01,6.91,3.05,10.36,2.09-3.18,4.18-6.35,6.27-9.53l.16-.43c2.06-2.84,4.12-5.68,6.18-8.52l.23-.24c3.47-4.25,6.93-8.51,10.4-12.76l.09,.03c2.06-2.19,4.11-4.37,6.17-6.56l.14,.1c1.39-1.31,2.78-2.62,4.17-3.94l.06-.18,3.53-3.05-.14,.1,2.53-2.09-.14,.22c2.07-1.55,4.15-3.11,6.22-4.66,0,0-.07,.06-.07,.06,6.48-3.55,12.95-7.1,19.43-10.64,4.13,.81,8.16-5.41,12.35-.17-3.3,2.21-6.42,4.77-9.93,6.56-19.61,9.96-34.07,25.29-44.91,43.97-7.26,12.52-14.06,25.46-19.39,38.88-3.71,9.36-4.5,19.87-6.8,29.82-.22,.97-1.92,1.59-2.93,2.38-2.79-4.48-5.57-8.96-8.36-13.44l-.21-.54c-1.61-2.61-3.22-5.21-4.82-7.82l.14,.09c-1.55-3.12-3.09-6.24-4.64-9.37l-.25-.84c-3.59-16.85-7.06-33.73-10.83-50.54-1.83-8.16-4.2-16.2-6.33-24.29Z" fill="#2b221f"/>
    </g>
  </g>
  <g id="sun">
    <circle cx="653.31" cy="675" r="127" fill="#ffd140"/>
  </g>
</svg>