<?xml version="1.0" encoding="UTF-8"?>
<svg xmlns="http://www.w3.org/2000/svg" viewBox="0 0 1080.54 2137.11">
  <g id="bottleShape">
    <g>
      <path d="M586.71,2137.11c-308.52-21.06-507.37,51.19-578.58-323.99-7.22-73.52,16.78-147.49-3.93-222.44-3.97-22.47,6.91-49.05,15.72-71.94,32.7-61.13-33.72-120.57,4.06-180.64,7.44-13.89,8.65-25.72,.47-40.01-33.73-55.89,4.52-114.12-8.6-172.24-24.54-47.28,28.16-90.13,4.18-132.06-55.8-172.03,10.78-373.52,128.37-505.08,11.1-29.75,111.45-79.92,65.24-96.21-32.27-9.64-64.76-18.53-96.78-28.9-41.28-10.09-37.77-76.27,2.95-83.58,75.83-32.2,163.75-8.64,240.89-18.63,27.17-16.94,12.41-55.96,35.16-71.64,7.9-4.68,10.78-8.09,1.12-14.08-29.85-18.52-18.18-48.66-17.15-73.6-4.87-60.03,42.79-91.9,96.45-95.62,64.41,9.31,218.59-43.15,225.74,49.99,9.17,51.3,10.81,101.03,5.05,152.55,115.47,288.54,403.45,249.39,370.92,742.13-6.55,35.69-36.01,65.31-8.76,100.85,27.66,44.47-29.73,87.02-1.01,133.22,33.79,51.72-20.59,93.38-11.89,142.38,18.86,35.57,15.4,72.6,1.58,109-7.91,20.84-8.89,39.25,1.88,60.9,42.91,71.92-10.15,154.74,11.85,231.22,20.99,84.44-19.21,160.35-46.47,237.13-56.01,183.65-282.23,161.88-438.48,171.28Z"/>
      <path d="M346.52,306.17c-50.55,6.89-101.16,12.83-152.14,15.41,47.18,7.39,139.15,12.49,152.14-15.41Z" fill="#fff"/>
      <path d="M152.88,349.18c-71.16-26.72,63.93,37.71,118.19,18.92,43.65-32.4-95.37-13.65-118.19-18.92Z" fill="#fff"/>
      <path d="M533.1,323.97c-57.12,6.78-123.79-13.1-177.58,11.27C197.32,445.33,52.85,592,34.81,792.93c-47.7,123.78,450.8,89.27,531.63,85.19,76.66-24.78,511.21,16.33,487.02-79.91-25.19-205.07-162.67-353.98-324.55-468.91-62.39-13.49-131.37-1.46-195.81-5.34Z" fill="#fff"/>
      <path d="M620.6,2115.73c69.52-15.33,226.62-3.45,310.95-52.53,89.88-96.85,138.31-242.83,114.21-373.76-.23-22.29-9.2-21.04-26.29-17.66-317.11,45.58-647.21,50.66-965.53,9.66-9.92-1.94-18.05-3.65-17.99,9.7-12.62,111.07,11.47,211.35,61.36,310.39,97.94,149.19,342.58,88.17,523.29,114.21Z" fill="#fff"/>
      <path d="M506.24,1682.49c88.58-14.29,527.04,25.5,548.16-79.85-.94-51.93,3.48-127.65-71.93-97.86-301.84,16.82-618.89,71.44-914.72-9.21-40.51-11.01-24.46,87.69-32.53,113.38-24.29,100.09,385.68,64.82,471.02,73.53Z" fill="#fff"/>
      <path d="M1050.53,1386.4c-1.16-122.6-244.12-7.11-326.41-26.62-212.24,8.8-424.6-4.03-636.26-20.87-34.97-3.08-47.68,5.06-52.02,38.64-13.33,136.15,164.63,121.55,256.71,131.53,234.21,3.75,471.83-5.9,704.54-31.93,37.87-11.48,37.69-60.25,53.43-90.74Z" fill="#fff"/>
      <path d="M551.72,1202.08c83.29-27.05,547.69,12.06,497.39-135.92-9.36-36.86-13.45-37.92-51.4-32.28-304.28,25.43-616.73,23.36-920.98,5.12-45.96-16.18-41.87,30.05-41.74,60.27,5.62,130.86,393.53,79.18,516.73,102.81Z" fill="#fff"/>
      <path d="M426.11,1026.51c192.39-6.95,392.47,7.61,583.01-22.2,29.1-10.52,47.81-30.21,46.94-63.89-6.44-21.6,16.3-78.92-16.34-77.45-317.35,39.94-646.24,69.27-963.63,17.91-52.37-13.17-52.04-14.5-51.46,37.36,12.76,183.42,279.16,84.17,401.49,108.27Z" fill="#fff"/>
      <path d="M561.03,1338c94.08-7.94,493.55,22.32,492.85-98.64,8.43-40.87-13.2-62.19-55.52-61.12-311.63,48.02-629.76,66.33-940.92,2.42-38.41,6.45-18,68.32-18.49,95.9,41.86,92.14,416.32,48.83,522.08,61.44Z" fill="#fff"/>
      <path d="M552.98,177.8c-40.61,7.02-98.17-17.66-127.04,18.46-11.63,14.51-8.46,21.8,10.14,22.7,77.14-7.81,162.91,2.31,236.35-16.57-12.61-45.88-83.4-16.87-119.45-24.59Z" fill="#fff"/>
      <path d="M545.88,305.29c38.71-8.74,147.51,20.93,161.13-18.39-5.15-25.56-42.98-7.64-60.94-7.06-83.48,18.29-191.2-33.49-263.01,7.97,37.27,35.95,112.53,10.05,162.81,17.48Z" fill="#fff"/>
      <path d="M550.92,251.85c39.63-1.72,82.69,.24,123.44-.98,31.35-19.51-27.08-20.94-41.9-18.36-70.65,7.73-142.2,5.88-212.46,13.96,42.45,11.13,87.41,3.19,130.93,5.38Z" fill="#fff"/>
      <path d="M202.61,282.87c-3.46,3.43-106.89,20.76-73.15,32.29,36.93-13.53,178.62-26.93,73.15-32.29Z" fill="#fff"/>
    </g>
    <path d="M544.12,154.97c47.91-10.71,161.38,34.71,136.53-49.77-5.08-25.32,11.24-75.02-27.32-76.79-81.94,14.04-256.55-45.74-252.14,83.49-11.23,75.52,98.08,32.09,142.93,43.07Z"/>
    <path d="M415.09,509.99c-16.59,67.42-3.08,145.35-39.38,200.35-28.05-72.65,50.01-217.17-4.48-270.78-111.2,16.1-131.65,164.41-155.87,254.91-3.02,4.43-18.53,6.99-17.67-4.43-15.47-112.79,188.03-438.59,217.4-180.04Z"/>
    <path d="M657.31,599.16c16.3,59.72-10.6,149.57-20.7,31.86,2.66-90.95,6.09-158.48-77.39-213.9-90.8,95.61-21.8,211.79-64.53,261.28-20.56-64.15-19.42-336.58,96.43-271.1,64.35,41.55,74.85,123.79,66.2,191.86Z"/>
    <path d="M701.58,474.13c-5.11-44.02,44-102.75,74.1-44.8,54.27,76.32,121.28,159.49,144.22,249.14-75.39-50.2-98.12-201.19-185.67-246.33-33.4,59.92,37.51,189.43,17.87,244.25-32.66-55.42-45.65-141.36-50.51-202.26Z"/>
  </g>
  <g id="tobefilled">
    <path d="M346.52,306.17c-50.55,6.89-101.16,12.83-152.14,15.41,47.18,7.39,139.15,12.49,152.14-15.41Z" fill="#fff"/>
    <path d="M152.88,349.18c-71.16-26.72,63.93,37.71,118.19,18.92,43.65-32.4-95.37-13.65-118.19-18.92Z" fill="#fff"/>
    <path d="M533.1,323.97c-57.12,6.78-123.79-13.1-177.58,11.27C197.32,445.33,52.85,592,34.81,792.93c-47.7,123.78,450.8,89.27,531.63,85.19,76.66-24.78,511.21,16.33,487.02-79.91-25.19-205.07-162.67-353.98-324.55-468.91-62.39-13.49-131.37-1.46-195.81-5.34Z" fill="#fff"/>
    <path d="M620.6,2115.73c69.52-15.33,226.62-3.45,310.95-52.53,89.88-96.85,138.31-242.83,114.21-373.76-.23-22.29-9.2-21.04-26.29-17.66-317.11,45.58-647.21,50.66-965.53,9.66-9.92-1.94-18.05-3.65-17.99,9.7-12.62,111.07,11.47,211.35,61.36,310.39,97.94,149.19,342.58,88.17,523.29,114.21Z" fill="#fff"/>
    <path d="M506.24,1682.49c88.58-14.29,527.04,25.5,548.16-79.85-.94-51.93,3.48-127.65-71.93-97.86-301.84,16.82-618.89,71.44-914.72-9.21-40.51-11.01-24.46,87.69-32.53,113.38-24.29,100.09,385.68,64.82,471.02,73.53Z" fill="#fff"/>
    <path d="M1050.53,1386.4c-1.16-122.6-244.12-7.11-326.41-26.62-212.24,8.8-424.6-4.03-636.26-20.87-34.97-3.08-47.68,5.06-52.02,38.64-13.33,136.15,164.63,121.55,256.71,131.53,234.21,3.75,471.83-5.9,704.54-31.93,37.87-11.48,37.69-60.25,53.43-90.74Z" fill="#fff"/>
    <path d="M551.72,1202.08c83.29-27.05,547.69,12.06,497.39-135.92-9.36-36.86-13.45-37.92-51.4-32.28-304.28,25.43-616.73,23.36-920.98,5.12-45.96-16.18-41.87,30.05-41.74,60.27,5.62,130.86,393.53,79.18,516.73,102.81Z" fill="#fff"/>
    <path d="M426.11,1026.51c192.39-6.95,392.47,7.61,583.01-22.2,29.1-10.52,47.81-30.21,46.94-63.89-6.44-21.6,16.3-78.92-16.34-77.45-317.35,39.94-646.24,69.27-963.63,17.91-52.37-13.17-52.04-14.5-51.46,37.36,12.76,183.42,279.16,84.17,401.49,108.27Z" fill="#fff"/>
    <path d="M561.03,1338c94.08-7.94,493.55,22.32,492.85-98.64,8.43-40.87-13.2-62.19-55.52-61.12-311.63,48.02-629.76,66.33-940.92,2.42-38.41,6.45-18,68.32-18.49,95.9,41.86,92.14,416.32,48.83,522.08,61.44Z" fill="#fff"/>
    <path d="M552.98,177.8c-40.61,7.02-98.17-17.66-127.04,18.46-11.63,14.51-8.46,21.8,10.14,22.7,77.14-7.81,162.91,2.31,236.35-16.57-12.61-45.88-83.4-16.87-119.45-24.59Z" fill="#fff"/>
    <path d="M545.88,305.29c38.71-8.74,147.51,20.93,161.13-18.39-5.15-25.56-42.98-7.64-60.94-7.06-83.48,18.29-191.2-33.49-263.01,7.97,37.27,35.95,112.53,10.05,162.81,17.48Z" fill="#fff"/>
    <path d="M550.92,251.85c39.63-1.72,82.69,.24,123.44-.98,31.35-19.51-27.08-20.94-41.9-18.36-70.65,7.73-142.2,5.88-212.46,13.96,42.45,11.13,87.41,3.19,130.93,5.38Z" fill="#fff"/>
    <path d="M202.61,282.87c-3.46,3.43-106.89,20.76-73.15,32.29,36.93-13.53,178.62-26.93,73.15-32.29Z" fill="#fff"/>
  </g>
</svg>