<?xml version="1.0" encoding="UTF-8"?>
<svg id="Layer_2" data-name="Layer 2" xmlns="http://www.w3.org/2000/svg" viewBox="0 0 2254 7251.22">
  <g id="Layer_1-2" data-name="Layer 1">
    <path d="M583,819.99h-120.44c0-64.64,0-126.62,0-188.59,.02-141.9-.34-283.8,.22-425.7,.34-85.18,48.48-144.66,131.64-164.4C708.53,14.19,824.37,1.59,941.54,1.49c141.9-.13,284.03-4.46,425.61,2.28,99.8,4.75,199.44,21.7,298.09,39.21,77.19,13.71,126.53,76.98,126.98,155.79,1.17,203.26,.36,406.52,.23,609.79,0,2.7-1.36,5.39-2.83,10.85h-117.09c0,37.91-.93,73.08,.91,108.1,.31,5.91,11.69,13.46,19.43,16.43,125.34,48.15,235.21,119.72,326.67,218.06,138.48,148.91,221.51,324.81,228.9,528.3,8,220.23,5.02,440.89,5.08,661.36,.34,1262.75,.17,2525.49,.16,3788.24,0,157.24,.03,314.47-.28,471.71-.56,291.58-195.12,534.7-480.69,590.28-115.16,22.41-233.11,35.05-350.36,41.14-156.79,8.15-314.27,10.29-471.21,6.1-116.41-3.11-232.41-20.7-348.65-31.29-76.33-6.95-152.4-15.22-223.72-45.84-224.01-96.19-354.88-265.36-371.51-508.45-12.08-176.57-5.45-354.49-5.48-531.81-.2-1121.76,.08-2243.53,.15-3365.29,.02-339.41,.06-678.83-.24-1018.24-.31-351.97,221.94-673.98,555.09-801.55,20.68-7.92,28.08-16.97,26.67-38.51-1.86-28.39-.46-57-.46-88.17ZM19.12,4051.91h.12c0,136.14,0,272.28,0,408.42,.03,656.72,.23,1313.45-.53,1970.17-.03,25.92,8.06,31.86,32.23,32.83,49.66,2,99.11,8.94,148.76,11.66,232.37,12.71,464.65,28.95,697.21,35.58,191.48,5.46,383.31,.61,574.94-2.39,106.28-1.66,212.59-7.16,318.68-14.03,136.59-8.85,272.91-21.74,409.49-30.69,27.47-1.8,36.93-7.04,36.91-37.21-.86-1556.01-.65-3112.01-1.2-4668.02-.02-48.67-2.12-98.22-11.17-145.86-59.92-315.57-241.65-532.08-538.32-652.92-13.7-5.58-29.6-8.09-44.49-8.11-343.22-.44-686.44-.43-1029.67-.02-13.96,.02-28.7,2.62-41.75,7.53C234.56,1085.41,19.18,1397.3,19.14,1756.74c-.08,765.06-.02,1530.11-.02,2295.17Zm.16,2424.43c0,50.76-.42,96.62,.07,142.46,2.57,241.85,142.78,449.02,363.1,537.61,69.19,27.82,141.9,37.79,215.35,44.65,116.23,10.85,232.27,27.49,348.73,31.41,231.82,7.81,463.88,6.59,694.04-28.83,73.41-11.29,148.93-19.62,218.36-43.93,229.34-80.27,373.98-293.43,377.14-543.84,.57-45.61,.08-91.24,.08-139.56-740.16,72.86-1476.58,72.85-2216.87,.01ZM478.25,801.6H1774.51c.83-5.22,1.91-8.85,1.91-12.48,.14-197.39,.9-394.79-.16-592.17-.37-68.11-44.64-125.1-112.61-137.14-97.65-17.29-196.23-34.15-295.02-38.97-137.66-6.71-275.88-1.6-413.86-2.52-115.3-.77-229.09,11.11-341.81,35.19-91.62,19.57-134.56,71.03-134.69,164.29-.16,114.99-.03,229.97-.02,344.96,0,78.47,0,156.94,0,238.84Zm121.93,130.33H1654.24v-110.32H600.18v110.32Z"/>
  </g>
</svg>
