<?xml version="1.0" encoding="UTF-8"?>
<svg id="Layer_2" data-name="Layer 2" xmlns="http://www.w3.org/2000/svg" viewBox="0 0 444.37 1568.1">
  <g id="Layer_1-2" data-name="Layer 1">
    <path d="M242.31,0c.8,.61,1.8,.52,2.7,.71,3.97,.84,7.65,2.4,11.06,4.53,6.43,4.01,12.62,8.38,18.51,13.15,4.07,3.3,8.13,6.62,12.16,9.97,2.85,2.37,5.73,4.73,8.46,7.24,4.16,3.84,7.37,8.43,9.98,13.44,2.74,5.26,4.71,10.8,6.28,16.5,1.41,5.12,2.71,10.27,3.7,15.49,.59,3.14,1.1,6.3,1.6,9.46,.43,2.73,.82,5.46,1.18,8.2,.2,1.51,.34,3.03,.48,4.55,.16,1.74,.34,3.48,.42,5.22,.18,3.93,.37,7.85,.45,11.78,.07,3.86,.17,7.74-.07,11.59-.18,2.98-.12,5.98-.41,8.94-.34,3.54-.55,7.09-1.07,10.63-.47,3.23-.93,6.47-1.45,9.7-.48,3.01-1.04,6.01-1.52,9.03-.41,2.58-.77,5.17-1.12,7.77-.28,2.09-.52,4.18-.77,6.27-.03,.22-.04,.44-.06,.65-.15,2.69-.36,5.37-.44,8.06-.08,2.62,.03,5.25-.06,7.87-.11,3.36,.3,6.69,.55,10.03,.26,3.47,.87,6.92,1.36,10.37,.39,2.73,.8,5.46,1.23,8.19,.5,3.16,1.05,6.31,1.54,9.47,.12,.79,.2,1.61,.12,2.39-.23,2.15-1.15,3.85-3.2,4.86-1.46,.72-3.03,1.04-4.57,1.44-7.18,1.86-14.37,3.68-21.58,5.42-2.47,.59-5,.91-7.51,1.33-2.01,.34-4.03,.59-5.98,1.21-.9,.29-1.01,.55-.62,1.45,.58,1.35,1.36,2.54,2.4,3.62,3.17,3.28,6.81,5.9,10.84,8.03,9.11,4.81,18.64,8.61,28.48,11.6,8.07,2.46,16.27,4.45,24.57,5.99,8.32,1.54,16.42,3.83,24.33,6.83,2.65,1.01,5.38,1.83,7.89,3.17,4.01,2.15,7.56,4.86,10.53,8.37,2.66,3.14,4.8,6.6,6.64,10.24,2.34,4.61,4.66,9.24,6.77,13.96,3.72,8.33,6.59,16.95,8.14,25.97,.59,3.44,1.05,6.89,1.3,10.38,.17,2.39,.5,4.77,.74,7.15,.19,1.88,.31,3.77,.51,5.65,.24,2.31,.54,4.62,.8,6.93,.19,1.66,.34,3.33,.54,4.99,.21,1.73,.46,3.46,.69,5.18,.19,1.44,.39,2.88,.55,4.33,.19,1.73,.33,3.48,.54,5.21,.2,1.66,.47,3.31,.7,4.96,.19,1.37,.37,2.74,.52,4.11,.2,1.81,.33,3.62,.54,5.43,.19,1.66,.48,3.31,.68,4.97,.21,1.73,.37,3.47,.58,5.2,.24,2.09,.51,4.18,.76,6.27,.17,1.44,.35,2.89,.49,4.33,.33,3.25,.64,6.51,.98,9.76,.23,2.24,.5,4.48,.76,6.71,0,.07,.01,.15,.02,.22,.18,2.83,.19,5.69,.57,8.49,.43,3.18,.12,6.41,.7,9.57,.03,.14,.03,.29,.04,.44,.17,3.49,.34,6.98,.51,10.47,.16,3.12,.23,6.26,.52,9.37,.3,3.33,.57,6.66,.86,10,.27,3.18,.76,6.35,1.16,9.52,.33,2.67,.64,5.34,1.01,8,.28,2.02,.6,4.03,.97,6.03,.81,4.43,1.63,8.86,2.5,13.28,1.16,5.85,2.48,11.66,4.06,17.42,2,7.3,3.94,14.61,5.41,22.03,.75,3.78,1.33,7.59,1.92,11.39,.6,3.88,1.15,7.76,1.63,11.66,.28,2.24,.36,4.49,.56,6.74,.24,2.68,.5,5.35,.75,8.03,.01,.15,.03,.29,.03,.44,.18,2.76,.32,5.52,.53,8.28,.21,2.75,.48,5.5,.73,8.25,.01,.15,.03,.29,.04,.44,.12,2.25,.29,4.51,.4,6.75,.31,6.25,.71,12.51,.6,18.78-.11,5.9-.12,11.81-.11,17.72,.01,9.77,.07,19.54,.11,29.31,.51,5.01,.19,10.05,.44,15.06,.1,2.1,.44,4.19,.68,6.28,.19,1.66,.37,3.32,.57,4.98,.24,2.02,.55,4.03,.75,6.06,.13,1.38,.12,2.77,.19,4.15,.03,.64-.16,1.32,.33,1.88v65.63c-.11,.33-.33,.67-.31,1,.12,2.73-.58,5.35-1.12,7.98-1.44,6.99-3.34,13.86-5.26,20.72-.35,1.26-.77,2.51-.98,3.8-.47,2.92-1.93,5.28-3.77,7.5-3.16,3.81-6.25,7.68-9.39,11.51-2.4,2.93-4.85,5.82-7.27,8.73-2.66,3.19-5.28,6.4-7.96,9.57-2.16,2.56-4.38,5.07-6.59,7.59-1.25,1.43-2.51,2.83-3.78,4.24-.74,.82-1.62,1.46-2.65,1.88-1.86,.76-3.64,.51-5.14-.71-3-2.43-4.6-5.58-4.43-9.53,.06-1.34,.48-2.57,1.06-3.75,.81-1.63,1.66-3.25,2.47-4.88,1.04-2.09,1.8-4.28,2.31-6.57,.31-1.38,.29-2.74,.25-4.13,0-.4-.25-.52-.58-.28-1.3,.93-2.61,1.87-4.11,2.47-1.08,.44-2.16,.89-3.27,1.2-3.49,.97-6.52-1.08-6.8-4.72-.15-1.88,.06-3.78,.13-5.67,.02-.43,.17-.86,.19-1.29,.18-3.42,.24-6.84,.55-10.25,.28-3.11,.26-6.25,.72-9.35,.28-1.87,.33-3.77,.53-5.65,.21-1.95,.46-3.9,.73-5.84,.32-2.3,.65-4.61,1.01-6.9,.87-5.47,2.11-10.85,3.62-16.17,1.28-4.49,2.84-8.88,4.7-13.15,1.05-2.4,2.19-4.77,3.39-7.1,3.03-5.91,5.54-12.04,7.91-18.23,1.29-3.36,1.89-6.84,1.94-10.46,.07-4.77-.61-9.43-1.64-14.06-1.76-7.88-3.56-15.75-5.37-23.61-1.55-6.73-3.12-13.46-4.69-20.19-1.64-7.01-3.31-14.01-4.94-21.03-1.27-5.45-2.49-10.92-3.74-16.38-1.88-8.22-3.76-16.45-5.65-24.67-1.02-4.47-2.08-8.92-3.09-13.4-.83-3.69-1.63-7.38-2.37-11.09-.31-1.56-.41-3.17-.6-4.76-.25-2.09-.51-4.18-.74-6.28-.18-1.59-.34-3.18-.48-4.77-.19-2.17-.27-4.36-.54-6.52-.7-5.52-.17-11.07-.49-16.59-.18-3.11-.13-6.26-.66-9.35-.25-1.43-.36-2.88-.5-4.33-.5-5.22-1.52-10.35-2.52-15.49-1.05-5.42-2.11-10.85-3.19-16.27-.92-4.64-1.85-9.27-2.81-13.9-1.12-5.41-2.26-10.82-3.42-16.22-.88-4.12-1.82-8.24-2.71-12.36-1.43-6.61-2.83-13.22-4.25-19.83-.05-.21-.11-.42-.18-.62-.02-.06-.09-.15-.14-.15-.12,0-.31-.01-.36,.06-.47,.74-.93,1.48-1.35,2.24-1.8,3.25-3.54,6.54-5.39,9.76-1.96,3.41-4.02,6.76-6.04,10.14-1.72,2.87-3.43,5.75-4.95,8.75-1.27,2.51-1.99,5.16-2.41,7.9-.53,3.52-.9,7.07-1.4,10.59-.53,3.74-.93,7.5-1.32,11.26-.31,3.03-.78,6.05-1.16,9.08-.34,2.74-.63,5.49-.99,8.23-.3,2.23-.69,4.45-1,6.68-.26,1.87-.49,3.75-.71,5.62-.26,2.24-.5,4.48-.74,6.72-.06,.58-.08,1.16-.12,1.74-.18,2.54-.23,5.1-.57,7.62-.26,1.89-.29,3.77-.36,5.66-.14,3.52,.4,6.97,1.09,10.4,.69,3.42,1.49,6.82,2.2,10.24,.37,1.78,.63,3.58,.95,5.37,.85,4.67,2.18,9.21,3.82,13.65,2,5.39,4.16,10.72,6.26,16.08,1.49,3.8,3.03,7.57,4.48,11.38,4.99,13.14,9.59,26.42,13.84,39.82,2.46,7.77,4.81,15.57,6.86,23.47,1.33,5.14,2.75,10.26,4.03,15.41,1.97,7.98,3.79,15.99,5.37,24.06,.77,3.92,1.31,7.89,1.94,11.83,.4,2.51,.82,5.02,1.14,7.54,.26,2.02,.39,4.05,.57,6.08,.25,2.75,.49,5.5,.73,8.25,.05,.58,.08,1.16,.08,1.75,0,7.58,.12,15.17-.05,22.75-.07,3.04-.17,6.11-.69,9.13-.02,.14-.03,.29-.04,.44-.17,2.47-.31,4.94-.53,7.4-.18,2.1-.45,4.19-.68,6.29-.03,.29-.08,.58-.11,.87-.29,2.82-.58,5.64-.85,8.46-.14,1.52-.16,3.04-.39,4.57-.33,2.15-.38,4.35-.56,6.52-.25,3.04-.52,6.08-.78,9.13-.02,.22-.04,.44-.05,.65-.17,2.39-.31,4.79-.53,7.18-.18,1.88-.47,3.75-.71,5.62-.18,1.44-.35,2.89-.52,4.33-.19,1.59-.32,3.18-.56,4.77-.54,3.67-1.08,7.33-1.71,10.99-.72,4.23-1.5,8.45-2.31,12.66-.92,4.71-1.89,9.41-2.87,14.11-.68,3.27-1.41,6.54-2.15,9.8-.84,3.69-1.64,7.39-2.58,11.05-1.5,5.85-3.03,11.69-4.67,17.5-2.13,7.57-3.99,15.2-5.91,22.82-1.08,4.3-2.12,8.62-3.18,12.93-1.51,6.15-3.03,12.29-4.53,18.44-2.26,9.26-4.49,18.52-6.75,27.78-.73,2.97-1.56,5.91-2.27,8.88-.89,3.68-1.6,7.39-2.12,11.14-.4,2.88-.87,5.75-1.19,8.64-.27,2.38-.37,4.79-.55,7.18-.89,11.65-.42,23.31-.38,34.97,0,2.4,.25,4.79,.35,7.19,.06,1.31,.01,2.63,.08,3.94,.09,1.82,.26,3.63,.37,5.44,.19,3.27,.3,6.54,.53,9.81,.23,3.19,.52,6.38,.87,9.56,.31,2.82,.75,5.62,1.12,8.43,.22,1.73,.42,3.47,.59,5.2,.27,2.6,.51,5.21,.76,7.81,.04,.43,.05,.87,.05,1.31,0,9.11-.02,18.23-.03,27.34-.47,3.26-.23,6.55-.44,9.82-.14,2.25-.46,4.48-.7,6.72-.15,1.37-.3,2.75-.46,4.12-.32,2.74-.62,5.49-.98,8.23-.36,2.74-.82,5.46-1.17,8.2-.24,1.87-.37,3.76-.57,5.64-.21,1.95-.45,3.9-.69,5.84-.17,1.37-.38,2.74-.53,4.11-.69,6.37-1.86,12.65-3,18.95-1.15,6.3-2.54,12.54-3.92,18.79-1.91,8.67-4.19,17.25-6.39,25.84-2.13,8.32-4.44,16.59-6.62,24.89-1.74,6.61-3.4,13.25-5.1,19.87-1.21,4.72-2.44,9.44-3.61,14.17-1.68,6.85-3.37,13.7-4.95,20.58-1.26,5.53-2.42,11.08-3.5,16.65-.62,3.21-1.04,6.46-1.5,9.7-.43,3.02-.8,6.05-1.2,9.08-.02,.14-.03,.29-.03,.44-.25,5.02-.65,10.03-.48,15.06,.02,.51,.03,1.02,0,1.53-.18,3.72,.27,7.43,.54,11.12,.32,4.34,.85,8.67,1.51,12.99,.49,3.23,1.04,6.46,1.06,9.76,0,1.16,.27,2.31,.31,3.47,.17,4.32-.36,8.57-1.3,12.78-.67,2.99-.42,5.92,.28,8.86,.74,3.09,2.26,5.82,3.9,8.5,4.26,6.96,8.52,13.92,12.74,20.9,1.32,2.19,2.39,4.52,3.19,6.94,1.36,4.11,.41,7.79-2.55,10.89-1.45,1.52-3.06,2.92-4.68,4.27-2.41,2-4.97,3.79-7.69,5.38-2.92,1.71-6.03,2.89-9.24,3.87-6.2,1.89-12.49,3.39-18.8,4.83-.27,.06-.51,.24-.77,.36h-6.56c-.12-.08-.22-.22-.35-.25-1.63-.34-3.27-.7-4.91-.98-1.93-.33-3.88-.56-5.81-.9-1.14-.2-2.27-.5-3.38-.85-3.16-.98-5.74-2.84-7.75-5.44-1.49-1.94-2.27-4.22-2.75-6.6-.19-.92-.38-1.87-.36-2.81,.03-1.46-.51-2.69-1.14-3.93-1.52-3-2.62-6.16-3.38-9.44-.03-.14-.11-.26-.16-.39-.12,.07-.31,.12-.35,.22-1.26,3.57-2.55,7.12-3.73,10.71-.7,2.14-1.22,4.34-1.84,6.5-.3,1.05-.6,2.1-.99,3.12-1.46,3.81-4.33,6.14-8.06,7.49-3.02,1.09-6.15,1.76-9.31,2.29-1.87,.31-3.75,.5-5.65,.49-.5,0-1.01,.14-1.51,.17-.72,.05-1.46,.14-2.18,.1-6.04-.35-12.01-1.18-17.78-3.1-2.21-.74-4.37-1.61-6.52-2.5-5.81-2.41-11.19-5.61-16.41-9.09-1.21-.8-2.39-1.68-3.43-2.69-3.29-3.19-4.17-7.04-2.9-11.42,.57-1.98,1.52-3.79,2.56-5.54,3.79-6.39,7.64-12.74,11.48-19.1,.87-1.43,1.83-2.81,2.68-4.25,1.85-3.13,2.91-6.5,2.95-10.16,.03-2.26-.01-4.52,.02-6.78,.02-1.89-.12-3.79,.3-5.66,.08-.35,.06-.73,.04-1.09-.14-3.36,.35-6.69,.57-10.03,.23-3.4,.84-6.78,1.13-10.18,.28-3.33,.77-6.64,1.09-9.97,.47-5.03,.32-10.05,.24-15.07-.04-2.68-.46-5.36-.72-8.03-.16-1.66-.3-3.33-.5-4.99-.38-3.17-.79-6.34-1.2-9.52-.17-1.37-.34-2.74-.54-4.11-.4-2.73-.79-5.47-1.23-8.19-.61-3.8-1.2-7.61-1.93-11.39-.68-3.5-1.51-6.96-2.32-10.44-1.63-7.01-3.29-14.02-4.94-21.03-1.23-5.24-2.43-10.49-3.68-15.72-1.65-6.93-3.31-13.87-5-20.79-2.18-8.9-4.4-17.8-6.59-26.69-2.16-8.76-4.21-17.54-5.92-26.4-1-5.21-2.19-10.39-3.21-15.6-.88-4.49-1.67-9.01-2.43-13.52-.59-3.51-1.13-7.03-1.62-10.56-.26-1.87-.37-3.76-.56-5.64-.24-2.46-.49-4.92-.74-7.37-.02-.22-.05-.43-.06-.65-.12-2.98-.51-5.94-.86-8.9-.39-3.25-.64-6.51-.99-9.76-.2-1.88-.5-3.75-.72-5.62-.2-1.73-.35-3.47-.51-5.21-.14-1.45-.31-2.89-.39-4.34-.28-5.31-.68-10.61-.45-15.94,.63-3.01,.07-6.12,.73-9.13,.03-.14,.02-.29,.03-.44,.18-2.69,.32-5.38,.55-8.06,.18-2.1,.49-4.19,.72-6.28,.19-1.73,.35-3.47,.54-5.21,.14-1.23,.29-2.45,.46-3.68,.23-1.66,.51-3.3,.72-4.96,.2-1.59,.38-3.18,.5-4.77,.2-2.76,.34-5.52,.51-8.28,.22-3.41,.3-6.84,.56-10.25,.24-3.2,.07-6.42,.41-9.6,.44-4.08,.3-8.15,.36-12.23,.03-1.97,.04-3.94-.08-5.9-.17-2.61-.46-5.21-.72-7.81-.16-1.59-.32-3.18-.53-4.77-.33-2.45-.63-4.91-1.08-7.33-.91-4.86-1.85-9.71-2.91-14.54-1.11-5.04-2.36-10.06-3.57-15.08-2.5-10.32-5.02-20.64-7.54-30.95-2.02-8.27-4.02-16.54-6.08-24.8-2.15-8.61-4.39-17.2-6.55-25.8-1.28-5.08-2.37-10.2-3.36-15.34-1.03-5.35-2.14-10.69-3.18-16.05-.72-3.71-1.39-7.43-2.08-11.15-.48-2.57-.98-5.14-1.44-7.72-.55-3.08-1.08-6.16-1.61-9.24-.47-2.72-.95-5.44-1.41-8.16-.4-2.36-.79-4.73-1.17-7.1-.41-2.51-.82-5.02-1.19-7.54-.37-2.52-.68-5.04-1.02-7.56-.39-2.88-.81-5.76-1.18-8.64-.23-1.8-.37-3.62-.58-5.42-.22-1.95-.48-3.89-.72-5.84-.17-1.44-.35-2.89-.48-4.34-.2-2.32-.35-4.64-.55-6.96-.22-2.53-.48-5.06-.73-7.6-.01-.15-.04-.29-.05-.43-.16-2.4-.31-4.79-.48-7.19-.58-8.22-.53-16.46-.49-24.69,0-1.75-.02-3.5,.09-5.25,.18-2.75,.46-5.5,.71-8.25,.16-1.74,.31-3.48,.52-5.21,.37-3.03,.76-6.06,1.21-9.07,.43-2.95,.87-5.9,1.42-8.83,.93-4.93,1.93-9.84,2.92-14.76,1.56-7.7,3.44-15.33,5.42-22.93,1.86-7.11,3.8-14.2,5.79-21.27,1.83-6.51,3.71-13.02,5.69-19.49,2.15-7.03,4.32-14.06,6.72-21.01,1.71-4.95,3.76-9.78,5.73-14.64,2.65-6.55,5.47-13.02,7.72-19.73,1.28-3.79,2.62-7.57,3.88-11.37,1.85-5.6,3.37-11.3,4.52-17.08,.48-2.42,.71-4.89,1.07-7.33,.79-5.37,.47-10.77,.33-16.15-.06-2.1-.47-4.19-.72-6.28-.33-2.74-.63-5.49-.99-8.23-.36-2.74-.79-5.47-1.17-8.2-.35-2.52-.66-5.05-1.01-7.56-.38-2.73-.8-5.46-1.19-8.2-.35-2.52-.66-5.05-1-7.57-.38-2.74-.83-5.46-1.15-8.2-.25-2.17-.59-4.32-.93-6.47-.59-3.69-1.69-7.23-3.03-10.69-1.8-4.65-4.29-8.9-7.2-12.95-4.26-5.93-8.1-12.11-10.93-18.87-.03-.07-.04-.15-.09-.2-.1-.09-.22-.2-.34-.22-.05,0-.18,.17-.21,.28-1.73,8.03-3.48,16.06-5.16,24.1-1.7,8.11-3.34,16.24-5,24.36-.96,4.7-1.97,9.39-2.86,14.11-1,5.29-1.9,10.59-2.82,15.89-.56,3.22-1.11,6.45-1.6,9.68-.26,1.72-.38,3.47-.58,5.2-.24,2.09-.5,4.18-.75,6.28-.02,.14-.03,.29-.04,.44-.16,3.64-.33,7.27-.47,10.91-.06,1.68,.1,3.37-.1,5.03-.39,3.11-.12,6.26-.68,9.35-.05,.29-.06,.58-.07,.87-.05,2.84-.45,5.65-.83,8.46-.37,2.74-.61,5.49-1,8.23-.41,2.81-.91,5.6-1.41,8.39-1.45,8.09-3.47,16.06-5.36,24.06-1.95,8.21-3.84,16.43-5.73,24.65-1.6,6.94-3.18,13.89-4.77,20.84-1.91,8.37-3.83,16.73-5.74,25.1-1.59,6.95-3.21,13.89-4.75,20.85-1.24,5.61-2.42,11.23-3.59,16.85-.69,3.31-.77,6.68-.44,10.01,.41,4.2,1.38,8.32,2.92,12.28,1.3,3.33,2.8,6.56,4.43,9.74,2.57,4.99,4.96,10.06,6.96,15.31,2.13,5.59,3.86,11.29,4.88,17.19,.7,4.01,1.29,8.03,1.76,12.08,.33,2.89,.81,5.76,1.17,8.64,.23,1.8,.36,3.62,.55,5.43,.13,1.23,.28,2.46,.44,3.68,.39,3.03,.81,6.05,1.16,9.08,.24,2.02,.35,4.06,.59,6.08,.27,2.24,.45,4.49,.42,6.75-.01,1.03-.16,2.02-.4,3.02-.68,2.86-3.29,4.37-5.59,4.3-2.49-.08-4.69-.95-6.79-2.14-.69-.39-1.31-.91-1.97-1.37-.11-.08-.36-.17-.38-.14-.11,.16-.22,.36-.23,.54-.02,.66,.04,1.32,0,1.97-.1,1.35,.2,2.6,.77,3.81,.95,2.05,1.89,4.1,2.85,6.14,.77,1.65,1.53,3.31,1.86,5.12,.1,.57,.23,1.15,.22,1.72-.04,3.24-1.11,6.19-2.98,8.76-1.76,2.41-5.11,3.03-7.93,.72-.84-.69-1.58-1.52-2.27-2.36-3.5-4.28-6.96-8.6-10.47-12.88-3.74-4.56-7.52-9.09-11.27-13.64-1.62-1.97-3.19-3.98-4.81-5.95-.6-.73-1.3-1.38-1.93-2.09-.73-.81-1.49-1.6-2.14-2.47-1.31-1.75-2.58-3.53-3.83-5.32-1.6-2.29-2.73-4.81-3.48-7.5-2.03-7.29-3.91-14.61-5.49-22.02-.58-2.7-1.17-5.4-1.8-8.09-.13-.54-.14-1.18-.69-1.55,0-4.52,0-9.04,0-13.56,.13-.33,.34-.65,.37-.98,.18-2.17,.29-4.34,.49-6.51,.19-2.09,.49-4.17,.7-6.27,.21-2.09,.46-4.19,.53-6.29,.1-3.12,.06-6.24-.34-9.35-.26-2.01-.37-4.04-.58-6.06-.09-.86-.24-1.72-.37-2.58-.12-.78-.2-1.59-.79-2.21v-8.31c.58-.64,.6-1.48,.72-2.24,.53-3.45,.97-6.91,1.45-10.36,.02-.14,.03-.29,.07-.43,.76-2.62,.78-5.31,.82-8.01,.05-3.42,.27-6.84,.36-10.25,.08-3.43-.11-6.87,.16-10.28,.44-5.61,.06-11.23,.44-16.82,.4-5.97,.04-11.96,.46-17.91,.31-4.45,.09-8.88,.27-13.32,.07-1.67-.05-3.36,.36-5,.05-.21,.04-.43,.05-.65,.18-3.27,.31-6.54,.54-9.81,.2-2.97,.5-5.94,.75-8.91,.01-.15,.02-.29,.03-.44,.17-2.98,.31-5.96,.53-8.93,.21-2.83,.49-5.65,.74-8.47,.01-.15,.03-.29,.04-.44,.18-2.61,.32-5.23,.53-7.84,.2-2.46,.49-4.92,.74-7.37,.02-.22,.04-.44,.05-.65,.16-3.05,.3-6.11,.5-9.15,.11-1.67,.3-3.33,.54-4.99,.33-2.3,.74-4.59,1.14-6.88,.33-1.93,.62-3.88,1.04-5.79,1.69-7.6,3.64-15.13,5.72-22.64,2.14-7.71,4.14-15.46,5.57-23.33,.71-3.93,1.42-7.87,2.04-11.81,.3-1.94,.33-3.91,.58-5.86,.53-3.99,.23-8.01,.54-11.99,.34-4.3,.07-8.6,.4-12.88,.24-3.13,.19-6.26,.46-9.38,.16-1.81,.22-3.63,.36-5.44,.19-2.46,.48-4.92,.73-7.38,.17-1.74,.32-3.48,.51-5.21,.26-2.38,.55-4.76,.82-7.15,.33-2.89,.64-5.78,.98-8.67,.2-1.66,.47-3.31,.68-4.97,.21-1.66,.4-3.32,.59-4.98,.26-2.16,.52-4.33,.77-6.49,.2-1.73,.38-3.47,.55-5.21,.19-1.88,.35-3.77,.54-5.65,.1-.94,.24-1.87,.36-2.81,.25-1.87,.49-3.75,.74-5.62,.17-1.3,.33-2.6,.5-3.89,.43-3.24,.9-6.48,1.29-9.72,.24-1.95,.34-3.91,.56-5.86,.21-1.88,.5-3.75,.72-5.62,.2-1.73,.33-3.47,.53-5.21,.23-2.02,.5-4.04,.76-6.06,.17-1.37,.35-2.74,.53-4.11,.67-5.19,1.57-10.35,2.79-15.44,1.03-4.32,2.19-8.61,3.74-12.77,1.12-3,2.33-5.97,3.6-8.91,2.07-4.81,4.2-9.61,6.36-14.38,1.17-2.59,2.4-5.15,3.73-7.67,2.27-4.3,5.69-7.52,9.8-10.04,3.99-2.45,8.25-4.34,12.6-6,6.13-2.35,12.48-3.93,18.91-5.19,2.71-.53,5.44-.92,8.16-1.41,4.8-.86,9.52-2.06,14.2-3.42,3.77-1.09,7.51-2.32,11.23-3.58,4.83-1.63,9.56-3.52,14.2-5.64,3.18-1.45,6.35-2.93,9.46-4.51,3.06-1.55,5.97-3.38,8.56-5.63,2.03-1.78,3.75-3.86,4.93-6.34,.28-.6,.15-.98-.47-1.18-.76-.25-1.53-.49-2.31-.63-6.09-1.04-12.19-1.99-18.26-3.12-2.71-.5-5.36-1.32-8.03-2.04-2.95-.8-5.89-1.63-8.81-2.52-1.11-.33-2.2-.76-3.24-1.28-1.87-.94-2.7-2.58-2.78-4.62-.04-1.02,.07-2.02,.33-3.02,.74-2.89,1.46-5.79,2.03-8.71,.68-3.49,1.35-6.99,1.64-10.55,.17-2.1,.48-4.19,.73-6.28,.02-.14,.04-.29,.04-.44,.15-3.93,.36-7.85,.45-11.78,.09-3.93-.3-7.85-.75-11.75-.16-1.37-.33-2.74-.46-4.12-.36-3.84-1.06-7.63-1.69-11.43-.55-3.3-.97-6.61-1.48-9.92-.35-2.3-.78-4.58-1.12-6.88-.38-2.66-.7-5.33-1.04-8-.24-1.87-.48-3.75-.72-5.62-.02-.14-.05-.29-.06-.43-.18-2.54-.38-5.08-.51-7.62-.15-2.91-.31-5.81-.33-8.72-.02-1.81,.21-3.63,.3-5.44,.09-1.82-.07-3.65,.37-5.44,.07-.28,.06-.58,.06-.87,.05-2.62,.54-5.2,.79-7.81,.32-3.34,.96-6.62,1.49-9.92,.47-2.94,1.1-5.86,1.78-8.76,1.67-7.08,3.38-14.15,5.13-21.2,.98-3.95,1.98-7.91,3.14-11.81,1.23-4.14,3.14-7.99,5.67-11.52,1.79-2.49,3.79-4.8,5.97-6.96,3.05-3.03,6.14-6.02,9.4-8.82,5.76-4.93,11.71-9.6,17.9-13.97,3.81-2.69,7.65-5.33,11.52-7.93,3.79-2.54,7.86-4.43,12.42-5.11,.19-.03,.37-.21,.55-.32,3.06,0,6.12,0,9.18,0,.11,.08,.22,.22,.35,.25,1.56,.34,3.11,.69,4.68,.97,1.85,.33,3.72,.61,5.58,.85,.64,.08,1.31,.04,1.96-.02,3.39-.36,6.68-1.26,10.01-1.9,.06-.01,.11-.09,.17-.14h8.31Zm-14.76,1519.54h-.07c0,2.77-.07,5.54,.02,8.31,.06,1.81,.22,3.64,.59,5.41,.6,2.92,1.29,5.83,2.52,8.57,.51,1.13,1.06,2.24,1.6,3.35,.6,1.26,1,2.55,1.03,3.98,.03,1.23,.2,2.48,.49,3.67,.66,2.76,2.19,4.87,4.82,6.14,1.8,.87,3.71,1.39,5.65,1.55,2.12,.18,4.17,.62,6.23,1.03,1.28,.25,2.56,.6,3.85,.72,1.66,.16,3.32,.15,4.98-.29,5.35-1.4,10.73-2.66,16.08-4.05,3.03-.79,6.02-1.77,8.79-3.25,4.66-2.49,8.76-5.75,12.42-9.57,1.31-1.36,1.63-2.95,1.02-4.64-.64-1.78-1.32-3.58-2.27-5.19-3.82-6.46-7.75-12.85-11.63-19.27-1.43-2.37-2.99-4.66-4.15-7.19-1.78-3.89-2.81-7.94-2.76-12.25,.02-1.84,.33-3.61,.7-5.4,.69-3.36,1.12-6.75,1.02-10.18-.03-1.09-.27-2.17-.31-3.25-.12-3.64-.72-7.23-1.26-10.83-.23-1.51-.4-3.03-.55-4.55-.19-1.88-.31-3.77-.53-5.65-.43-3.69-.71-7.39-.76-11.1-.06-4.01-.05-8.02,.03-12.03,.05-2.54,.21-5.09,.47-7.62,.31-3.04,.83-6.05,1.14-9.08,.43-4.13,1.18-8.21,1.97-12.27,1.09-5.64,2.38-11.24,3.65-16.84,1.01-4.47,2.11-8.92,3.18-13.37,1.35-5.59,2.67-11.18,4.09-16.75,2.22-8.67,4.53-17.31,6.8-25.97,1.68-6.4,3.31-12.82,5.03-19.21,2.65-9.83,5.16-19.7,7.41-29.64,1.43-6.31,2.82-12.63,3.88-19.02,.83-4.95,1.66-9.89,2.47-14.84,.21-1.29,.35-2.59,.49-3.9,.2-1.88,.35-3.77,.54-5.65,.14-1.37,.28-2.75,.46-4.12,.39-3.1,.81-6.2,1.22-9.29,.2-1.51,.39-3.03,.59-4.54,.24-1.8,.5-3.6,.72-5.4,.21-1.73,.36-3.47,.54-5.21,.24-2.24,.61-4.47,.7-6.72,.17-3.93,.27-7.86,.41-11.79,.22-5.9,.06-11.81,.15-17.72,.06-4.31-.37-8.58-.53-12.88,0-.22-.03-.44-.06-.65-.26-2.02-.52-4.04-.78-6.05-.19-1.51-.37-3.03-.56-4.55-.24-1.95-.54-3.89-.73-5.84-.22-2.24-.34-4.5-.53-6.74-.23-2.75-.56-5.5-.74-8.25-.16-2.54-.18-5.09-.41-7.63-.29-3.18-.18-6.39-.42-9.6-.37-5.08-.13-10.19-.41-15.29-.21-3.76-.13-7.56,.17-11.35,.32-4.06,.06-8.15,.52-12.22,.27-2.46,.3-4.94,.57-7.4,.32-2.89,.79-5.76,1.19-8.64,.52-3.75,1.22-7.46,2.09-11.14,.71-2.97,1.54-5.91,2.27-8.88,2.4-9.82,4.77-19.65,7.17-29.47,1.5-6.15,3.02-12.29,4.54-18.43,1.22-4.95,2.4-9.9,3.66-14.83,1.66-6.48,3.37-12.96,5.08-19.43,1.34-5.06,2.8-10.1,4.07-15.18,1.41-5.64,2.68-11.32,3.96-17,.93-4.11,1.79-8.24,2.65-12.37,.71-3.42,1.41-6.83,2.05-10.26,.53-2.79,.99-5.58,1.45-8.38,.49-2.94,.96-5.88,1.41-8.83,.42-2.73,.81-5.46,1.19-8.2,.22-1.58,.36-3.18,.55-4.77,.23-1.87,.54-3.74,.71-5.62,.23-2.39,.36-4.79,.53-7.18,.02-.22,.03-.44,.05-.65,.25-2.75,.52-5.5,.75-8.25,.2-2.39,.36-4.79,.53-7.18,.02-.22,.06-.43,.08-.65,.24-2.24,.49-4.48,.71-6.72,.2-2.03,.34-4.06,.54-6.09,.23-2.24,.54-4.47,.74-6.72,.22-2.54,.36-5.08,.54-7.62,.02-.22,.04-.44,.06-.65,.24-3.04,.66-6.08,.7-9.13,.1-8.38,.45-16.76-.32-25.13-.25-2.68-.3-5.38-.57-8.06-.32-3.03-.75-6.06-1.2-9.08-.6-4.1-1.13-8.21-1.92-12.28-1.61-8.28-3.39-16.53-5.45-24.71-1.42-5.64-2.93-11.26-4.4-16.9-2.22-8.52-4.83-16.94-7.49-25.33-2.8-8.81-5.78-17.57-8.98-26.24-1.69-4.58-3.37-9.16-5.13-13.7-3.16-8.15-6.42-16.25-9.55-24.41-1.51-3.94-2.67-8.01-3.51-12.15-.55-2.71-1.02-5.43-1.57-8.13-.67-3.28-1.44-6.53-2.07-9.82-.46-2.42-.9-4.87-1.11-7.32-.4-4.74,.24-9.46,.49-14.18,0-.07,.03-.14,.03-.22,.25-2.46,.5-4.92,.74-7.38,.19-2.03,.31-4.06,.57-6.08,.32-2.52,.78-5.03,1.15-7.54,.44-2.95,.86-5.9,1.26-8.85,.21-1.51,.36-3.03,.52-4.55,.19-1.88,.34-3.77,.55-5.65,.39-3.47,.83-6.93,1.24-10.39,.19-1.59,.34-3.18,.56-4.77,.36-2.59,.79-5.17,1.14-7.76,.46-3.34,1.23-6.6,2.77-9.61,1.52-2.98,3.09-5.96,4.83-8.81,3.8-6.22,7.44-12.52,10.99-18.89,2.87-5.15,5.77-10.29,8.66-15.44,.29-.51,.6-1,.94-1.47,.11-.15,.38-.32,.52-.29,.15,.04,.28,.31,.33,.5,.21,.85,.39,1.7,.57,2.55,1.38,6.25,2.77,12.49,4.13,18.75,1.74,8.03,3.45,16.07,5.17,24.1,.81,3.77,1.59,7.54,2.38,11.31,.92,4.41,1.85,8.82,2.76,13.24,1.38,6.69,2.84,13.37,4.1,20.09,1.04,5.57,2.18,11.13,2.83,16.77,.35,3.03,.93,6.04,1.12,9.08,.22,3.7,.67,7.4,.49,11.13-.08,1.67-.03,3.35,0,5.03,.02,1.82,0,3.65,.13,5.47,.22,2.97,.55,5.94,.83,8.9,.03,.29,.08,.58,.11,.87,.24,2.17,.46,4.34,.72,6.5,.33,2.82,.57,5.65,1.05,8.44,.61,3.51,1.41,6.98,2.18,10.46,1.42,6.39,2.88,12.77,4.35,19.15,1.45,6.31,2.92,12.61,4.39,18.92,1.76,7.58,3.5,15.16,5.26,22.74,1.6,6.87,3.22,13.74,4.82,20.61,1.9,8.15,3.78,16.3,5.67,24.44,1.65,7.08,3.43,14.14,4.42,21.35,.31,2.23,.41,4.49,.57,6.73,.03,.43-.08,.87-.13,1.3-.06,.51-.16,1.01-.17,1.52-.05,2.87-.7,5.63-1.63,8.32-2.49,7.25-5.57,14.24-9,21.08-1.37,2.73-2.63,5.52-3.83,8.33-1.74,4.09-3.04,8.35-4.23,12.62-1.13,4.07-2.01,8.2-2.72,12.35-.59,3.44-1.14,6.88-1.5,10.36-.27,2.67-.7,5.33-.81,8.03-.01,.29-.02,.59-.07,.87-.49,2.95-.45,5.94-.71,8.91-.31,3.55-.38,7.12-.57,10.68-.02,.43-.18,.86-.2,1.29-.06,1.09-.1,2.18-.09,3.27,0,.31,.33,.52,.64,.41,.68-.25,1.36-.51,2-.86,2.38-1.31,4.2-3.12,4.97-5.82,.36-1.26,.7-2.52,.97-3.8,.62-2.99,.92-6.04,1.72-8.99,1.07-3.97,2.52-7.76,4.91-11.13,1.3-1.84,2.65-3.65,3.99-5.48,1.16-1.59,2.31-3.18,3.48-4.76,.36-.48,.81-.42,.96,.12,.24,.84,.41,1.69,.62,2.54,.71,2.9,1.47,5.78,2.12,8.69,.45,2.01,.4,4.04-.03,6.07-.46,2.15-1.26,4.18-2.23,6.14-2.78,5.62-5.58,11.22-8.41,16.81-.61,1.2-1.05,2.37-.92,3.75,.08,.86,.07,1.76-.06,2.62-.47,3.03-1.19,6-2.57,8.77-.97,1.96-1.96,3.91-2.95,5.86-.71,1.39-.76,2.8-.04,4.19,.36,.69,.59,1.51,1.45,1.81,.44-.47,.89-.94,1.33-1.41,.45-.48,.9-.96,1.33-1.45,1.4-1.58,2.82-3.15,4.19-4.75,2.18-2.54,4.33-5.11,6.48-7.68,2.53-3.01,5.07-6.01,7.58-9.04,2.41-2.92,4.8-5.86,7.19-8.79,2.67-3.27,5.34-6.55,7.99-9.83,.6-.74,1.02-1.59,1.23-2.53,.2-.92,.45-1.84,.69-2.75,1.61-6.12,3.26-12.23,4.81-18.37,.73-2.89,1.28-5.82,1.85-8.75,.25-1.28,.43-2.59,.5-3.89,.25-4.36,.17-8.73,.34-13.1,.26-6.7,.08-13.41,.08-20.12,0-4.59,.03-9.19-.02-13.78-.05-4.59-.19-9.17-.29-13.76-.03-1.53-.06-3.06-.1-4.59-.01-.44-.04-.87-.09-1.31-.23-1.87-.49-3.75-.72-5.62-.16-1.3-.32-2.6-.46-3.9-.2-1.81-.37-3.62-.57-5.42-.23-2.17-.64-4.33-.68-6.5-.09-5.32-.3-10.63-.46-15.94-.2-6.26,.05-12.53-.36-18.79-.23-3.62-.24-7.28,.24-10.91,0-8.9,.02-17.79,.02-26.69,0-.44,.03-.89-.06-1.31-.42-1.95-.27-3.92-.36-5.88-.03-.66-.01-1.31-.07-1.97-.24-2.97-.53-5.94-.75-8.91-.21-2.9-.36-5.81-.54-8.72-.01-.22-.05-.43-.07-.65-.25-2.82-.52-5.65-.74-8.47-.2-2.47-.28-4.94-.54-7.4-.33-3.18-.74-6.35-1.19-9.52-.56-4.03-1.15-8.06-1.81-12.07-.77-4.66-1.72-9.29-2.88-13.88-1.74-6.84-3.53-13.66-5.24-20.51-1.27-5.08-2.36-10.2-3.28-15.36-.61-3.43-1.22-6.87-1.79-10.31-.57-3.51-1.1-7.04-1.62-10.56-.18-1.22-.33-2.45-.46-3.68-.19-1.88-.31-3.77-.54-5.65-.36-3.11-.78-6.21-.84-9.34,0-.22,0-.44-.04-.65-.64-2.94-.26-5.95-.7-8.92-.34-2.29-.26-4.64-.41-6.97-.22-3.34-.37-6.69-.57-10.03-.18-2.98-.33-5.96-.5-8.94,0-.15-.03-.29-.04-.44-.26-2.9-.52-5.79-.78-8.69-.18-1.96-.35-3.91-.55-5.87-.13-1.3-.28-2.6-.43-3.9-.26-2.16-.53-4.33-.78-6.49-.18-1.59-.33-3.18-.51-4.77-.26-2.24-.54-4.47-.8-6.71-.19-1.59-.33-3.18-.53-4.77-.38-3.03-.8-6.05-1.17-9.08-.35-2.89-.65-5.78-.98-8.67-.15-1.3-.34-2.59-.51-3.89-.24-1.87-.5-3.75-.73-5.62-.2-1.59-.35-3.18-.55-4.77-.23-1.87-.5-3.75-.74-5.62-.16-1.3-.32-2.6-.44-3.9-.19-2.1-.33-4.21-.53-6.31-.23-2.46-.5-4.92-.77-7.37-.32-2.96-.52-5.95-1.01-8.88-.75-4.52-1.82-8.98-3.21-13.36-2.08-6.54-4.8-12.82-7.78-18.98-1.43-2.95-3.03-5.81-4.52-8.73-1.91-3.74-4.37-7.05-7.42-9.93-2.41-2.28-5.13-4.12-8.2-5.32-5.42-2.13-10.9-4.12-16.51-5.69-2.66-.75-5.35-1.36-8.05-1.95-4.76-1.04-9.54-1.97-14.29-3.03-4.33-.97-8.61-2.15-12.87-3.39-11.29-3.29-22.18-7.57-32.55-13.13-1.15-.62-2.27-1.32-3.39-2-3.27-1.99-5.98-4.62-8.63-7.35-.93-.95-1.72-1.99-2.25-3.2-1.17-2.67-2.31-5.35-3.46-8.02-.03-.07-.04-.14-.06-.21-.09-.41,.05-.73,.43-.88,.4-.16,.82-.31,1.24-.41,1.13-.28,2.26-.55,3.4-.79,2.99-.63,5.97-1.28,8.97-1.86,2.28-.45,4.6-.69,6.86-1.23,5.66-1.34,11.3-2.78,16.94-4.19,2.26-.56,4.52-1.12,6.77-1.7,1.08-.28,1.29-.66,1.1-1.75-.25-1.43-.52-2.86-.74-4.3-.37-2.44-.7-4.89-1.07-7.34-.35-2.3-.77-4.59-1.09-6.89-.37-2.66-.69-5.33-1-8.01-.27-2.38-.66-4.77-.7-7.16-.1-6.12-.32-12.23,.24-18.35,.29-3.18,.47-6.38,.93-9.55,.36-2.52,.61-5.05,1-7.57,.84-5.39,1.76-10.76,2.61-16.14,.45-2.87,.9-5.75,1.18-8.64,.28-2.97,.37-5.96,.52-8.93,.14-2.76,.37-5.52,.37-8.29,0-4.51,.08-9.02-.24-13.54-.31-4.42-.48-8.86-.92-13.28-.36-3.55-.82-7.07-1.33-10.6-.89-6.12-2.09-12.18-3.61-18.18-1.23-4.87-2.49-9.73-4.29-14.43-1.89-4.93-4.3-9.57-7.49-13.78-1.45-1.91-2.99-3.78-4.8-5.37-1.36-1.2-2.79-2.34-4.19-3.51-4.37-3.63-8.72-7.28-13.11-10.88-6.48-5.32-13.29-10.2-20.37-14.68-.98-.62-2.02-1.17-3.07-1.68-3.86-1.85-7.91-2.85-12.23-2.81-2.5,.02-4.92,.45-7.32,1.07-2.12,.55-4.29,.8-6.45,1.05-2.33,.27-4.65-.17-6.94-.55-2.15-.35-4.28-.83-6.41-1.27-2.37-.49-4.78-.44-7.15-.17-3.73,.42-7.21,1.71-10.37,3.78-5.97,3.91-11.84,7.98-17.54,12.28-4.19,3.16-8.32,6.39-12.21,9.91-1.51,1.37-3.01,2.76-4.55,4.09-2.77,2.38-5.33,4.95-7.7,7.74-3.56,4.18-6.05,8.9-7.49,14.18-.82,3.02-1.6,6.05-2.37,9.08-2.29,8.95-4.5,17.92-6.34,26.97-.81,3.99-1.52,8-2,12.04-.19,1.59-.38,3.18-.54,4.77-.26,2.53-.56,5.06-.71,7.6-.13,2.18-.11,4.37-.12,6.56-.02,5.39-.04,10.78,.54,16.15,.03,.29,.04,.58,.08,.87,.24,1.87,.49,3.75,.73,5.62,.17,1.3,.31,2.6,.47,3.9,.2,1.59,.39,3.18,.63,4.76,.49,3.16,1.01,6.31,1.52,9.47,.4,2.51,.8,5.02,1.19,7.53,.35,2.23,.74,4.45,1,6.68,.32,2.74,.72,5.48,1.03,8.22,.33,2.9,.43,5.8,.64,8.7,.39,5.31-.3,10.62-.4,15.94,0,.22-.03,.44-.06,.65-.24,2.09-.46,4.19-.74,6.28-.34,2.59-.67,5.19-1.11,7.77-.68,4.02-1.56,7.99-2.65,11.92-.06,.21-.11,.42-.14,.64-.1,.68,.15,1.08,.85,1.32,.27,.09,.57,.13,.85,.2,2.17,.6,4.37,1.12,6.51,1.84,6.09,2.05,12.39,3.18,18.7,4.23,3.58,.6,7.17,1.19,10.75,1.79,1.31,.22,2.5,.76,3.65,1.4,1.99,1.12,3.5,3.77,2.58,6.58-.21,.62-.39,1.26-.68,1.84-1.74,3.52-4.17,6.51-7.23,8.93-3.61,2.86-7.61,5.14-11.73,7.17-3.52,1.74-7.15,3.28-10.78,4.79-8.75,3.63-17.69,6.73-26.88,9.05-3.38,.85-6.79,1.63-10.21,2.33-2.85,.58-5.74,.94-8.59,1.48-5.44,1.02-10.79,2.41-16,4.29-4.46,1.6-8.83,3.43-12.87,5.95-3.65,2.28-6.64,5.21-8.5,9.16-1.06,2.24-2.13,4.47-3.14,6.73-2.35,5.25-4.66,10.52-6.99,15.78-2.46,5.54-4.36,11.27-5.75,17.16-.67,2.83-1.23,5.69-1.75,8.55-.58,3.22-1.13,6.44-1.58,9.68-.4,2.88-.66,5.78-.98,8.67-.16,1.44-.32,2.89-.49,4.33-.23,1.88-.51,3.74-.71,5.62-.21,1.95-.32,3.92-.56,5.86-.4,3.32-.86,6.63-1.29,9.95-.18,1.37-.35,2.74-.54,4.11-.22,1.66-.49,3.31-.68,4.97-.21,1.88-.34,3.77-.53,5.65-.15,1.52-.32,3.04-.51,4.55-.23,1.87-.5,3.74-.71,5.62-.21,1.81-.32,3.62-.55,5.43-.36,2.88-.82,5.76-1.17,8.64-.37,3.03-.66,6.07-1,9.11-.15,1.37-.34,2.74-.5,4.11-.25,2.09-.53,4.18-.72,6.28-.22,2.39-.35,4.79-.55,7.18-.23,2.75-.56,5.5-.72,8.25-.17,2.98-.27,5.96-.39,8.94-.24,5.97-.2,11.94-.52,17.91-.08,1.46-.01,2.92-.14,4.37-.18,2.03-.55,4.04-.7,6.06-.28,3.63-.85,7.23-1.5,10.8-1.24,6.8-2.74,13.54-4.5,20.23-1.85,7.04-3.7,14.07-5.57,21.1-1.57,5.91-2.73,11.9-3.73,17.93-.2,1.22-.37,2.45-.49,3.68-.21,2.24-.36,4.49-.55,6.74-.25,3.12-.52,6.23-.76,9.35-.19,2.54-.36,5.08-.54,7.62-.01,.15-.03,.29-.05,.43-.25,2.68-.53,5.35-.73,8.03-.22,2.98-.36,5.96-.54,8.94,0,.15-.02,.29-.03,.44-.25,2.82-.54,5.64-.74,8.47-.23,3.27-.37,6.54-.54,9.81,0,.15,0,.29-.03,.44-.48,3.46-.5,6.96-.77,10.44-.12,1.6-.09,3.21-.07,4.81,.06,4.08-.05,8.15-.32,12.23-.14,2.11-.05,4.23-.07,6.34-.03,3.79-.16,7.57-.36,11.35-.26,5.02-.11,10.04-.38,15.07-.33,6.25-.1,12.53-.52,18.78-.09,1.31-.02,2.62-.05,3.94-.01,.58,.01,1.18-.12,1.74-.94,4.12-1.21,8.34-1.99,12.48-.27,1.42-.43,2.88-.51,4.33-.19,3.57-.13,7.13,.5,10.67,.22,1.21,.32,2.45,.47,3.68,.39,3.03,.77,6.06,.75,9.13-.02,2.69,.08,5.38-.34,8.07-.34,2.22-.43,4.49-.63,6.73-.24,2.75-.54,5.5-.72,8.25-.19,2.83,.09,5.68-.4,8.51-.07,.42-.05,.88,0,1.31,.34,3.11,.6,6.22,1.34,9.27,1.87,7.7,3.57,15.45,5.65,23.1,.94,3.47,2.04,6.85,4.35,9.69,1.28,1.58,2.26,3.39,3.7,4.86,1.42,1.46,2.74,3.02,4.04,4.59,2.92,3.54,5.8,7.11,8.7,10.66,3,3.66,6.04,7.29,9.04,10.95,2.81,3.44,5.6,6.89,8.4,10.34,.39,.47,.77,.47,1.02-.01,1.1-2.07,1.68-4.19,.64-6.47-.3-.66-.55-1.35-.86-2.01-1-2.18-1.99-4.38-3.04-6.54-.88-1.81-1.31-3.68-1.23-5.7,.11-2.42-.3-4.79-1.15-7.06-.59-1.57-1.21-3.13-1.94-4.63-2.09-4.25-4.22-8.48-6.37-12.7-2.22-4.38-2.37-8.88-1.17-13.59,.67-2.63,2.55-4.15,4.36-5.82,.3-.28,.76-.23,.99,.07,.96,1.28,2.25,2.28,2.98,3.74,1.47,2.93,2.96,5.85,4.46,8.77,2.38,4.62,3.53,9.53,3.62,14.71,.03,1.48,.31,2.89,.78,4.28,1.16,3.39,3.43,5.69,6.82,6.87,1.69,.59,1.98,.42,1.97-1.29-.01-1.74-.14-3.48-.29-5.22-.29-3.26-.76-6.5-1.05-9.76-.13-1.52-.34-3.03-.53-4.55-.24-1.87-.49-3.75-.73-5.62-.16-1.23-.3-2.45-.44-3.68-.2-1.81-.34-3.62-.57-5.42-.36-2.74-.77-5.47-1.17-8.2-.47-3.24-.81-6.5-1.46-9.7-1.17-5.71-2.93-11.27-5.15-16.67-2.02-4.92-4.37-9.7-6.76-14.45-1.05-2.08-2.01-4.21-2.94-6.34-2.22-5.11-3.63-10.45-4.18-15.99-.37-3.78-.23-7.58,.49-11.32,.82-4.28,1.72-8.55,2.67-12.81,1.55-6.96,3.15-13.9,4.74-20.85,1.69-7.37,3.41-14.74,5.09-22.11,1.81-7.94,3.6-15.89,5.41-23.83,1.29-5.67,2.6-11.34,3.93-17.01,1.64-7.01,3.3-14.02,4.95-21.02,1.45-6.16,2.76-12.34,3.8-18.59,.76-4.59,1.39-9.2,1.99-13.81,.43-3.24,.69-6.51,.89-9.77,.24-3.92,.35-7.85,.49-11.78,.06-1.6,.05-3.21,.07-4.81,0-.44,0-.88,.04-1.31,.25-2.9,.5-5.79,.77-8.69,.17-1.88,.33-3.77,.58-5.64,.34-2.52,.75-5.03,1.14-7.54,.49-3.16,.93-6.33,1.49-9.48,.78-4.37,1.62-8.72,2.47-13.07,1.09-5.57,2.19-11.13,3.33-16.68,1.04-5.06,2.13-10.1,3.19-15.15,1.26-5.98,2.5-11.96,3.76-17.93,1.25-5.9,2.46-11.82,3.79-17.7,.58-2.55,1.39-5.05,2.13-7.56,.22-.77,.68-.8,1.24-.15,.86,.99,1.68,2.02,2.6,2.95,1.1,1.12,1.86,2.4,2.34,3.89,1.07,3.33,2.47,6.54,4.04,9.66,2.5,4.95,5.47,9.63,8.73,14.11,4.72,6.51,8.06,13.65,10.05,21.43,1.37,5.37,1.83,10.89,2.61,16.35,.14,1.01,.29,2.01,.43,3.02,.36,2.67,.7,5.33,1.07,8,.35,2.52,.76,5.03,1.1,7.55,.36,2.59,.65,5.19,1,7.79,.55,4.11,1.13,8.21,1.68,12.31,.19,1.37,.38,2.74,.52,4.11,.27,2.6,.54,5.2,.75,7.81,.13,1.67-.02,3.35,.32,5.01,.13,.62,0,1.3-.05,1.96-.04,.51-.17,1.01-.19,1.51-.08,2.33-.05,4.65-.45,6.97-.44,2.5-.59,5.06-1.09,7.55-1.19,5.92-2.7,11.77-4.59,17.51-2.09,6.36-4.16,12.74-6.63,18.97-1.93,4.88-4,9.69-5.97,14.55-2.84,7.02-5.66,14.04-7.76,21.34-.96,3.36-2.14,6.65-3.14,10-2.1,7.04-4.21,14.08-6.21,21.16-2,7.07-3.92,14.16-5.79,21.27-2.33,8.86-4.48,17.77-6.28,26.76-1,4.99-2.03,9.98-2.84,15-.75,4.66-1.54,9.32-1.9,14.04-.11,1.52-.2,3.06-.48,4.55-.54,2.88-.17,5.82-.74,8.69-.02,4.74,0,9.48-.08,14.22-.07,4.38,.34,8.73,.5,13.1,.1,2.76,.32,5.52,.48,8.28,0,.15,.04,.29,.06,.43,.25,2.6,.51,5.21,.74,7.81,.2,2.25,.34,4.5,.54,6.74,.13,1.52,.28,3.04,.46,4.56,.22,1.88,.51,3.74,.73,5.62,.21,1.81,.34,3.62,.54,5.43,.15,1.37,.35,2.74,.54,4.11,.23,1.66,.48,3.31,.71,4.96,.35,2.45,.67,4.9,1.03,7.34,.35,2.3,.75,4.59,1.11,6.89,.49,3.16,.93,6.33,1.46,9.48,.8,4.73,1.67,9.45,2.51,14.17,.91,5.08,1.8,10.17,2.76,15.24,1.07,5.64,2.23,11.27,3.34,16.9,1.18,5.99,2.4,11.98,3.87,17.91,1.03,4.17,2.12,8.32,3.16,12.48,3.19,12.77,6.37,25.55,9.53,38.33,1.57,6.36,3.09,12.72,4.62,19.09,2.26,9.41,4.56,18.8,6.74,28.23,1.74,7.51,3.29,15.06,4.07,22.74,.15,1.45,.35,2.89,.49,4.33,.26,2.68,.64,5.35,.71,8.03,.12,4.81,.08,9.62,.02,14.44-.03,2.33-.26,4.65-.37,6.97-.12,2.4-.12,4.79-.34,7.2-.3,3.25-.17,6.54-.51,9.81-.3,2.82-.37,5.66-.55,8.5,0,.15-.03,.29-.05,.43-.24,1.87-.5,3.75-.73,5.62-.34,2.89-.6,5.79-1.01,8.66-.6,4.11-.99,8.23-1.23,12.37-.02,.36-.02,.73-.06,1.09-.46,3.68-.74,7.38-.85,11.09-.06,1.96-.22,3.92-.34,5.88-.19,3.14,.23,6.25,.39,9.38,.14,2.62,.34,5.23,.51,7.84,0,.15,.04,.29,.06,.43,.25,2.09,.51,4.18,.73,6.28,.2,1.88,.34,3.77,.53,5.65,.16,1.52,.36,3.03,.54,4.55,.23,1.95,.49,3.89,.68,5.85,.21,2.1,.34,4.21,.53,6.31,.23,2.46,.49,4.92,.75,7.37,.33,3.11,.59,6.23,1.02,9.32,.45,3.24,1.03,6.46,1.61,9.68,.8,4.44,1.61,8.87,2.48,13.29,.88,4.49,1.9,8.96,2.76,13.46,1.25,6.5,2.68,12.96,4.25,19.39,2.57,10.53,5.19,21.05,7.76,31.58,1.69,6.92,3.36,13.85,5.02,20.79,1.4,5.87,2.77,11.75,4.14,17.63,1.92,8.22,3.79,16.44,5.74,24.65,1.31,5.52,2.33,11.1,3.25,16.69,.73,4.44,1.26,8.92,1.87,13.39,.18,1.3,.34,2.59,.51,3.89,.26,2.02,.53,4.03,.76,6.06,.2,1.73,.36,3.47,.52,5.21,.25,2.75,.62,5.5,.7,8.25,.12,4.15,.09,8.31,.02,12.47-.04,2.1-.28,4.21-.5,6.31-.18,1.66-.49,3.31-.7,4.96-.31,2.52-.61,5.05-.86,7.58-.33,3.33-.69,6.66-.87,10-.24,4.29-.34,8.58-.46,12.88-.05,1.89,0,3.79-.02,5.69,0,.66,0,1.32-.11,1.96-.67,3.84-1.88,7.48-3.98,10.79-1.44,2.28-2.9,4.54-4.29,6.86-3.41,5.68-6.79,11.39-10.14,17.1-.51,.87-.92,1.82-1.25,2.78-.94,2.71-.36,4.82,1.96,6.56,1.86,1.39,3.82,2.67,5.8,3.89,5.96,3.7,12.21,6.79,18.97,8.78,4.48,1.32,9.03,2.26,13.74,2.18,2.11-.04,4.23-.05,6.34-.09,.44,0,.88,0,1.31-.08,2.72-.49,5.45-.93,8.11-1.68,1.34-.38,2.63-.85,3.84-1.55,.98-.56,1.76-1.32,2.23-2.34,.39-.86,.8-1.74,.99-2.65,.54-2.57,1.29-5.08,2.15-7.55,.98-2.82,2.01-5.62,2.98-8.44,1.67-4.86,2.57-9.85,2.42-15-.04-1.38-.03-2.77-.16-4.15-.19-2.1-.49-4.19-.7-6.28-.2-2.1-.34-4.2-.52-6.31-.14-1.59-.3-3.18-.48-4.77-.24-2.09-.5-4.18-.75-6.28-.33-2.82-.5-5.66-1.02-8.44-.8-4.31-1.19-8.64-1.19-13.02,0-2.55-.03-5.1-.05-7.66,0-.66,0-1.31-.05-1.97-.24-3.04-.48-6.09-.77-9.13-.17-1.73-.37-3.47-.7-5.18-.51-2.64-1.2-5.25-1.7-7.89-.45-2.35-.79-4.73-1.12-7.1-.21-1.51-.24-3.05-.52-4.55-.53-2.81-.36-5.66-.66-8.48-.36-3.32-.15-6.68-.42-10.03-.35-4.42-.15-8.87-.45-13.32-.37-5.37-.13-10.77-.41-16.16-.39-7.78-.11-15.59-.48-23.38-.25-5.17-.09-10.35-.15-15.53-.02-1.31-.21-2.61-.26-3.91-.04-1.02,.01-2.04,.06-3.05,.03-.58,.16-1.15,.2-1.73,.19-2.39,.36-4.79,.54-7.18,.02-.22,.07-.43,.09-.65,.23-2.09,.49-4.19,.69-6.28,.2-2.1,.35-4.2,.54-6.31,.15-1.59,.32-3.18,.49-4.77,.24-2.31,.52-4.62,.72-6.94,.21-2.46,.36-4.93,.54-7.4,.01-.15,.03-.29,.05-.43,.24-2.46,.51-4.92,.72-7.38,.21-2.46,.34-4.94,.54-7.4,.14-1.67,.32-3.33,.51-4.99,.24-2.17,.51-4.33,.73-6.5,.21-2.1,.35-4.2,.53-6.31,.24-2.75,.6-5.5,.73-8.25,.23-4.8,.19-9.61,.37-14.41,.26-6.99,.11-14,.06-21-.03-4.73-.21-9.46-.3-14.19-.05-3.06-.04-6.12-.09-9.19,0-.65-.09-1.31-.18-1.95-.37-2.74-.76-5.47-1.12-8.21-.34-2.59-.65-5.19-1-7.79-.36-2.66-.8-5.32-1.14-7.99-.38-3.03-.6-6.08-1.02-9.1-.43-3.11-.56-6.23-.71-9.35-.18-3.87-.6-7.69-1.47-11.45-.76-3.28-.94-6.61-1.16-9.95-.13-1.98,.2-3.92,.35-5.88,.18-2.47,.32-4.94,.56-7.4,.35-3.54,.87-7.07,1.14-10.62,.22-2.9,.08-5.82,.47-8.72,.3-2.23,.36-4.49,.56-6.74,.14-1.59,.3-3.19,.49-4.77,.34-2.82,.69-5.63,.77-8.47,.05-1.67,.01-3.34,.3-5.01,.17-.99,.18-2.06,0-3.05-.31-1.81-.22-3.63-.28-5.45-.06-1.75-.03-3.5-.16-5.25-.19-2.68-.5-5.36-.71-8.04-.21-2.61-.36-5.23-.54-7.84,0-.15-.03-.29-.05-.43-.24-2.46-.52-4.91-.72-7.38-.15-1.96-.18-3.92-.38-5.88-.28-2.75-.18-5.52-.47-8.28-.26-2.53-.17-5.08-.4-7.63-.32-3.55-.02-7.14-.5-10.69,0-11.37-.47-22.74,.31-34.1-.13-5.03,.37-10.04,.55-15.06,.13-3.86,.45-7.7,.46-11.57,0-.22,.03-.44,.05-.65,.24-3.19,.51-6.38,.73-9.57,.2-2.83,.36-5.67,.54-8.5,0-.15,.04-.29,.05-.43,.25-2.68,.5-5.35,.73-8.03,.2-2.32,.34-4.64,.55-6.96,.25-2.82,.54-5.64,.82-8.46,.03-.29,.04-.58,.06-.87,.25-2.75,.59-5.5,.72-8.25,.2-4.07-.02-8.16,.45-12.22-.06-8.3,.43-16.61-.32-24.91-.28-3.12-.7-6.21-1.18-9.3-.26-1.65-.49-3.31-.6-4.98-.16-2.32-.23-4.65-.34-6.97-.21-4.71-1.02-3.91,3.98-4.5,2.45-.29,4.93-.37,7.4-.55,.22-.02,.43-.06,.65-.1,2.31-.42,4.65-.27,6.97-.2,.79,.02,1.59,.23,2.35,.48,1.61,.53,2.77,1.61,3.4,3.18,.38,.95,.62,1.93,.61,2.98-.01,1.9-.21,3.77-.36,5.66-.32,4.13-.59,8.27-.88,12.41-.23,3.34-.08,6.7-.47,10.03,.06,10.05-.3,20.11,.27,30.16,.3,5.38,.07,10.78,.51,16.16,.12,1.52,.04,3.06,.15,4.59,.2,2.68,.5,5.36,.74,8.03,.19,2.1,.34,4.21,.56,6.3,.37,3.54,.83,7.07,1.16,10.62,.25,2.68,.36,5.37,.54,8.06,.01,.22,.01,.44,.05,.65,.62,3.31,.42,6.68,.67,10.01,.45,6.1-.03,12.23,.5,18.34,.28,3.26,.1,6.54,.37,9.82,.33,4.06,.28,8.15,.45,12.22,.25,5.9,.06,11.81,.15,17.72,.07,4.45-.51,8.87-.54,13.31,0,.22-.02,.44-.04,.65-.24,2.46-.53,4.91-.72,7.38-.22,2.76-.36,5.52-.54,8.28,0,.15,0,.3-.03,.44-.61,2.87-.43,5.8-.68,8.7-.36,4.13-.34,8.29-.43,12.44-.19,8.75-.09,17.5-.05,26.25,.02,3.42,.29,6.84,.25,10.26-.03,2.86,.4,5.66,.66,8.48,.21,2.32,.52,4.62,.76,6.93,.2,1.88,.32,3.77,.55,5.65,.37,3.11,.77,6.21,.76,9.34,0,3.64,.17,7.28-.37,10.91-.33,2.23-.33,4.5-.64,6.73-.45,3.24-1.04,6.46-1.57,9.68-.64,3.95-1.27,7.89-1.93,11.84-.6,3.58-1.34,7.14-1.67,10.77-.13,1.37-.35,2.74-.51,4.11-.25,2.24-.54,4.47-.7,6.72-.12,1.67-.1,3.35-.1,5.03,0,7.51,0,15.02,0,22.53,.01,10.43,.04,20.85,.07,31.28,0,.65,.03,1.31,.1,1.96,.24,2.46,.51,4.91,.75,7.37,.2,2.03,.35,4.06,.54,6.09,.13,1.45,.28,2.89,.44,4.34,.27,2.53,.55,5.06,.81,7.59,.18,1.81,.32,3.62,.51,5.43,.22,2.1,.54,4.18,.72,6.28,.24,2.9,.37,5.81,.55,8.71,.01,.22,0,.44,.04,.65,.65,3.23,.29,6.53,.67,9.79,.4,3.39,.22,6.83,.42,10.25,.3,5.01,.2,10.04,.51,15.06,.26,4.21,.37,8.44,.54,12.66,0,.22,.04,.44,.06,.65,.25,2.97,.62,5.94,.71,8.91,.13,3.86,.05,7.73,.05,11.59,0,.58-.01,1.17-.07,1.75-.24,2.39-.57,4.77-.73,7.16-.23,3.56-.38,7.12-.48,10.69-.09,3.2-.18,6.4-.39,9.6-.25,3.77-.14,7.56-.38,11.35-.3,4.72-.26,9.46-.51,14.19-.15,2.83-.33,5.67-.43,8.5-.07,1.98-.28,3.93-.62,5.86-.86,4.87-1.87,9.71-2.76,14.57-.41,2.22-.84,4.44-.99,6.68-.24,3.78-.59,7.55-.47,11.35,.04,1.31,.06,2.63-.04,3.94-.14,2.03-.34,4.06-.6,6.08-.33,2.52-.76,5.03-1.12,7.55-.36,2.52-.68,5.04-1,7.57-.4,3.17-.95,6.34-1.13,9.52-.26,4.8-.73,9.59-.46,14.41,.03,.51,0,1.02,0,1.53Zm-15.36-173.21c.16,3.91,0,9.16,.3,14.4,.42,7.34-.01,14.71,.46,22.07,.36,5.59,0,11.21,.44,16.82,.35,4.35,.04,8.73,.44,13.1,.31,3.4,.14,6.83,.42,10.25,.29,3.55,.43,7.11,.97,10.64,.35,2.3,.67,4.6,1.13,6.88,.95,4.7,2.12,9.35,2.52,14.16,.28,3.33,.53,6.67,.68,10.01,.15,3.35,.03,6.71,.12,10.06,.07,2.33,.29,4.65,.45,6.97,.02,.29,.14,.57,.19,.85,.33,1.79,.75,3.56,.96,5.37,.4,3.39,.67,6.8,1,10.2,.01,.14,0,.29,.02,.44,.02,.14,.06,.28,.09,.42,.07-.11,.19-.22,.21-.35,.18-1.3,.33-2.6,.52-3.89,.38-2.66,.79-5.32,1.18-7.98,.42-2.88,.89-5.75,1.22-8.63,.24-2.09,.58-4.17,.6-6.3,.05-4.15-.1-8.3,.3-12.45,.19-1.95,.31-3.92,.62-5.85,.68-4.23,1.55-8.44,2.32-12.65,.52-2.86,1.17-5.71,1.46-8.59,.34-3.4,.37-6.83,.52-10.25,.08-1.89-.06-3.79,.35-5.66,.05-.21,.02-.44,.03-.65,.17-6.12,.34-12.23,.51-18.35,0-.07,0-.15,0-.22,.14-3.64,.26-7.27,.42-10.91,.15-3.56,.33-7.13,.49-10.69,.01-.29,.06-.58,.09-.87,.23-2.31,.57-4.62,.67-6.94,.13-3.13,.13-6.27,.06-9.4-.08-3.13-.32-6.25-.49-9.37,0-.15-.01-.29-.04-.44-.6-2.94-.33-5.95-.67-8.92-.37-3.32-.2-6.68-.41-10.03-.31-4.94-.15-9.9-.51-14.85-.15-2.03,.08-4.1-.17-6.12-.27-2.25-.26-4.51-.35-6.76-.02-.44-.02-.88-.05-1.31-.24-2.75-.52-5.5-.74-8.25-.21-2.54-.36-5.08-.54-7.62-.01-.15-.03-.29-.04-.44-.27-2.6-.54-5.2-.81-7.81-.05-.43-.08-.87-.14-1.3-.23-1.95-.49-3.89-.68-5.85-.21-2.1-.35-4.2-.54-6.3-.14-1.59-.33-3.18-.48-4.77-.26-2.82-.57-5.64-.75-8.47-.12-1.89-.07-3.79-.07-5.69,0-13.56,0-27.13-.01-40.69,0-1.09-.17-2.17-.22-3.26-.04-.8-.05-1.6-.02-2.4,.07-1.45,.2-2.9,.27-4.35,.07-1.46,.04-2.92,.16-4.37,.19-2.17,.48-4.33,.74-6.5,.19-1.59,.37-3.18,.6-4.76,.35-2.37,.75-4.74,1.14-7.1,.51-3.08,1.03-6.17,1.55-9.25,.49-2.87,1.04-5.72,1.48-8.59,.4-2.66,.7-5.33,1.01-8,.27-2.24,.61-4.47,.72-6.72,.24-5.17,.05-10.34-.44-15.5-.01-.14-.04-.29-.06-.43-.24-1.87-.51-3.75-.7-5.62-.21-2.02-.33-4.06-.54-6.09-.15-1.45-.39-2.88-.55-4.33-.22-2.02-.57-4.05-.59-6.07-.08-9.7-.02-19.4-.11-29.09-.06-6.85,.33-13.69,.55-20.53,.07-2.32,.3-4.64,.39-6.97,0-.15,.01-.29,.03-.44,.25-2.39,.53-4.77,.73-7.16,.22-2.76,.36-5.52,.53-8.28,.01-.22,0-.44,.04-.65,.66-3.23,.11-6.55,.75-9.79-.05-8.23,.29-16.46-.28-24.7-.3-4.28-.12-8.59-.47-12.88-.17-2.1-.08-4.23-.11-6.34,0-.58,.05-1.19-.08-1.74-.32-1.37-.26-2.75-.26-4.13,0-1.82,0-3.65-.02-5.47-.03-2.62,.09-5.26-.15-7.87-.21-2.33-.29-4.65-.36-6.98-.01-.36-.04-.73-.07-1.09-.24-2.68-.51-5.35-.73-8.03-.2-2.32-.3-4.65-.54-6.96-.35-3.4-.84-6.78-1.18-10.18-.35-3.4-.63-6.81-.86-10.22-.18-2.69-.25-5.38-.39-8.07-.27-5.09-.35-10.19-.45-15.28-.25-12.31-.32-24.63,.35-36.94,.15-2.76,.22-5.53,.53-8.28,.19-1.67,.28-3.33,.37-5,.03-.58,.17-1.15,.2-1.73,.07-1.23,.13-2.47,.13-3.71,0-.62-.33-.88-.97-.95-.07,0-.15-.02-.22-.02-3.51-.21-6.97,.35-10.45,.57-.36,.02-.71,.16-1.07,.23-.52,.1-.73,.45-.72,.94,.04,2.04-.03,4.09,.18,6.12,.3,2.89,.83,5.75,1.24,8.63,.42,2.95,.79,5.92,.78,8.9-.01,8.52,.26,17.05-.33,25.57-.25,3.55-.01,7.13-.46,10.69-.34,2.74-.39,5.51-.56,8.27,0,.15-.02,.29-.03,.44-.28,2.82-.55,5.64-.83,8.46-.03,.29-.03,.58-.06,.87-.24,2.24-.55,4.47-.72,6.72-.23,2.9-.37,5.81-.54,8.72-.01,.22-.02,.44-.04,.66-.24,2.53-.55,5.06-.71,7.6-.16,2.54-.23,5.09-.42,7.63-.33,4.57-.37,9.17-.57,13.75-.09,2.03-.27,4.06-.36,6.1-.06,1.31-.02,2.63-.07,3.94-.1,2.54-.35,5.09-.35,7.63,0,9.98-.4,19.97,.3,29.94,.23,3.34,.06,6.69,.41,10.04,.3,2.81,.14,5.67,.45,8.5,.28,2.53,.12,5.08,.43,7.63,.27,2.16,.25,4.35,.44,6.53,.31,3.48,.62,6.95,.89,10.43,.28,3.63,.59,7.25,.86,10.87,.27,3.7,.44,7.42,.44,11.13,0,3.56-.26,7.13-.41,10.69,0,.22-.05,.43-.07,.65-.25,2.39-.5,4.77-.73,7.16-.19,1.95-.38,3.91-.55,5.87-.26,2.9-.66,5.79-.71,8.69-.05,3.07-.5,6.1-.55,9.15,0,.15-.02,.29-.04,.43-.24,1.87-.57,3.74-.71,5.62-.21,2.68-.62,5.35-.59,8.06,.02,1.38-.25,2.75-.26,4.13,0,1.08,.26,2.17,.28,3.25,.03,1.98,.36,3.91,.81,5.82,.67,2.83,1.1,5.72,1.36,8.61,.28,3.11,.32,6.25,.53,9.37,.14,2.03,.37,4.05,.6,6.08,.2,1.73,.47,3.46,.68,5.19,.21,1.66,.35,3.33,.57,4.98,.36,2.66,.79,5.32,1.16,7.98,.43,3.09,.85,6.19,1.26,9.29,.19,1.44,.43,2.89,.49,4.33,.19,4.36-.03,8.74,.39,13.1-.1,13.04,.37,26.09-.28,39.13-.12,2.47-.08,4.96-.11,7.44,0,.51-.02,1.02-.06,1.53-.24,2.61-.5,5.21-.73,7.82-.2,2.25-.34,4.5-.54,6.74-.14,1.59-.31,3.18-.49,4.77-.23,2.09-.53,4.18-.72,6.28-.22,2.39-.35,4.79-.53,7.18-.02,.22-.05,.43-.07,.65-.25,2.75-.51,5.5-.73,8.25-.2,2.39-.33,4.79-.54,7.18-.25,2.82-.55,5.64-.83,8.46-.03,.29-.04,.58-.07,.87-.24,2.02-.52,4.04-.72,6.06-.22,2.17-.36,4.35-.54,6.52-.02,.29-.08,.58-.11,.87-.24,2.24-.61,4.48-.67,6.72-.11,4.01-.03,8.02-.03,13.35Zm191.52-507.57c-.05-.43-.09-.86-.16-1.29,0-.04-.27-.1-.32-.05-.16,.14-.28,.33-.4,.5-2.53,3.65-3.85,7.77-4.72,12.06-.19,.92-.31,1.85-.45,2.78-.02,.13,.05,.28,.07,.42,.14-.12,.35-.21,.42-.37,1.5-3.14,3.05-6.26,4.46-9.44,.64-1.45,1.21-2.97,1.1-4.63Zm-361.71-.27c0,1.63,.41,3.15,1.11,4.6,1.02,2.08,2.05,4.16,3.09,6.23,.22,.44,.52,.84,.79,1.26,.41-.49,.13-1.05,.12-1.57,0-.28-.14-.56-.21-.84-.84-3.79-2.67-7.17-4.46-10.57-.05-.09-.21-.12-.33-.18-.03,.07-.08,.13-.08,.2-.02,.29-.03,.58-.04,.87Z"/>
  </g>
</svg>