<?xml version="1.0" encoding="UTF-8"?>
<svg id="Layer_2" data-name="Layer 2" xmlns="http://www.w3.org/2000/svg" viewBox="0 0 548.74 1626.96">
  <g id="Layer_1-2" data-name="Layer 1">
    <path d="M296.69,0c.38,.5,.92,.66,1.51,.74,23.47,3.24,43.12,21.03,51.51,41.44,2.37,5.76,3.3,11.72,2.3,17.97-1.5,9.35-2.29,18.8-3.36,28.21-.09,.77,.06,1.44,.81,1.84,.39,.21,.76,.43,1.14,.65,2.87,1.65,3.87,4.28,3.62,7.4-.18,2.17-.62,4.32-.96,6.48-.76,4.89-1.52,9.79-2.31,14.68-.6,3.74-1.17,7.49-1.91,11.2-.37,1.85-.97,3.67-1.66,5.42-1.35,3.38-3.68,5.91-7.02,7.45-.53,.25-1.05,.52-1.59,.72-.96,.36-1.27,1.18-1.35,2.06-.11,1.16-.09,2.33-.14,3.49-.19,4.22-.36,8.44-.99,12.64-.35,2.33-.93,4.56-1.96,6.68-1.54,3.17-2.53,6.51-3.08,9.98-.23,1.44-.42,2.89-.47,4.34-.21,5.98-.12,11.95,.5,17.91,.36,3.48,.39,6.99,1.21,10.41,.71,2.97,1.3,5.98,1.99,8.95,.77,3.26,1.59,6.51,2.41,9.75,.21,.84,.46,1.68,.74,2.51,.82,2.46,2.41,4.31,4.65,5.58,2.78,1.59,5.54,3.23,8.38,4.7,20.04,10.4,40.11,20.77,60.16,31.14,.39,.2,.8,.37,1.17,.6,2.15,1.36,4.54,1.9,7.03,2.19,1.88,.22,3.75,.49,5.61,.83,4.75,.87,9.28,2.46,13.76,4.22,1.9,.74,3.77,1.56,5.64,2.36,6.95,2.97,12.9,7.34,17.98,12.91,1.67,1.83,3.27,3.73,4.75,5.71,9.97,13.35,17.23,28.01,21.11,44.27,1.29,5.4,2.13,10.83,2.25,16.41,.16,7.72,.52,15.45,1.01,23.16,.4,6.4,1.02,12.79,1.72,19.16,.41,3.76,1.04,7.51,2.02,11.17,1.51,5.64,2.61,11.35,3.24,17.16,.83,7.68,1.76,15.34,2.59,23.02,.79,7.24,1.62,14.48,2.24,21.74,.59,6.82,1.33,13.64,1.09,20.51-.04,1.02,.02,2.04,0,3.06-.26,9.42,1.4,18.56,4.03,27.56,1.47,5.04,3.29,9.95,5.21,14.83,4.95,12.61,9.91,25.21,14.83,37.83,2.23,5.71,4.12,11.52,5.23,17.56,.63,3.44,1.18,6.88,1.47,10.38,.49,5.97,.59,11.94,.58,17.92,0,5.98,.02,11.96,.17,17.93,.11,4.37,.4,8.74,.66,13.1,.36,5.97,.75,11.93,1.15,17.89,.43,6.4,.9,12.8,1.36,19.19,.05,.73,.14,1.45,.18,2.18,.38,7.13,.76,14.27,1.13,21.4,.33,6.41,.59,12.82,1.01,19.22,.57,8.74,1.8,17.39,3.68,25.94,.97,4.41,1.92,8.82,2.78,13.26,.27,1.42,.29,2.9,.31,4.35,.11,6.41,.18,12.83,.27,19.24,.02,1.45-.03,2.92,.66,4.27v49.01c-.21,.19-.58,.35-.6,.56-.6,4.34-1.87,8.53-2.97,12.75-2.26,8.74-4.59,17.47-6.89,26.2-2.28,8.62-6.38,16.25-12.53,22.73-6.33,6.67-12.25,13.7-18.14,20.74-1.68,2.01-3.44,3.97-5.05,6.04-1.72,2.22-3.9,3.92-5.99,5.72-4.3,3.7-9.65,.85-10.78-3.98-.54-2.32-.38-4.65,.29-6.92,.53-1.82,1.07-3.64,1.75-5.41,1.66-4.36,3.27-8.74,5.15-13,1.29-2.93,2.93-5.7,4.5-8.49,1.65-2.92,3.24-5.86,4.28-9.07,1.76-5.48,2.51-11.07,1.85-16.81-.2-1.74-.33-3.49-.62-5.21-.47-2.83-.81-3.61-1.26-3.35-1.15,.64-1.29,1.9-1.76,2.92-1.41,3.04-2.67,6.17-3.34,9.46-.53,2.56-.85,5.17-1.17,7.78-.62,5.08-1.8,10.04-3.05,14.98-.43,1.68-1.09,3.33-1.88,4.88-1.77,3.46-4.67,5.51-8.46,6.31-3.39,.71-6.47-1.29-7.17-4.72-.17-.85-.19-1.73-.21-2.6-.12-5.1-.35-10.19-.89-15.28-.56-5.22-.56-10.48-.26-15.73,.15-2.63,.56-5.25,1.41-7.72,1.93-5.6,2.36-11.39,2.57-17.23,.08-2.19,.13-4.37,.18-6.56,.17-7.06,1.68-13.86,4.02-20.5,3.86-10.99,7.66-22.01,11.48-33.02,.72-2.07,1.39-4.14,1.46-6.37,.07-1.9,0-3.79-.38-5.66-3.54-17.72-7.65-35.3-12.63-52.68-5.26-18.37-11.37-36.43-19.02-53.95-3.91-8.96-7.23-18.13-9.67-27.61-1.93-7.48-3.57-15.02-4.83-22.65-.85-5.18-1.77-10.35-2.31-15.56-1.01-9.58-1.53-19.19-.85-28.83,.43-6.14-.08-12.23-.88-18.31-1.14-8.7-3.4-17.14-6.04-25.48-5.23-16.53-10.3-33.1-14.75-49.86-1.86-7.04-3.37-14.17-5.05-21.25-.05-.23-.28-.43-.45-.62-.17-.19-.77,.36-.91,.83-.04,.14-.1,.28-.13,.42-4.15,16.53-8.29,33.06-12.44,49.59-2.16,8.62-4.32,17.24-6.5,25.85-1.64,6.51-2.92,13.08-3.71,19.75-.28,2.31-.3,4.65-.39,6.99-.37,9.76-.66,19.53-1.36,29.28-.21,2.91-.26,5.83-.37,8.74-.02,.44-.09,.89,0,1.31,.72,3.91,.25,7.85,.26,11.78,0,4.08-.11,8.17-.05,12.25,.04,2.91,.28,5.82,.44,8.73,.07,1.31,.17,2.62,.25,3.93,.39,5.96,.68,11.94,1.2,17.89,.85,9.6,2.65,19.03,5.17,28.34,3.95,14.63,7.35,29.39,10.43,44.22,1.63,7.84,3.32,15.68,4.82,23.54,1.14,6.01,2.05,12.06,3.02,18.11,1.39,8.63,2.73,17.27,4.1,25.9,1.35,8.49,2.58,17,3.47,25.56,.51,4.93,.8,9.88,1.13,14.83,1.04,15.57,1.14,31.18,1.82,46.77,.25,5.68,.68,11.35,1.01,17.03,.31,5.25,.34,10.49,.1,15.74-.45,10.05-.77,20.11-1.3,30.16-.24,4.65-.79,9.29-1.26,13.93-.32,3.19-.73,6.37-1.14,9.55-.82,6.36-1.65,12.72-2.51,19.07-.95,6.93-1.9,13.86-2.94,20.78-.93,6.2-1.98,12.37-2.96,18.56-1.05,6.62-2.09,13.24-3.12,19.86-.71,4.61-1.41,9.22-2.09,13.83-.79,5.33-1.56,10.67-2.3,16.01-.78,5.63-1.57,11.26-2.27,16.9-.77,6.22-1.46,12.45-2.14,18.68-.49,4.49-.9,8.99-1.32,13.49-.46,4.95-.4,9.9,.06,14.85,.85,9.17,.96,18.34,0,27.52-.38,3.64-.32,7.27,.03,10.91,.53,5.51,.97,11.04,1.31,16.57,.41,6.7,1.11,13.36,2.12,19.99,1.04,6.77,2.14,13.53,3.21,20.29,.75,4.75,1.63,9.48,2.24,14.25,.82,6.36,1.64,12.72,2.28,19.1,.73,7.28,.79,14.55,.7,21.85-.06,4.54-.8,9-1.32,13.49-.17,1.45-.34,2.9-.45,4.35-.34,4.65-.62,9.31-1,13.96-.21,2.61-.56,5.22-.88,7.82-1.11,9.11-2.08,18.25-3.58,27.31-1.12,6.75-2.43,13.48-3.72,20.2-1.86,9.73-3.78,19.45-5.67,29.17-1.87,9.58-3.73,19.16-5.62,28.74-1.33,6.72-2.69,13.43-4.05,20.14-.99,4.85-2.01,9.7-3,14.55-1.86,9.09-1.88,18.24-.93,27.43,.39,3.77,.76,7.54,1.15,11.31,.21,2.03,.44,4.05,.7,6.08,.19,1.46,.25,2.9-.07,4.35-1.27,5.79-.9,11.59-.04,17.39,.47,3.17,.99,6.33,1.41,9.51,.6,4.52,1.91,8.81,3.94,12.9,2.08,4.19,4.43,8.21,7.01,12.1,1.69,2.55,3.44,5.07,5.15,7.6,.57,.85,1.17,1.68,1.64,2.58,1.12,2.14,1.54,4.35,.69,6.74-1.27,3.61-2.96,6.97-5.47,9.88-2.35,2.73-5.28,4.55-8.79,5.41-6.36,1.57-12.72,3.15-19.1,4.68-3.12,.75-6.27,1.3-9.48,1.53-3.78,.26-7.56,.61-11.33,.92-.72,.06-1.46,.11-1.97,.75h-12.25c-.52-.23-1.02-.57-1.56-.67-2-.39-4.03-.64-6.02-1.06-5.99-1.26-11.96-2.57-17.94-3.86-.28-.06-.56-.18-.84-.25-2.86-.75-4.9-2.51-6.21-5.12-.52-1.04-1.01-2.12-1.29-3.24-1.18-4.72-1.52-9.46-.55-14.29,.55-2.73,1.28-5.39,2.31-7.96,.94-2.34,1.32-4.7,1.28-7.24-.05-3.64,.03-7.31,.52-10.91,.69-5.05,1.68-10.06,2.76-15.04,1.64-7.56,3-15.16,3.7-22.86,.58-6.38,1.19-12.78,.99-19.21-.05-1.6,.06-3.21,.06-4.81,0-3.98,.68-7.84,1.98-11.58,.48-1.4,.73-2.78,.81-4.26,.38-6.99,.84-13.97,1.26-20.96,.43-7.14,.81-14.28-.33-21.39-.83-5.2-.99-10.43-.93-15.69,.05-4.81-.17-9.62-.48-14.42-.29-4.51-.81-9-1.33-13.49-.66-5.64-1.35-11.29-2.17-16.91-.93-6.34-2.04-12.66-3.05-18.99-1.01-6.33-1.99-12.67-2.99-19-1.32-8.35-2.69-16.69-3.96-25.04-1.15-7.49-2.3-14.98-3.26-22.5-.61-4.77-1.13-9.55-1.18-14.38-.06-5.27,.65-10.47,1.16-15.7,.35-3.63,.9-7.23,1.33-10.85,.7-5.79,1.34-11.58,2.07-17.37,.71-5.64,1.52-11.27,2.24-16.9,1.12-8.67,2.26-17.34,3.29-26.02,.57-4.79,.8-9.59-.2-14.37-.15-.71-.21-1.44-.3-2.17-.7-5.64-1.44-11.28-2.1-16.92-.7-5.94-1.27-11.89-1.45-17.87-.23-7.73-.08-15.46,.17-23.19,.25-8.03-.15-16.05-1.27-24-1.01-7.21-2.2-14.41-3.57-21.56-2.96-15.45-5.94-30.9-8.65-46.4-2.43-13.92-4.83-27.85-6.98-41.82-1.64-10.66-3.35-21.3-4.41-32.04-.7-7.11-1.52-14.2-2.29-21.3-.31-2.9-.63-5.8-.95-8.69-.4-3.62-.78-7.25-1.19-10.87-.29-2.6-.61-5.21-.93-7.81-.05-.38-.28-.52-.61-.4-.12,.04-.29,.14-.31,.24-.16,.85-.36,1.7-.44,2.56-.41,4.65-.75,9.3-1.2,13.94-.72,7.25-1.5,14.5-2.27,21.75-.85,7.97-1.78,15.93-2.59,23.91-.75,7.4-1.79,14.76-2.99,22.09-1.67,10.21-3.6,20.37-5.4,30.56-1.9,10.76-3.85,21.51-5.65,32.29-1.63,9.77-3.2,19.55-5.23,29.25-.66,3.14-1.34,6.28-1.78,9.45-1.1,7.95-1.76,15.94-1.78,23.97-.02,5.83,.04,11.67-.02,17.5-.05,4.52-.09,9.05-.37,13.55-.29,4.51-.89,8.99-1.33,13.49-.71,7.26-1.93,14.44-3.15,21.63-.52,3.04-.84,6.08-.59,9.14,.37,4.35,.84,8.7,1.4,13.04,.65,5.06,1.4,10.1,2.17,15.14,1.02,6.62,2.13,13.23,3.15,19.86,.75,4.9,1.45,9.8,2.12,14.71,.69,5.06,.87,10.17,1.27,15.25,.82,10.22,.26,20.42-.65,30.58-.91,10.16-2.53,20.25-4.3,30.29-2.43,13.77-5.2,27.48-8.12,41.16-1.8,8.42-3.05,16.93-3.74,25.5-.5,6.25-.76,12.52-.96,18.79-.43,12.97-.72,25.95-1.12,38.92-.24,7.88-.07,15.73,.86,23.58,.64,5.36,1.36,10.7,2.34,16,.98,5.33,1.65,10.67,1.44,16.08-.32,8.35,.72,16.6,1.99,24.81,1.2,7.78,2.16,15.59,3.04,23.41,.98,8.7,2.28,17.33,4.94,25.71,.97,3.07,1.44,6.26,1.12,9.5-.37,3.63-1.02,7.22-2.05,10.72-1.27,4.3-4.08,6.95-8.52,7.82-2.57,.51-5.14,1.02-7.71,1.57-4.7,1.01-9.39,2.05-14.08,3.1-.26,.06-.46,.33-.69,.5h-10.5c-.69-.2-1.37-.5-2.08-.57-1.45-.15-2.91-.18-4.37-.24-6.28-.24-12.49-1.13-18.67-2.14-5.03-.82-10.04-1.78-14.95-3.17-2.96-.84-5.8-1.96-8.45-3.51-4.4-2.58-7.75-6.15-9.96-10.74-.5-1.04-.84-2.17-1.17-3.28-.79-2.68-.23-5.2,1.11-7.57,.57-1.01,1.3-1.94,1.98-2.88,2.64-3.67,5.36-7.28,7.92-11.01,3.82-5.56,6.75-11.55,8.66-18.05,2.1-7.14,2.39-14.36,1.09-21.64-.57-3.21-.6-6.39-.18-9.57,.62-4.62,1.47-9.21,2-13.84,.55-4.78,1.14-9.55,1.18-14.38,.05-4.98-.43-9.91-1.33-14.79-1.99-10.74-4.13-21.46-6.2-32.19-1.88-9.73-3.73-19.46-5.65-29.18-2.79-14.15-5.67-28.28-8.44-42.44-1.68-8.58-3.64-17.1-4.89-25.76-.58-4.04-1.08-8.09-1.5-12.14-.55-5.22-1.03-10.45-1.46-15.68-.44-5.38-.8-10.76-1.18-16.14-.14-2.04-.19-4.08-.34-6.12-.45-6.12-.49-12.24,.07-18.35,.46-5.08,.76-10.18,1.31-15.25,.61-5.65,1.42-11.28,2.16-16.91,.7-5.35,1.42-10.69,2.12-16.04,.74-5.64,1.51-11.27,2.18-16.91,.5-4.2,.88-8.41,1.32-12.61,.62-5.95,.79-11.93,1.09-17.9,.76-14.87,.54-29.74,.15-44.62-.21-8.31-.34-16.62-.44-24.94-.06-5.41-.58-10.77-1.43-16.1-1.14-7.2-2.38-14.38-3.51-21.57-.7-4.46-1.29-8.94-1.95-13.41-1.1-7.5-2.22-14.99-3.31-22.49-1.01-6.92-1.96-13.85-2.98-20.77-1.02-6.92-2.11-13.83-3.12-20.75-.73-5.05-1.39-10.11-2.08-15.16-.68-5.06-1.33-10.12-2.02-15.17-.95-6.93-1.85-13.87-2.44-20.84-.44-5.23-1.05-10.45-1.32-15.69-.33-6.41-.49-12.83-.52-19.24-.03-6.71,.07-13.42,.35-20.12,.27-6.26,.85-12.51,1.3-18.76,.35-4.94,.73-9.89,1.07-14.83,.28-4.07,.58-8.15,.76-12.22,.39-9.19,1.54-18.3,2.63-27.42,.71-5.93,1.31-11.88,2.06-17.81,.66-5.2,1.39-10.4,2.2-15.58,1.24-7.92,2.57-15.82,3.88-23.73,.98-5.89,2-11.78,2.97-17.67,.69-4.17,1.31-8.35,1.97-12.52,1.21-7.64,3.09-15.13,5.1-22.58,2.31-8.58,4.73-17.13,6.96-25.73,1.53-5.92,2.79-11.91,4.24-17.86,.38-1.58,.55-3.15,.55-4.76-.03-26.4,.01-52.8-.12-79.2-.04-7.58-.33-15.17-.93-22.73-1.02-12.96-3.26-25.73-6.88-38.23-3.84-13.3-7.17-26.73-10.43-40.18-1.51-6.23-3-12.46-4.53-18.69-.1-.41-.36-.78-.58-1.15-.06-.11-.24-.17-.38-.19-.1-.02-.28,.02-.31,.09-.17,.4-.34,.8-.46,1.21-2.31,8.43-4.62,16.86-6.93,25.29-4.84,17.7-9.77,35.38-15.44,52.85-2.67,8.21-4.06,16.67-4.83,25.28-.63,6.99-.78,13.98-.78,20.98,0,7.59-.48,15.17-1.05,22.72-1.16,15.49-4.47,30.54-9.76,45.15-1.98,5.48-4.02,10.93-6.42,16.25-5.69,12.64-10.12,25.75-14.2,38.99-4.54,14.76-8.43,29.71-12.22,44.68-1.5,5.93-3.02,11.86-4.65,17.75-.59,2.12-.93,4.27-1.22,6.43-.45,3.38,.24,6.69,1.05,9.95,.49,1.97,1.22,3.89,1.91,5.8,4.29,11.77,8.45,23.59,11.93,35.63,1.22,4.22,1.97,8.5,2.37,12.87,.36,4.06,.91,8.11,1.37,12.17,.69,6.08,1.35,12.17,2.05,18.25,.4,3.47,.81,6.95,1.3,10.41,.73,5.22,.96,10.47,.39,15.71-.3,2.73-1.07,5.43-1.74,8.11-.4,1.6-1.37,2.9-2.67,3.91-2.26,1.76-5.02,1.7-7.22-.19-.55-.47-1.05-1.01-1.5-1.59-2.79-3.61-4.93-7.54-6.17-11.96-1.15-4.09-1.68-8.28-2.39-12.44-.69-4.02-1.44-8.03-2.59-11.95-.7-2.39-1.67-4.66-2.97-6.79-.13-.21-.46-.31-.72-.42-.31-.13-.54,.02-.66,.37-.05,.14-.12,.26-.17,.4-1.11,2.73-1.73,5.56-1.71,8.52,.02,3.06-.12,6.12,.68,9.13,.22,.83,.24,1.73,.26,2.61,.1,3.44,1.21,6.53,2.91,9.5,3.83,6.71,7.56,13.47,11.32,20.22,.28,.51,.53,1.04,.83,1.54,2.76,4.48,3.02,9.36,2.19,14.37-.31,1.88-1.04,3.63-2.27,5.15-1.95,2.4-4.64,2.99-7.41,1.45-1.01-.56-1.92-1.31-2.79-2.08-.76-.67-1.41-1.47-2.07-2.25-7.01-8.2-14.01-16.42-21.02-24.62-.76-.89-1.51-1.78-2.33-2.61-8.48-8.44-13.96-18.61-17.03-30.09-3.43-12.8-6.95-25.58-9.89-38.51-.23-1.01-.54-1.98-1.53-2.53v-6.13c.7-.38,1.03-1.05,1.13-1.77,.23-1.58,.42-3.18,.54-4.77,.53-6.68,1.04-13.37,1.56-20.05,.04-.58,.1-1.16,.14-1.74,.29-5.39,.68-10.77,.83-16.16,.33-11.4,1.96-22.63,4.05-33.81,.64-3.43,1.09-6.91,1.4-10.39,.99-11.33,1.42-22.69,1.92-34.05,.27-6.11,.85-12.21,1.3-18.32,.38-5.23,.75-10.47,1.14-15.7,.17-2.33,.37-4.65,.55-6.97,.1-1.31,.23-2.62,.29-3.93,.25-5.24,.6-10.48,.7-15.73,.18-9.48,.7-18.94,1.2-28.4,.31-5.82,.93-11.62,1.4-17.43,.39-4.8,1.11-9.55,1.96-14.28,1.6-8.92,4.07-17.58,7.73-25.89,4.28-9.73,8.42-19.52,12.14-29.49,2.91-7.81,5.04-15.83,6.17-24.07,.59-4.32,1.03-8.68,1.19-13.06,.21-5.97,.54-11.94,.98-17.9,.3-4.07,.87-8.11,1.32-12.17,.4-3.62,.78-7.24,1.18-10.86,.34-3.04,.65-6.09,1.04-9.12,1.03-8.09,2.12-16.18,3.13-24.27,.92-7.37,1.83-14.75,2.59-22.14,.52-5.07,.79-10.17,1.15-15.26,.5-7.12,.96-14.25,1.48-21.37,.25-3.34,.59-6.68,.92-10.01,2-20.54,9.78-38.84,21.56-55.58,2.69-3.82,5.72-7.37,8.87-10.81,8.2-8.97,18.26-14.84,29.91-18.04,3.51-.96,7.07-1.76,10.65-2.38,2.78-.48,5.3-1.45,7.78-2.75,9.93-5.21,19.9-10.36,29.85-15.54,11.89-6.19,23.71-12.51,35.68-18.53,4.99-2.51,8.29-6.12,10.22-11.34,2.53-6.86,4.61-13.82,5.51-21.08,.3-2.45,.34-4.94,.35-7.42,.02-4.23-.03-8.45,.61-12.65,.28-1.86,.19-3.78,.23-5.67,.05-2.09-.4-4.09-1.6-5.81-2.57-3.69-3.65-7.91-4.45-12.22-.93-5.01-1.76-10.04-2.64-15.06-.13-.72-.23-1.44-.42-2.14-.32-1.15-.86-2.16-1.99-2.75-.26-.13-.51-.29-.76-.43-4.43-2.56-6.95-6.5-8.26-11.34-.84-3.11-1.16-6.3-1.62-9.47-.9-6.2-1.72-12.41-2.49-18.63-.27-2.16-.39-4.36-.38-6.54,0-2.83,1.33-5.01,3.73-6.53,.12-.08,.24-.18,.37-.23,1.83-.64,2.28-1.85,1.94-3.74-.61-3.44-1.03-6.92-1.44-10.39-.35-2.9-.93-5.74-1.62-8.58-.55-2.26-1.03-4.53-1.31-6.86-.92-7.45,.4-14.5,3.38-21.31,2.35-5.39,5.6-10.22,9.26-14.78,5.24-6.53,11.27-12.18,18.51-16.5,6.98-4.17,14.49-6.75,22.55-7.76,1.15-.14,2.35-.09,3.36-.81,3.5,0,7,0,10.5,0,.53,.18,1.07,.51,1.6,.51,4.61,.05,9.23,.06,13.84,.02,.69,0,1.37-.35,2.06-.54h12.25Zm-20.31,6.17c-5.2-.09-9.58-.22-13.95-.21-3.06,0-6.15-.04-9.17,.35-8.37,1.09-16.09,4.04-23,8.94-8.97,6.35-15.92,14.5-21.17,24.11-.77,1.4-1.4,2.89-2,4.37-2.7,6.69-3.21,13.56-1.61,20.59,.36,1.56,.73,3.12,1.07,4.69,1.4,6.42,1.95,12.97,2.81,19.47,.1,.71,.06,1.45,0,2.18-.12,1.57-.91,2.76-2.23,3.56-.87,.52-1.87,.84-2.73,1.38-.76,.47-1.3,1.22-1.3,2.16,0,1.31,.01,2.63,.18,3.92,1.06,8.09,2.16,16.18,3.27,24.26,.3,2.17,.74,4.3,1.47,6.37,.96,2.71,2.57,4.89,5.1,6.32,.51,.29,1.02,.56,1.52,.86,1.3,.76,2.26,1.87,2.88,3.21,.49,1.05,.89,2.16,1.14,3.29,.42,1.85,.67,3.73,1.01,5.59,.83,4.59,1.66,9.17,2.51,13.76,.48,2.6,1.33,5.08,2.85,7.27,2,2.87,2.76,6.09,2.66,9.52-.1,3.21-.24,6.41-.52,9.61-.19,2.18-.32,4.36-.28,6.55,.11,5.11-.17,10.2-1.17,15.23-1.37,6.88-3.41,13.57-6.23,19.99-1.93,4.41-5.05,7.81-9.3,10.12-.9,.49-1.8,.96-2.71,1.43-5.95,3.1-11.89,6.19-17.84,9.29-15.64,8.15-31.3,16.26-46.9,24.48-3.54,1.86-7.23,3.03-11.13,3.74-2.86,.52-5.72,1.11-8.53,1.87-10.96,2.97-20.33,8.56-28,17.02-11.15,12.29-19.12,26.39-24.32,42.09-3,9.06-4.27,18.45-5.04,27.9-.73,8.86-1.29,17.74-1.76,26.63-.41,7.73-1.28,15.4-2.13,23.08-.88,7.97-2.1,15.89-3.08,23.85-1.03,8.39-1.95,16.79-2.92,25.19-.38,3.33-.79,6.66-1.14,9.99-.59,5.65-1.2,11.3-1.48,16.99-.36,7.28-.58,14.57-1.5,21.81-.96,7.55-2.58,14.93-5.01,22.13-3.03,8.98-6.67,17.73-10.39,26.44-1.6,3.75-3.3,7.46-4.84,11.24-4.43,10.9-6.6,22.34-7.83,33.96-.71,6.67-1.23,13.36-1.6,20.05-.49,8.74-.89,17.48-1.07,26.23-.24,11.53-1.35,23-2.04,34.5-.25,4.07-.61,8.14-.89,12.21-.47,6.84-1.04,13.67-1.33,20.52-.42,10.05-.89,20.1-1.81,30.13-.31,3.35-.79,6.66-1.43,9.95-1.25,6.44-2.3,12.91-2.97,19.44-.63,6.09-1.06,12.2-1.08,18.34,0,1.16-.12,2.33-.2,3.49-.43,5.82-.88,11.63-1.3,17.45-.44,6.11-.79,12.22-1.3,18.33-.27,3.24-.01,6.41,.8,9.53,3.06,11.85,6.08,23.71,9.23,35.53,2.83,10.62,7.9,20.03,15.75,27.84,.93,.92,1.78,1.93,2.63,2.93,4.81,5.67,9.59,11.37,14.42,17.03,2.56,3,5.17,5.94,7.8,8.88,.47,.53,1.1,.93,1.67,1.37,.29,.22,.97,0,1.14-.35,.2-.39,.43-.76,.56-1.17,1.24-3.96,.9-7.76-1.12-11.4-3.68-6.63-7.35-13.26-11.03-19.88-.57-1.02-1.2-2-1.77-3.02-1.72-3.1-2.92-6.35-2.96-9.95,0-.73-.01-1.48-.19-2.17-.98-3.73-.73-7.53-.79-11.31-.06-3.71,.75-7.23,2.14-10.64,.77-1.89,1.55-3.78,2.45-5.61,.82-1.67,.98-3.65,2.42-5.01,.41-.39,.66-.04,3.4,4.76,1.01,1.77,2.03,3.54,3.05,5.31,1.91,3.31,3.29,6.83,4.12,10.55,.7,3.13,1.3,6.28,1.89,9.42,.59,3.15,1.07,6.32,1.66,9.47,.79,4.21,2.41,8.09,4.88,11.59,.34,.47,.72,.92,1.08,1.37,.31,.38,.89,.54,1.15,.32,.21-.18,.52-.35,.59-.58,1.08-3.49,1.83-7.03,1.95-10.72,.16-4.99-.66-9.88-1.22-14.81-.44-3.91-.92-7.82-1.37-11.73-.43-3.76-.86-7.53-1.29-11.29-.48-4.2-.98-8.4-1.42-12.6-.49-4.64-1.05-9.26-2.49-13.74-1.97-6.1-3.81-12.24-5.85-18.32-1.9-5.66-4-11.26-6.01-16.88-.93-2.61-1.8-5.22-2.38-7.94-1.21-5.69-.93-11.28,.6-16.87,1.65-6.04,3.25-12.1,4.79-18.17,3.78-14.97,7.68-29.91,12.22-44.68,4.24-13.8,9.05-27.37,14.82-40.62,6.95-15.95,12.31-32.4,14.34-49.8,.63-5.36,1.27-10.72,1.47-16.11,.28-7.43,.47-14.87,.69-22.3,.17-5.68,.29-11.36,.94-17.03,.71-6.24,1.64-12.43,3.34-18.47,1.18-4.21,2.52-8.37,3.82-12.54,5.39-17.25,10.13-34.67,14.87-52.1,2.29-8.43,4.62-16.86,6.96-25.28,.35-1.26,.69-2.58,1.36-3.66,1.15-1.85,2.54-3.55,3.87-5.29,.13-.17,.52-.29,.73-.24,.24,.06,.46,.33,.61,.56,.15,.24,.22,.54,.29,.82,2.72,11.33,5.38,22.68,8.17,33.99,3.42,13.86,6.87,27.71,10.82,41.43,2.54,8.84,4.3,17.86,5.45,26.97,1.15,9.11,1.89,18.28,1.91,27.48,.06,19.25,.14,38.51,.18,57.76,.02,8.9-.02,17.79-.04,26.69,0,2.19,.06,4.38-.46,6.53-1.53,6.37-2.96,12.77-4.6,19.12-2.19,8.46-4.56,16.87-6.83,25.31-2.04,7.6-3.95,15.23-5.13,23.02-.83,5.47-1.62,10.96-2.53,16.42-1.77,10.64-3.66,21.25-5.41,31.89-.88,5.32-1.59,10.66-2.3,16.01-.73,5.49-1.36,10.99-2.02,16.49-.76,6.37-1.64,12.73-2.2,19.11-.73,8.28-1.23,16.58-1.8,24.87-.41,5.96-.78,11.93-1.18,17.9-.44,6.55-1.03,13.09-1.31,19.64-.61,14.3-.21,28.58,.87,42.85,.25,3.34,.57,6.68,.93,10.02,.47,4.35,.99,8.69,1.54,13.03,.66,5.21,1.34,10.41,2.06,15.61,.71,5.2,1.47,10.39,2.2,15.58,.72,5.05,1.4,10.1,2.15,15.15,1,6.78,2.06,13.54,3.06,20.32,1.02,6.92,1.97,13.85,2.98,20.77,1.02,6.92,2.06,13.84,3.12,20.75,1.02,6.62,2.05,13.25,3.14,19.86,1.3,7.92,2.44,15.85,2.37,23.9-.03,3.5,.08,7,.22,10.5,.57,14.29,.55,28.58,.55,42.87,0,11.67-.47,23.33-1.63,34.95-.32,3.19-.61,6.38-.98,9.57-.67,5.79-1.35,11.58-2.11,17.36-.7,5.35-1.53,10.68-2.23,16.02-.84,6.36-1.68,12.72-2.39,19.09-.53,4.78-.95,9.58-1.23,14.38-.74,12.41,.18,24.78,1.17,37.14,.47,5.81,.97,11.62,1.54,17.43,.54,5.51,1.12,11.02,2.19,16.46,1.29,6.58,2.56,13.16,3.86,19.73,1.86,9.43,3.75,18.86,5.61,28.3,1.95,9.86,3.87,19.73,5.8,29.59,1.63,8.29,3.26,16.58,4.88,24.88,1.48,7.58,3,15.15,4.37,22.75,.91,5.02,1.38,10.1,1.4,15.22,.03,6-.56,11.94-1.3,17.87-.56,4.48-1.26,8.95-1.93,13.42-.3,2.04-.23,4.04,.12,6.08,.49,2.87,.88,5.77,1.03,8.68,.27,5.43-.61,10.75-2.07,15.98-1.87,6.65-4.81,12.82-8.62,18.56-2.42,3.64-5.05,7.14-7.6,10.7-.93,1.3-1.88,2.6-2.8,3.91-.71,1.01-.89,2.17-.68,3.35,.15,.85,.42,1.7,.78,2.48,2.06,4.42,5.46,7.51,9.82,9.56,2.78,1.31,5.71,2.17,8.71,2.82,7.55,1.64,15.16,2.89,22.85,3.72,6.26,.68,12.51,.77,18.78,.85,2.03,.03,4.12-.02,6.09-.45,6.4-1.4,12.75-3.04,19.21-4.18,2.2-.39,3.62-1.72,4.26-3.9,1.9-6.41,2.65-12.79,.44-19.33-1.73-5.11-2.74-10.42-3.4-15.79-.64-5.21-1.21-10.42-1.91-15.62-.95-7.08-2.08-14.13-2.98-21.21-.64-5.06-1.34-10.12-1.25-15.25,.03-1.75-.02-3.5,.04-5.25,.15-4.84-.51-9.59-1.31-14.34-.83-4.88-1.43-9.8-2.23-14.69-.66-4.04-.76-8.13-1.14-12.19-.47-5.1-.43-10.19-.17-15.3,.17-3.2,.34-6.41,.4-9.62,.32-15.89,.75-31.79,1.84-47.65,.27-3.92,.65-7.85,1.19-11.74,.95-6.78,2.34-13.49,3.74-20.19,1.7-8.13,3.3-16.28,4.83-24.44,1.31-7.02,2.52-14.05,3.67-21.1,.84-5.18,1.59-10.37,2.23-15.58,.77-6.23,1.11-12.49,1.24-18.76,.25-12.28-.43-24.49-2.23-36.63-1.09-7.35-2.24-14.69-3.49-22.02-1.91-11.21-3.32-22.49-4.59-33.79-.26-2.33-.27-4.65,.09-6.97,.85-5.33,1.72-10.65,2.47-15.99,.78-5.63,1.61-11.26,2.09-16.92,.69-7.99,1.06-16,.96-24.03-.12-10.06-.22-20.12,.85-30.16,.51-4.79,1.19-9.55,2.19-14.25,2.61-12.26,4.53-24.64,6.63-37,1.03-6.03,2.02-12.07,3.08-18.1,1.3-7.32,2.7-14.61,3.99-21.93,1.36-7.75,2.72-15.5,3.93-23.27,.85-5.47,1.49-10.98,2.16-16.47,.43-3.47,.76-6.96,1.14-10.43,.51-4.78,1.04-9.56,1.54-14.35,.41-3.91,.8-7.83,1.19-11.75,.45-4.5,.91-8.99,1.33-13.49,.42-4.5,.72-9.01,1.18-13.51,.66-6.53,1.27-13.06,1.64-19.61,.17-3.05,.35-6.14,.94-9.13,.59-2.98,1.7-5.87,2.59-8.79,.04-.13,.13-.29,.25-.35,.1-.05,.26,0,.39,.04,.13,.04,.32,.1,.35,.2,1.31,4.02,2.33,8.11,2.88,12.3,.49,3.76,.77,7.54,1.15,11.31,.39,3.92,.73,7.84,1.17,11.75,.72,6.37,1.53,12.74,2.24,19.11,.73,6.52,1.37,13.05,2.07,19.57,.75,6.96,1.49,13.91,2.33,20.86,.64,5.35,1.36,10.7,2.16,16.03,.97,6.48,2.05,12.95,3.09,19.43,1,6.19,1.97,12.38,3.04,18.55,1.28,7.47,2.63,14.92,3.99,22.38,1.57,8.6,3.14,17.2,4.78,25.79,1.83,9.59,3.74,19.16,5.19,28.82,1.19,7.95,1.77,15.94,2.09,23.95,.09,2.18,.02,4.38-.15,6.56-.92,11.38-.35,22.74,.67,34.08,.53,5.95,1.44,11.86,2.2,17.79,.3,2.31,.62,4.62,.96,6.93,.83,5.69,.4,11.36-.28,17.01-.64,5.35-1.46,10.69-2.14,16.03-1.01,7.95-1.95,15.91-2.93,23.87-.85,6.94-1.72,13.88-2.58,20.83-.37,3.04-.69,6.08-1.11,9.12-1.16,8.28-1.22,16.58-.26,24.87,.72,6.22,1.67,12.42,2.61,18.62,1.29,8.5,2.67,16.99,4,25.48,1.29,8.21,2.49,16.42,3.86,24.62,1.98,11.93,3.92,23.87,5.27,35.9,.73,6.52,1.45,13.04,1.67,19.6,.05,1.6,.22,3.2,.26,4.81,.07,2.33,.19,4.67,.07,6.99-.2,3.66-.01,7.31,.58,10.9,.57,3.47,.8,6.95,.82,10.45,.05,6.56,.03,13.13-.72,19.66-.15,1.3-.19,2.62-.25,3.93-.19,3.93-.37,7.87-.54,11.8-.06,1.46-.21,2.9-.75,4.28-1.61,4.14-2.14,8.46-2.16,12.86-.04,7.29,.04,14.59-.91,21.84-.49,3.76-.79,7.54-1.44,11.27-1.05,6.03-2.33,12.01-3.5,18.02-1.34,6.88-2.51,13.78-2.1,20.83,.14,2.38-.33,4.63-1.14,6.84-.65,1.78-1.32,3.55-1.85,5.37-1.33,4.57-1.45,9.19-.39,13.83,.71,3.12,2.26,5.18,5.71,5.74,4.02,.65,7.97,1.7,11.95,2.57,4.56,1,9.11,1.96,13.77,2.4,2.34,.22,4.64,.21,6.98-.04,4.35-.47,8.7-.88,13.07-1.18,3.65-.25,7.25-.74,10.8-1.6,6.37-1.53,12.74-3.1,19.1-4.65,2.8-.68,5.02-2.25,6.79-4.51,1.45-1.85,2.46-3.96,3.39-6.1,.68-1.57,.53-3.11-.5-4.55-1.44-2.02-2.82-4.08-4.2-6.13-3.43-5.08-6.65-10.28-9.32-15.81-1.86-3.83-3.23-7.82-3.91-12.01-.83-5.18-1.43-10.39-2.21-15.58-.66-4.37-.64-8.71,.16-13.06,.29-1.57,.48-3.16,.31-4.78-.5-4.79-.98-9.57-1.4-14.37-.42-4.79-.78-9.59-1.11-14.39-.09-1.3,0-2.62,.08-3.93,.38-6.56,1.37-13.04,2.76-19.46,1.36-6.26,2.63-12.55,3.89-18.83,1.61-8,3.17-16.01,4.75-24.01,1.89-9.58,3.81-19.15,5.66-28.73,1.96-10.16,3.94-20.31,5.74-30.5,1.17-6.6,2.06-13.25,2.99-19.88,.59-4.18,1.1-8.38,1.5-12.59,.44-4.64,1.08-9.26,1.35-13.93,.28-4.94,.67-9.88,1.34-14.8,.65-4.76,1.08-9.55,1.1-14.38,.04-9.21-.93-18.35-2.06-27.46-.86-6.94-2.01-13.84-3.06-20.76-1.29-8.5-2.61-17-3.93-25.49-.71-4.61-1.2-9.25-1.48-13.91-.31-5.39-.6-10.78-1.21-16.14-.68-5.98-.74-11.94-.13-17.9,.7-6.85,.65-13.68,.02-20.52-.67-7.28-.72-14.57-.07-21.85,.39-4.36,.87-8.7,1.35-13.05,.68-6.08,1.36-12.17,2.12-18.24,.71-5.64,1.52-11.27,2.3-16.9,.7-5.05,1.4-10.1,2.15-15.15,.71-4.76,1.47-9.5,2.22-14.25,1.06-6.77,2.12-13.53,3.19-20.3,.98-6.19,2.01-12.37,2.93-18.57,1.03-6.92,1.94-13.86,2.92-20.78,1.29-9.09,2.5-18.19,3.45-27.33,.85-8.13,1.55-16.26,1.7-24.43,.02-1.02,.08-2.04,.15-3.06,.84-10.92,.8-21.86,.55-32.8-.03-1.17-.07-2.34-.18-3.5-.87-8.57-1.04-17.18-1.38-25.77-.31-8.01-.36-16.03-.81-24.05-.45-8.16-1-16.29-1.79-24.42-.74-7.7-1.93-15.33-3.09-22.96-1.03-6.77-2.12-13.53-3.19-20.3-.98-6.19-1.84-12.4-2.97-18.56-1.5-8.17-3.16-16.3-4.82-24.44-3.56-17.42-7.54-34.74-12.17-51.9-2.17-8.04-3.56-16.23-4.4-24.5-.52-5.22-.76-10.47-1.12-15.71-.1-1.45-.2-2.91-.28-4.37-.19-3.2-.49-6.4-.53-9.61-.08-5.54,0-11.08,0-16.63,0-1.16,.21-2.44-.19-3.46-.79-2.02-.53-4.02-.42-6.04,.1-1.89,.36-3.78,.42-5.67,.32-9.77,1.24-19.51,1.28-29.28,0-1.6,.07-3.21,.17-4.81,.23-3.49,.34-7,.8-10.47,.83-6.36,2.14-12.64,3.72-18.86,2.44-9.6,4.85-19.21,7.26-28.81,4.44-17.66,8.87-35.32,13.29-52.99,.68-2.7,1.68-5.26,2.97-7.72,.18-.35,.87-.47,1.12-.2,3.89,4.07,4.06,4.39,5.27,9.76,.06,.28,.09,.58,.15,.86,1.64,7.1,3.18,14.22,4.95,21.28,2.83,11.31,6.17,22.47,9.56,33.62,2.54,8.36,5.15,16.71,7.7,25.07,2.09,6.84,3.64,13.81,4.64,20.89,1.02,7.23,1.41,14.52,.83,21.82-.6,7.6-.03,15.17,.58,22.72,.45,5.51,1.28,11,2.25,16.46,1.38,7.75,2.92,15.46,4.86,23.09,2.42,9.48,5.79,18.63,9.63,27.62,4.34,10.19,8.48,20.45,11.95,30.98,6.21,18.83,11.59,37.89,15.84,57.26,1.5,6.83,2.81,13.7,4.31,20.53,.71,3.23,.41,6.39-.24,9.54-.29,1.42-.79,2.8-1.27,4.18-3.81,11.01-7.62,22.03-11.47,33.03-2.43,6.94-3.86,14.04-3.81,21.41,.01,2.04,.02,4.09-.08,6.12-.25,4.96-.7,9.88-2.31,14.64-.51,1.51-.79,3.1-1.12,4.67-1.1,5.2-.89,10.44-.54,15.69,.2,3.05,.53,6.1,.75,9.15,.24,3.34,.43,6.69,.65,10.04,.05,.73,.83,1.16,1.59,.97,1.52-.37,2.55-1.37,3.39-2.59,.83-1.22,1.29-2.61,1.66-4.02,1.4-5.36,2.65-10.75,3.22-16.27,.5-4.81,1.49-9.5,3.42-13.96,1.51-3.48,3.07-6.93,4.62-10.38,.73-1.63,1.92-2.91,3.25-4.05,.16-.14,.6-.18,.77-.07,2.2,1.53,3.87,3.37,4.52,6.15,.84,3.55,1.59,7.1,2.08,10.72,.8,5.85,.48,11.64-.87,17.37-1.08,4.58-2.86,8.88-5.33,12.87-3.08,4.98-5.5,10.27-7.54,15.74-.41,1.09-.91,2.15-1.29,3.25-.85,2.48-1.7,4.96-2.46,7.47-.29,.96-.35,1.99-.44,3-.04,.42,.11,.86,.21,1.28,.21,.92,1.28,1.32,2.02,.76,1.87-1.4,3.58-2.97,5.09-4.77,7.89-9.37,15.64-18.86,24.06-27.77,5.32-5.62,8.69-12.37,10.67-19.82,1.05-3.94,2.08-7.89,3.1-11.84,2.3-8.88,4.6-17.77,6.88-26.66,.91-3.55,1.33-7.15,1.17-10.83-.23-5.39-.38-10.79-.52-16.18-.39-14.73-.74-29.45-1.14-44.18-.04-1.45-.22-2.91-.5-4.33-1.07-5.43-2.18-10.86-3.31-16.28-1.52-7.29-2.54-14.65-2.99-22.08-.43-7.13-.72-14.27-1.08-21.41-.04-.87-.12-1.75-.17-2.62-.47-7.57-.93-15.14-1.41-22.7-.38-5.97-.76-11.93-1.18-17.9-.42-5.96-1.04-11.92-1.31-17.89-.47-10.34-.95-20.69-.84-31.05,.05-4.52-.08-9.04-.16-13.56-.07-3.95-.73-7.83-1.4-11.71-.9-5.19-2.43-10.2-4.23-15.13-4.69-12.87-9.91-25.53-14.93-38.28-1.86-4.74-3.68-9.52-5.26-14.36-3.01-9.18-5-18.57-5.13-28.28-.04-2.77,.07-5.55-.05-8.31-.25-5.68-.55-11.36-.96-17.03-.33-4.51-.86-9-1.3-13.49-.4-4.06-.74-8.13-1.19-12.19-.71-6.37-1.55-12.73-2.25-19.11-.63-5.81-1.63-11.54-3.14-17.18-.94-3.53-1.64-7.11-2.07-10.72-.72-5.93-1.34-11.88-1.73-17.85-.5-7.57-.75-15.15-1.09-22.72-.09-2.04-.13-4.08-.24-6.12-.22-4.09-.81-8.12-1.74-12.11-3.72-16-10.77-30.44-20.6-43.55-1.31-1.75-2.73-3.42-4.21-5.03-4.58-5.02-9.9-9.03-16.21-11.64-3.23-1.34-6.45-2.7-9.74-3.87-4.68-1.66-9.45-2.97-14.46-3.21-2.21-.11-4.3-.74-6.29-1.72-.92-.45-1.81-.94-2.72-1.41-13.34-6.89-26.7-13.74-40-20.68-9.3-4.85-18.73-9.47-27.83-14.71-1.91-1.1-3.76-2.24-5.23-3.9-1.97-2.24-3.19-4.84-3.87-7.74-1.04-4.39-2.21-8.76-3.21-13.16-.9-3.98-1.75-7.96-2.22-12.03-.69-5.95-.92-11.93-1.1-17.9-.24-7.94,.8-15.71,4.38-22.97,.63-1.28,1.05-2.74,1.24-4.16,.57-4.33,1.16-8.68,1.03-13.07-.03-1.16-.05-2.34,.08-3.5,.34-2.95,1.63-5.27,4.55-6.4,.41-.16,.81-.34,1.21-.5,2.3-.93,3.8-2.63,4.73-4.89,.78-1.9,1.28-3.87,1.61-5.89,1.12-6.9,2.26-13.81,3.35-20.71,.43-2.73,.81-5.48,1.17-8.22,.09-.71,.07-1.45-.04-2.16-.06-.39-.31-.88-.63-1.09-.72-.48-1.58-.76-2.32-1.22-1.61-1-2.46-2.47-2.43-4.37,.02-1.31,.11-2.62,.25-3.93,.44-4.06,.91-8.11,1.4-12.16,.51-4.19,1-8.39,1.61-12.57,.97-6.65,.39-13.04-2.56-19.2-6.31-13.18-15.72-23.41-28.63-30.31-8.55-4.57-17.66-6.66-27.38-6.1-4.07,.24-8.16,.23-11.42,.31Z"/>
  </g>
</svg>