<?xml version="1.0" encoding="UTF-8"?>
<svg xmlns="http://www.w3.org/2000/svg" viewBox="0 0 1233.45 2712.08">
  <g id="Background">
    <rect x="6.31" width="1220" height="2712" fill="#f29140"/>
  </g>
  <g id="mountain_3">
    <polygon points="6.31 561.8 76.86 579.62 137.31 675 190.64 770.73 236.86 874.61 275.97 874.61 307.97 902.08 339.97 998.93 393.31 998.93 443.09 1036.08 556.07 1045.04 677.75 1085.23 766.64 1024.2 898.2 1024.2 940.86 874.61 987.09 828.03 1026.2 701.05 1026.2 675 1072.42 623.84 1072.42 561.8 1043.97 481.55 1086.64 481.55 1161.31 454 1214.64 481.55 1226.31 549.88 1226.31 2712 6.31 2712 6.31 561.8" fill="#b95756"/>
  </g>
  <g id="mountain_2">
    <path d="M6.31,850.02l106.11-108.02c40.42,15.69,122.11,43.12,163.56,54.01,0,0,54.52,54.01,54.52,54.01,66.85-8.8,57.1-14.54,121.22,11.22,17.3,17.54,54.74,52.97,73.15,69.71,58.41,92.55,48.25,71.62,48.06,178.96,0,0,62.38,56.67,62.38,56.67,17.76,23.85,58.34,69.14,82,87.09,0,0,70.66,0,70.66,0,0,0,21.33,21.27,21.33,21.27,0,0,64,0,64,0,42.2-41.88,21.02-38.61,82-37.82l35.33-70.55c84.09,.65,50.77,6.68,103.11-56.67,0,0,32-14.72,32-14.72l60.56-122.78s40-41.45,40-41.45v1781.05H6.31V850.02Z" fill="#a63b45"/>
  </g>
  <g id="mountain_1">
    <path d="M6.31,1937l202-106,11-83,111,50,45-86,77-31-.59-59.63c14.53-19.46,29.06-38.91,43.59-58.37,18.74-35.81,22.27-64.93,22-85-.56-40.64-17.02-64.69-7-103,5.11-19.55,14.83-34.02,22-43,9.39,5.15,32.6,17.86,42,23,24.21,13.25,50.78,27.77,75,41,37.67-17.37,75.33-34.74,113-52.1,58.33,29.37,116.67,58.74,175,88.1,40.33,49.67,80.67,99.33,121,149,20.33,55.67,40.67,111.33,61,167,2.5,13.99,9.54,42.43,32,70,27.46,33.7,61.52,45.94,75,50v844H6.31v-775Z" fill="#6f2e4c"/>
  </g>
  <g id="birds">
    <g>
      <path d="M400.93,355.2c13.86-12.12,27.21-24.87,41.71-36.16,14.38-11.2,31.37-17.89,48.67-23.5,1.68-.54,3.59-1.28,5.16-.92,1.37,.32,3.05,1.89,3.4,3.22,.3,1.16-.86,2.91-1.78,4.1-.57,.74-1.85,.98-2.86,1.33-39.45,13.57-67.93,40.68-90.06,74.77-11.57,17.82-21.7,36.71-30.89,55.87-5.6,11.68-8.19,24.81-12.09,37.31-.63,2.03-.86,4.18-1.56,6.18-.51,1.47-1.5,2.77-2.27,4.15-.86-1.09-1.87-2.1-2.54-3.29-7.1-12.64-14.15-25.31-21.21-37.97-10.23-25.74-15.07-52.82-20.16-79.88-2.99-15.87-6.46-31.75-14.18-46.24l.02-.04-5.74-11.1-.71-.02,.71-.06c-1.32-2.13-2.64-4.26-3.95-6.39l-.19-.36c-1.75-2.54-3.5-5.07-5.25-7.61l.07,.13c-.7-.91-1.4-1.82-2.09-2.73-6.26-6.24-12.48-12.54-18.83-18.69-1.77-1.71-4.54-2.62-5.77-4.58-1.11-1.76-1.37-4.65-.76-6.66,.31-1.02,3.54-2,5.14-1.64,7.24,1.65,14.64,3.11,21.49,5.86,17.89,7.18,32.29,19.13,44.01,34.37,2.37,3.08,4.75,6.15,7.13,9.22,.9,1.46,1.81,2.91,2.71,4.37l-.08-.08c13.45,26.07,22.95,53.4,26.56,82.64,.39,3.13,1.38,6.18,2.1,9.26,2.01-2.8,4.03-5.6,6.04-8.41,0,0,0-.03,0-.03,2.32-3.43,4.63-6.86,6.95-10.29,0,0,.03,.05,.03,.05,2.16-2.82,4.32-5.65,6.48-8.47l-.46-.81,.5,.8c1.48-1.93,2.95-3.86,4.43-5.79l.24-.48c.56-.7,1.13-1.39,1.69-2.09l.09-.12c2.69-3.08,5.38-6.16,8.07-9.23Z" fill="#2b221f"/>
      <path d="M436.82,474.53c-3.25-13.14-10.38-23.97-19.96-33.31-1.52-1.48-3.56-2.53-4.78-4.2-.88-1.2-1.53-3.55-.92-4.58,.62-1.05,3.19-1.92,4.42-1.49,6.33,2.22,13.24,3.84,18.56,7.63,7.69,5.48,14.19,12.64,21.2,19.08,10.02,16.73,17.04,34.55,20.08,53.9,.55,3.53,2.01,6.91,3.05,10.36,2.09-3.18,4.18-6.35,6.27-9.53l.16-.43c2.06-2.84,4.12-5.68,6.18-8.52l.23-.24c3.47-4.25,6.93-8.51,10.4-12.76l.09,.03c2.06-2.19,4.11-4.37,6.17-6.56l.14,.1c1.39-1.31,2.78-2.62,4.17-3.94l.06-.18,3.53-3.05-.14,.1,2.53-2.09-.14,.22c2.07-1.55,4.15-3.11,6.22-4.66,0,0-.07,.06-.07,.06,6.48-3.55,12.95-7.1,19.43-10.64,4.13,.81,8.16-5.41,12.35-.17-3.3,2.21-6.42,4.77-9.93,6.56-19.61,9.96-34.07,25.29-44.91,43.97-7.26,12.52-14.06,25.46-19.39,38.88-3.71,9.36-4.5,19.87-6.8,29.82-.22,.97-1.92,1.59-2.93,2.38-2.79-4.48-5.57-8.96-8.36-13.44l-.21-.54c-1.61-2.61-3.22-5.21-4.82-7.82l.14,.09c-1.55-3.12-3.09-6.24-4.64-9.37l-.25-.84c-3.59-16.85-7.06-33.73-10.83-50.54-1.83-8.16-4.2-16.2-6.33-24.29Z" fill="#2b221f"/>
    </g>
  </g>
  <g id="sun">
    <circle cx="653.31" cy="675" r="127" fill="#ffd140"/>
  </g>
</svg>