<?xml version="1.0" encoding="UTF-8"?>
<svg xmlns="http://www.w3.org/2000/svg" viewBox="0 0 10.125514403291163 18.777777777777374">
  <g id="Male">
    <path d="M4.930863763564957,1.109110434588729c.004070905394656,.00525962201209,.009818282873312,.007021784806057,.016081083326753,.007887502198173,.249256507896462,.034456608447726,.457980686398514,.223324982055601,.547102339535741,.440156718555045,.025141975258521,.061169530551524,.035090177626444,.124475889300811,.02444131772063,.190874821353646-.015933860143377,.099356217360764-.024334658921362,.199681299426629-.03566999301438,.299626125852228-.000932413492592,.008220031970268,.000599955746111,.015260150972608,.008632554732685,.019548487138309,.004094733424608,.002186079884268,.008062951357715,.004609872730725,.012085349691915,.006930978116543,.030455342198366,.017572888181348,.041076686403358,.045434733738148,.038401422743846,.078614839490911-.001860855646555,.023077304857907-.006587882857275,.04592937810321-.010170313644267,.06886080719687-.008119401094518,.051972478448988-.016168169101547,.103956658163952-.02454201951241,.155888430395862-.00640321562787,.039708844035886-.012430572454832,.079509312519804-.020268859533644,.118942574045832-.003895315509908,.019597136031734-.010256832085361,.038948900090872-.017663945294771,.057551074052753-.014302491114904,.035917634321777-.039118249301282,.06272714615352-.074543721345435,.079141963728944-.005617457984044,.002602928569104-.011134781510009,.005481297814185-.016911376692406,.007669788868952-.010231018386548,.003876026152284-.013501415452083,.012489007860495-.014385605551979,.021915404747233-.001154241101176,.01230377329648-.000952553850766,.024730090745834-.001496343526924,.037096554454365-.001971769451302,.044850450594822-.003775324360504,.089665442812475-.010514401738874,.134204994355059-.003746673991373,.024762145118984-.009873314274955,.048451603405738-.02078513350898,.07090696832347-.016364750345019,.033675813869195-.026908086120784,.069173479168967-.032739429037065,.106047638681048-.002412020665361,.015251499128681-.004480520570723,.0306780208075-.005020338908253,.046083834794445-.002226502435406,.063506804956887-.00127536691889,.126954465340532,.005319323946424,.190242563025095,.003846241115752,.03691245455957,.004093882423149,.07419027224023,.012830542951633,.110593686333232,.00757759708813,.031575685090502,.013758985106506,.063484962595794,.02118623867409,.095099084567664,.008135570114973,.034627942219231,.016910809358706,.069107384753806,.025590169148927,.103605549311396,.002257422140246,.008973238822364,.004935522470078,.017861944873403,.007870625118812,.026639169786904,.008740348200263,.026138213829654,.025641796546552,.045723435846412,.049359763368557,.059317326747987,.029526049042033,.016922723372772,.058852963837126,.034274351279237,.08904392837303,.049941848091294,.212876779999533,.110471567681088,.425953545246557,.220558766550312,.638968754751659,.33076368723232,.00412338379283,.002132892318514,.008476254204652,.003890776837579,.012386036733005,.006356126902574,.022844556068776,.014405178576453,.048237860306472,.020191985770907,.074672222504887,.023238853225848,.019952854473559,.002299972193214,.039877058577986,.005176072101676,.059633899141772,.00878318192008,.050444789717403,.009210100784003,.098600386588259,.026161474525907,.146184678082136,.044771732997106,.020161066066066,.007885092136348,.040023147093052,.016545729904465,.059939124854282,.025046095805919,.073820086779051,.031506044837442,.137013723347081,.07798091461882,.190914995694584,.137099674453566,.017711601353767,.019425801151556,.034753181208544,.039620623592782,.050472305418225,.060679212107971,.105862262283154,.141820177323098,.182993594178697,.297443024472159,.224245019466252,.470139789516907,.013696011027605,.057334494282259,.02262982013508,.115063285722499,.023846751648307,.174342033756147,.001684414760348,.082028559317223,.005540584222217,.164063359309694,.010702189305448,.245954340123717,.004282237324333,.067951867149532,.010872956851927,.135799912171024,.018227875329103,.20350016667453,.004337836059676,.039937195986568,.011085139782153,.079710716103364,.021504796736735,.118652240851588,.01602661925881,.059895156466155,.027705190444976,.120551107878782,.034388952754853,.182232515566284,.008835660319164,.081538099041609,.018664155205443,.16296868828249,.027552010255022,.244500830316611,.008385764425839,.076929928312893,.017167528010759,.153840567267252,.023812144271687,.230928781776129,.006246347766137,.072454230081348,.014175975625221,.144907325494387,.011546382355846,.217876127548152-.000389758484744,.01082700279494,.000209346259908,.021686910963581-.000093042782282,.03251901976364-.002791283470287,.100090773107695,.014900461192155,.19716276179588,.042842797265621,.292754575976687,.015641399446395,.05350697519043,.034948911451465,.105707947424889,.055325280784928,.157556037886025,.052617395418565,.133885727124834,.105208126136858,.267783368263736,.157483419129676,.40180355355551,.023640242057809,.060609430021032,.043745425720772,.122332536760041,.055591360449398,.18650312254249,.006743332383849,.036526667412545,.012557371612274,.073104394889015,.015631754768037,.110213714359816,.005249541859484,.063366106115609,.006221952401575,.126777031619895,.006132313623311,.190294048589749-.000089071443654,.063488082932963,.000224096946113,.12699602255816,.001761572190844,.19046027746208,.001123888730035,.046408491698458,.004200541222417,.092780106685495,.006971400666771,.139134701650619,.00378752204233,.063359865440361,.007950619218718,.126698739521999,.012249876564056,.190026834256969,.004613560402504,.067960944494189,.009560713219798,.135898628293035,.014393831895177,.203844822102837,.000549179349036,.007722550934886,.001512512547379,.015418437169501,.001926099061166,.023146094110416,.004051899704791,.075758950856653,.008062951357715,.151520738382715,.012014432937576,.227284795245396,.003549241746441,.068035832588066,.006237837755179,.136127263911476,.010698217967729,.20410295909096,.006085792232625,.092775568013167,.019091925069915,.184650776906892,.039113710628953,.27551215987296,.010318671495952,.046826049550873,.020380908005791,.093721881189595,.029483782656825,.140794153713614,.002910990952842,.01505420871581,.003033535104805,.030764822915444,.003299047434666,.046194039431612,.00117381412656,.068126606033729,.001860855647465,.136261722078416,.002897942270465,.204391164782464,.000234308957261,.015410494493153-.000309764385747,.031041114592881,.007062741447044,.045385021093352v.520531249833766c-.002223382097327,.001973755120162-.006116995605225,.003718874623701-.006423923319744,.005956440071714-.006327476533443,.046115747335534-.019897539405065,.090548214577211-.031504059168583,.135399941674223-.024030000542552,.092854994778463-.048724349245276,.185538654676748-.073204813013945,.278276778642976-.024176940059078,.09159267654195-.067763512249257,.172636343968406-.13309599814329,.24141765348304-.067259152287988,.070811230705658-.130063597704975,.145471255528719-.192695006240683,.220306019235977-.017892580912303,.021378281246143-.036576025473551,.04214384172974-.053593209964674,.064196115814411-.018220499986455,.023610173353518-.041379075445548,.041616221073127-.063658850478532,.060795515585596-.045685708133533,.039327595562099-.102540521487754,.009061459265467-.114443189619124-.042222133827636-.005714188437196-.024618893274237-.004032610347167-.049342176012942,.003078921828092-.073506067388735,.005676177057467-.019289357314847,.011381288150005-.038642256043204,.018534803043622-.057410800711295,.017631607254771-.046258148177913,.034783249911925-.092776135346867,.054692703331966-.138061872982689,.013657999647876-.031067211958543,.031069481295162-.060552696617378,.04780753743853-.090177745450092,.017541401141898-.0310445185969,.034442849489096-.062214985350693,.04542813848002-.096373033151394,.018731100621153-.058243647080417,.026693066520238-.117550478148587,.01964564309128-.178570090680296-.002131473983354-.018456510946635-.003508393694574-.037040104717562-.006575401508599-.055339464135614-.005041330266977-.030079483397458-.008610996038442-.038292210941108-.013427662027425-.035614961612737-.012188037152555,.006775670423849-.01371246371491,.020170994411274-.018734504625172,.030973601842561-.015015630002381,.032301730826475-.028344008573185,.065482262079058-.035517380158126,.100461809568515-.005585970945504,.027241678535574-.009071103944734,.054962187000456-.012445039473278,.082598162693102-.006582776850337,.05391034969216-.019146956471559,.106594123192735-.032435054325106,.159074791107741-.004515411614193,.017833578172031-.011606519763518,.035383489324886-.020005900206343,.051789655056382-.018790670696035,.036705377634462-.04961676568837,.058543199452288-.08988159708224,.066993072624427-.036052943490176,.007567101408313-.068667842706418-.0137101943792-.076156652016834-.05011942364581-.001848374297879-.008988840509119-.002007227829381-.018403181547001-.002227920770565-.027638245029266-.001296358277614-.054196286047954-.003735894644706-.108238257236735-.009479584452492-.162258669733092-.005895167995732-.055447824936891-.005995018786052-.111328525746103-.002775965451292-.167106539093766,.001614065340618-.027971837444056,.005945660725956-.05575305065031,.0149872633001-.082010404628818,.020480758797021-.059479300616658,.025081270517148-.120977175742155,.027315431961142-.182977708826002,.000836817706841-.023215876197355,.001392805064825-.046442531741377,.001947657754499-.069667485283389,.001793342896235-.075024253275842,.017873291555588-.147153400952448,.042674299056671-.217746775387241,.041021655000804-.116762451168142,.081377827174947-.233759778629064,.121883775535935-.350703776690352,.007599439448313-.021941643945866,.014714375627591-.044009803383233,.015559136010779-.067604091384055,.000724485566934-.02021467913255-.000038011380639-.040256321382913-.004008214983514-.060118118743958-.037614246764861-.188191508641466-.081287053729284-.374894332765507-.134104150729399-.559479866257789-.055825669406659-.195102771900565-.120781445498324-.386868484985825-.202032757183588-.572968800361195-.04153963097815-.095144187624101-.076747246751438-.192541826050729-.102681787661822-.293194827190746-.020473383454373-.079458536122729-.037939329169603-.159559861711386-.051255793725431-.240510486355561-.009041035240443-.054963321667856-.018771381338411-.109935153346669-.024586271567387-.16528142549123-.010688005955672-.101728099143656-.016211853822824-.203818724737175-.009065146938156-.306153303968131,.004555408664601-.065228663764174-.000867170077981-.129903042172373-.00932214925615-.194503099822214-.012096696373192-.092427224913081-.036109109561039-.18200926962254-.06416661444382-.270610961112652-.055582566771591-.175521804889286-.109441005399276-.351572365103493-.156613128714525-.529551293714576-.019806765958492-.0747292395763-.035787714827165-.150470603077338-.053684267078097-.225710443288335-.000580099054787-.002440103699882-.002935102648735-.004564769675198-.004752840908623-.006573699506589-.001797314234864-.001987938470847-.008207905205381,.003857871462969-.009637303315685,.008763608895606-.000431741203101,.001483011177697-.001024888941174,.002922904967818-.001400180407472,.004418397493282-.044048382097571,.175547334922157-.08807265249925,.351099775849434-.132121318263671,.526646543436982-.022966816554799,.091529702463959-.045902146069238,.183067914937965-.068988102771982,.274566981363932-.017435877010939,.069105824584767-.030980126183749,.138969607445688-.039456380388401,.209714460067516-.002940492322523,.024542870513869-.00315012225019,.049437488131844-.004099839430637,.074190272239321-.003977295278673,.103684834242813-.007059337443934,.207403708528545-.01441737625828,.310938766584513-.002195015395955,.030885665066307-.002726040055677,.061891604948869-.003976727944064,.092843648098096-.000187503899724,.004640792436476-.00090433045807,.009432495727197-.000078008431046,.01391500196678,.007662980860914,.041565161010112,.002667604650924,.083391295678666,.002764902437775,.125094318860647,.00010155279324,.043368715919314-.001137504747021,.086748211186205-.000517124975886,.130104445756842,.000442804217528,.030933888459003,.002933400646725,.061839410216635,.004622921414011,.092752307316914,.000760227611863,.013915569301389,.001789371558516,.027816387916573,.002705332363803,.041723447207005,.004172174520136,.063351922764923,.0072071279601,.126804263653867,.012780901223778,.190033074932217,.008987989507659,.101957869428588,.028183736706524,.202105943273637,.054919636946579,.300999641560338,.041997469548733,.155344569803674,.078032825684204,.312148322755093,.110751547029395,.469705495309427,.01730028417569,.08330959957766,.035296119882332,.166491548995509,.051209272333836,.25006779557134,.012151727774835,.063821108014054,.021767756064037,.128131825304081,.032074229877253,.192295603077582,.014724871307408,.091672103308156,.028971763686968,.183420796710379,.043570119503784,.275113891377259,.014360075520017,.090195332804797,.027448755459773,.180582991849406,.03681146910003,.271427922128169,.005394779374001,.052347344416376,.008544901623281,.104940911804988,.012045068975567,.15746753377698,.011021598369553,.165403969643194,.01213555875438,.33119939977405,.019352331393748,.496753145604089,.002629876936226,.060328032337566,.007202305620922,.120569829901797,.010745874026725,.180859283525933,.003274652071013,.055708798594424,.003568814770006,.111418731858066,.001062616654053,.16719334120171-.004797092963599,.106756380728257-.008230882232965,.213580841540534-.013766360448244,.320296374217833-.002564066187915,.049432949459515-.008385764425839,.098712718728166-.013385679309067,.147995892000836-.003436625939685,.033874380782436-.007752335971418,.067667065462956-.012112298059037,.101439326117543-.008719640507479,.067534309298026-.017475874060437,.135067483926832-.026707249870924,.202532578471619-.010070179187096,.073596840835307-.020217232136019,.147189142998286-.031221810484567,.220649823663734-.00985799625596,.065805075147182-.021014620127062,.131412718049432-.031435979083653,.197132693091589-.011148113860145,.07030403407407-.022209425612346,.140623953501745-.033113302169113,.210966566290153-.007585539764477,.048935964841803-.014996056977907,.097899161716668-.022207439943486,.146891859962125-.008338108366843,.056647169094504-.016582322949944,.113309088874303-.024478478100718,.170018664714007-.008324208682097,.059782256992548-.016709122107386,.119563379317697-.024115951649037,.17946364179079-.008167624488124,.066054702124347-.01555516467306,.132209255039925-.022710097901836,.198383097312217-.005158484746971,.047709388650219-.009508802155324,.095508416077791-.013983933053169,.143290423484359-.004925877790811,.052591865386603-.004233162929268,.105190538781244,.000633428454421,.157752902797256,.00901976021396,.097416927783343,.010151307954402,.194813431541661-.000105240464109,.292236032665642-.004065799387718,.03862069734987-.003389820881239,.077177853287139,.000364512119631,.115923364125592,.005673624053998,.058550007460326,.010328316174309,.117228232414163,.013894294274905,.17594390141403,.004321667040131,.071158439136525,.011759983621232,.141935629799264,.02256259105161,.212357669353878,.011026420708731,.071884626706378,.022713501905855,.143668267953217,.034130815767639,.215492757251923,.008016713633879,.050433726702977,.01730028417569,.100704061203032,.023795975252142,.151331816147831,.008665460106386,.067536578633735,.017375455935507,.135067483926832,.024186301069676,.202871844227047,.007765384654704,.077306070779741,.008441079495242,.15455200415181,.007430657571604,.232014659126435-.000628606114333,.048184814573688-.00851511658675,.095567418817154-.014045488796,.14322347806683-.001783981883818,.015370213775896-.00358782045987,.030755178237087-.004730714881589,.046182125417545-.003661290218588,.04941819877331-.00660688854714,.098894265619492-.010653398578143,.148279559020011-.002273874826642,.027753981172282-.005992182116643,.055395630205567-.009371223651215,.083050895254928-.011826645370093,.096791725673029-.022117801165223,.19381265429729-.038066411993896,.29002910325471-.011891037784153,.071731446515514-.025825612774497,.143136108625185-.039496944772509,.21456232942819-.019778115589361,.103333087138708-.040110232867846,.206561784814767-.060263923591265,.309824522532836-.019858109689267,.101746821166671-.039643033287575,.203508393017728-.059737437603872,.305208692793713-.014094846857006,.071335447356432-.02856186484405,.142597141288206-.043040229511462,.213855431215961-.010473270021066,.051547970754655-.021302825818566,.103022188085561-.031857791941547,.15455427348752-.019772442249632,.096536425355225-.019995404526526,.193746843548979-.009904233979796,.291309008845928,.004141254815295,.040040167114967,.00804876800612,.080103027590667,.012239097216479,.120138656032395,.002254018135318,.021536000109336,.004649586114283,.043060653537395,.007417041554618,.06453538156984,.001993895479245,.015473468571145,.00261484258408,.030752908900467-.000759376611313,.046162836059921-.013470495747242,.061528511163488-.009551352208291,.123136449093181-.000373305796529,.184733040341598,.005016651236474,.033669005860247,.010509295731936,.067274470307893,.014979036955992,.101017229592799,.006363785912072,.048036173056062,.020271128869354,.09360217370704,.041802873973211,.136994150322607,.022056529088331,.044451756599301,.047081633535527,.087159528363372,.074481881934844,.128479601069557,.01796917100728,.027097008355668,.036524681743686,.053804825561201,.054699227673154,.080766808416229,.006054305194084,.008980897831862,.012451280147616,.017838116844359,.017452046031394,.027401099399867,.011891321451003,.022736478935258,.016317094286933,.046235454817179,.007364279488684,.07157599698985-.013533186158384,.038309798295813-.031433142413334,.074067728086447-.058080822210286,.104971547842069-.024989078735416,.028979422696466-.056124654445739,.048285800033227-.093380346098456,.057457322101982-.067591893702229,.016642176691676-.135131592673133,.033501074984997-.202819082161113,.049744983180972-.033114436837423,.00794721521379-.066605867143153,.013859970565136-.10071086921198,.01622575350666-.040153350255423,.00278447546134-.080245995768564,.006449453351706-.120359348973579,.009800128183997-.00767744787845,.000641087463919-.015494743597628,.001156226770945-.020879027291812,.007939272537442h-.130132812459124c-.005520160196284-.002445209706821-.010822464121702-.006008067469338-.016599626637799-.007134792870602-.021245525080303-.004142673150454-.042791737201696-.006795527115173-.06396521086026-.011246829983065-.063566375030859-.013357312606786-.127012758912315-.02728876726087-.190495452172399-.041044348362448-.00301736608526-.000653568813505-.005906231010158-.001880145004179-.008901187399715-.002660796641976-.030386978446586-.007924521852146-.052044388039576-.026679450503252-.065940667983341-.05434606223389-.005526400870622-.011004011014847-.010731123341429-.022517487996083-.013709343377741-.034392924093481-.012565881623232-.050108076965444-.016118527373692-.100524783647415-.005856589281393-.151825396761524,.005802408880299-.029006654730438,.01358027488368-.057258755188741,.024571520882091-.084530502428606,.010016566120612-.024852634898707,.01398024538139-.049886816690559,.013636724621392-.076870358238011-.000491594944833-.038624101354799,.00033699641881-.077670299233432,.005542286224227-.11586322671792,.007304142081011-.053592642630974,.017878113893858-.106841480834191,.029342516480938-.159741975937322,.017397014628841-.080275497138246,.031869705956524-.16105819090717,.039295257521189-.24275883115115,.006161247660202-.067791878950629,.012635096376471-.135750554109109,.010475823024535-.204075727056988-.00053754900182-.017012078484186,.000594282405473-.034071813027367,.000586623395975-.051108854208906-.000019289356715-.042223268495945,.00727435704448-.083289175552636,.020989090096009-.123028655626513,.005139762723047-.014892518515808,.007771625329042-.029547891403126,.008621775385109-.045201772198197,.004028639009448-.074211830932654,.008929554101996-.148377140474622,.01340780533701-.222565143378233,.004575832688715-.075806039581039,.008563623647206-.151651792545636-.003461872303888-.227162818427132-.008802187610854-.055270816716984-.010490857376681-.110745873687847-.00985771258911-.166652104529021,.000578113385018-.051047582132924-.001772351537511-.10222111242274-.00509352500012-.153192671795296-.00311863521074-.047862568839264-.008558801307117-.095605997531493-.014131723569335-.143266595453497-.007009695715169-.059947918532089-.014333410820655-.119884490383811-.023097303383111-.17959526328741-.009887213959701-.067360705082137-.021647764914633-.134444551152228-.032368959910855-.201684981418111-.010722329663622-.067243834269902-.021111917914823-.134540997939439-.03174801280511-.201798448225418-.014019675096279-.088655020889746-.028524137129352-.177235153686524-.042097320338144-.2659582546612-.01216988246415-.079550444236702-.024432807710582-.15911336982299-.03459744801512-.238933865061881-.006446616681387-.050625485609089-.011954579195844-.101466558151515-.012532408914012-.15270930319457-.000631159117802-.055964098912227,.006927432279554-.111248531646197,.01227030058817-.166702029923727,.003709797279043-.038504961205945,.009524120175229-.076803412822301,.014156402600747-.115222139254001,.007412219215439-.061472912428144,.014279514086411-.123011635604598,.022016815706593-.184442565314384,.00754355704521-.059890050460126,.016102642020087-.11965301809505,.023835404967031-.179520375194443,.011896427457941-.092103277176648,.024033404547481-.184183860992562,.034955152125804-.276405143648844,.006020265152074-.050835399202697,.008470013531223-.101905674698173-.002141118661712-.152671859147631-.001579741630849-.007556889395346-.002220545427008-.015315749708861-.003180190953572-.022996317924481-.007483419637538-.059901397140493-.015266391647856-.119766484903266-.022311829407045-.179718942107684-.00740994987882-.063058043732781-.013496876780664-.126236362280906-.015363689434707-.189766427933137-.00241287166682-.082110255419138-.000847880720357-.164176258784209,.001753345846737-.246247935489009,.002704481362343-.085334982095446-.001635624033952-.170453242588337-.013512194799659-.25489637557439-.010772538726997-.076593499227783-.02333444901069-.153014528907079-.037869263414905-.228983960691949-.031403924710503-.164133141396633-.063085559433603-.328197068041845-.091842870853725-.492831732728519-.025828733112576-.147869943843943-.051318767803423-.295775062398207-.074145736517494-.4441476642005-.017416871320165-.113208103416582-.035613826944427-.226272103986958-.046886470626305-.340334612465085-.007459875274435-.075482659180125-.016191146130041-.150839370202448-.02437380497031-.226250545293624-.003339895485624-.03077787159873-.006732836704032-.061551204525131-.010103651894497-.092326806788151-.004214440907162-.038472055831335-.008332151359355-.076955458343946-.012679915765148-.115412763490895-.003127428888547-.027665477062328-.006523774110974-.055299183419265-.009900262642077-.082936293779312-.000493864280543-.004040553023515-.002973681363983-.005555334907513-.006474416049969-.004244793277394-.001256077561266,.00047088725205-.003043463450012,.001483011176788-.003242314031013,.002507616451112-.001748523506649,.009012668538162-.003811066404523,.018028741081253-.004624056082321,.027146933751283-.004400526470818,.04935125335669-.007918281177808,.098787606820224-.012779766555468,.148091204118828-.007595184442835,.077032615773533-.015882516412603,.153997151462136-.024135241006661,.230962821818139-.009076777285372,.084653046581479-.018955197566356,.169224397061043-.027539528906345,.253925099700609-.007964235234795,.078587111039269-.019033773331103,.156769145574799-.031772975502463,.234639146389782-.01773599671742,.108411861452623-.038247675219282,.216370990343421-.057368817992028,.324559322184541-.020197659111545,.114281499417302-.040884360164455,.228483572070218-.060007772273821,.342946618379756-.017339430223728,.103783550365733-.034025291635771,.20765900884544-.055579446433512,.310688004939038-.006968847664211,.033311585416413-.014233560030334,.066665153550275-.01887577080106,.10034210208687-.011638290469818,.084434055642305-.018670395879781,.16930495849374-.018911512845989,.254619516564162-.000175022551048,.061960819701198,.000452165229035,.123926178074726-.0001676472084,.185881324436195-.000479964596707,.048002133013142-.000922768814235,.096082558124181-.003979280947533,.143962146985359-.003055377464989,.047860299503554-.009485257793131,.095498204064825-.014171720619743,.143260922113768-.007563697403384,.077087079840567-.0204867158036,.153409393397851-.033503344320707,.229677242887192-.005515621523955,.032316481511771-.008972387821814,.064584172296236-.006237837755179,.09705723800289,.003893897174748,.046247936164946,.008954233132499,.0924311962508,.014861315143207,.138468084154738,.006892824902934,.053719725455267,.014826424100647,.10731463742195,.023047945322105,.160850546648362,.010804593100147,.070358498142923,.022621593791882,.140561546758363,.033451149589382,.210915506228048,.008005083285752,.052002972654009,.015436591858816,.104100122758609,.022559754381291,.156231312906129,.00734357179681,.053745822820929,.009218043460351,.107970475571165,.013528363819205,.161986349394283,.008664609105836,.108584331001111,.002768022774944,.216873648301771-.006925730277544,.324832777192569-.0096889307124,.107910338162583-.026874897079324,.215025274003892-.04569563647874,.321728325331605-.025802635746913,.146282543204507-.055281596063651,.291877477553498-.086245553227855,.437154704840395-.019068097039963,.089465173897224-.032418034304101,.179804042213618-.039742316744196,.270878175444523-.005336343967429,.066354254497128-.008039690661462,.132968347983478-.010223359377051,.199522304062157-.004520801287072,.137779340631823-.007672058204662,.275601798651223-.011859267077853,.413393620631723-.002543925828832,.08371467608049-.000755688939535,.167105971760066,.009132092353866,.250450746047136,.006752126061656,.056917220097603,.014475811663942,.113657431975298,.024832494540533,.169946045957658,.010410863276775,.056580223678793,.017492326747742,.113289799517588,.015308374366214,.170792508342856-.003369680523065,.088732178319333,.007697304569774,.176329688561054,.021168934985326,.263547084997299,.012766150538482,.082651492091827,.022917742159734,.165594593880996,.03225180543177,.248636411791267,.01039214125376,.092448216272714,.024252962819446,.184034084806626,.052472441570899,.273045391472806,.010354129873122,.032659151271218,.01531830271233,.066522185372378,.011862103748172,.10087653075152-.003877728154293,.038543539920283-.010815656113664,.076634347277832-.021804916443216,.113840113534934-.013491203440026,.045677198122576-.043342902220502,.073819235777592-.090492899507808,.083099685983143-.02732337463749,.005379461355005-.054632849591144,.010854234828003-.081853536767085,.016726142128391-.04988483102079,.01076119204572-.099712644971078,.021787896422211-.149509539215614,.032950760966742-.002711573038141,.000608182090218-.004919920784232,.003461872304797-.007362577487584,.005269398551718h-.111542410678339c-.00734201162868-.002109347955411-.014571123782844-.005338613304048-.022049862914173-.006093167575273-.015393190804389-.001555629934046-.030913889934709-.001941417081071-.046392748179642-.002537117820793-.066669550388724-.002565484523075-.132621139551702-.012015000272186-.198290905531394-.022703573560648-.053397905221573-.008690422804648-.106646601591819-.018877472803069-.158831688472674-.033721200591572-.031406903213792-.008934376441175-.06155531769673-.020804139198844-.089764300768366-.037331714413995-.04673258126877-.027377271370824-.082268825283791-.065312629201799-.105786239521876-.114103356529085-.005326841122951-.011050532405534-.008896365061446-.023043973983476-.012387313234285-.03486494601384-.00841285462684-.028493784759121-.002477405913851-.055268547381274,.01180239184032-.080379886601804,.006094444076552-.010718074658143,.01377940913153-.020554512221679,.021007670285144-.030599728710513,.028034527854288-.038964501776718,.056916652762993-.07734238015837,.084104292731354-.116885562654716,.040592041300442-.05903791473429,.071722936505466-.122714352568437,.092024134079111-.191741885056217,.022304312230517-.075837810287339,.025404367251213-.152553853667087,.011628503957581-.229824749736508-.006080260726776-.034104718401977-.006393570949513-.067814572313182-.001887804013677-.101660586393336,.006535404458191-.049090279699158,.015649200289772-.097859448333111,.021292471971719-.147039366810532,.005819854402944-.050717393723062,.01206861333867-.101429114105485,.012546308598758-.152721784543246,.000492871446113-.05293566981436-.00452661646068-.105298332248822-.014103640534813-.157064159275251-.021111208747243-.114106760533105-.043816200642141-.227920776703286-.065847625200149-.341858471692831-.019976115168902-.103309259109665-.039586867217622-.206690002307369-.059958556045785-.309920969319137-.029656961371984-.150283382844464-.060186198827978-.300395430809658-.089693242180147-.450708315023803-.017882368899336-.091096826592548-.038661970901558-.181666032529392-.05196340110524-.273616129516085-.00620167021043-.042871163966993-.011455750743153-.085904585469507-.015975275528945-.128986797699326-.005815173895826-.055431939585105-.010905436724897-.110951248610945-.015487510087951-.166500059007376-.004709865355835-.057099901657239-.008538519115973-.114272422072645-.012531983414192-.171429057134446-.001511377879069-.021632446894728-.002054174720797-.043332973875295-.003646965034932-.064957478093675-.004788299285792-.065010807493309-.005236635010078-.129958073574016,.000699522870491-.194946187706591,.00492928179483-.053964813760103,.008054441346758-.108112309080752,.013900818616094-.161970464041588,.006513136597277-.060002382600032,.015129947810237-.119777831583633,.022960150378822-.179634976670059,.007428813735714-.056789002604091,.01508456108786-.11354963850772,.022531387679919-.170337506443502,.007848782757719-.059853741082406,.016003500396437-.119673442121893,.02320098367818-.179606609968687,.005352087488063-.044568627411536,.00938639983633-.089296108353665,.01401414359043-.133952105206845,.006551006144946-.063208954587026,.008353993719538-.126687960175332,.011596875085161-.190109097692584,.008077276542281-.157965085728392,.005702416256099-.315890458074136,.001641439206651-.473872563823534-.002268768820613-.088262425735593-.003625264506809-.176553218172558-.004679512983785-.264839471937194-.000685906853505-.057444840753305-.006156567154903-.114400639565247-.015155477843109-.171033057975364-.012142508596298-.076417625675276-.025242960717151-.152682071160598-.037306326215003-.229111043516241-.007480582967219-.047393950923833-.013705797540752-.094981930089489-.020662873023866-.142458711783547-.011668926507809-.079628736333689-.02360336534548-.159220028621348-.035180809239137-.238862380972932-.010687438621062-.07352195274143-.020827541728067-.147122197580757-.031622490148948-.220628264969491-.01079438108718-.073499259380696-.022384731831153-.146882782616558-.03308933230619-.220394523345931-.007805949038811-.05360625864796-.014815077419371-.107330522775555-.022043196739105-.161019612192831-.007228970321194-.053694762757914-.014126333896456-.107433777570805-.021462246683768-.161112654975113-.010062094676869-.073627476873298-.019683087138219-.147299205800664-.0259156770544-.221376011232678-.004673555977206-.055546541059812-.011157191203893-.110990961992684-.014010881419381-.166627141830759-.003490380839139-.068042640597014-.005245712354736-.136232788042435-.005513494021216-.204367336753421-.000279837514427-.07124013523844,.000701650372321-.142548350560901,.00371930012443-.213718136378702,.002819792005539-.066501761346444,.009002031025375-.13286225651791,.013762814611255-.199281187095949,.003764686846807-.052519813963045,.007781553674249-.105022607905994,.011381571816855-.157553768550315,.002964604019326-.043262057120046,.006194153033903-.086524114240092,.008052881178628-.129840068094381,.004187067039311-.097585425992293,.016334539808668-.194365804984955,.027902622690817-.291227312744013,.007526678858085-.063021734354152,.013962516192805-.126177926874334,.021923063756731-.189142927824832,.006987853354076-.055270249383284,.014743593330422-.110463908670681,.0233673543853-.165502685766114,.01317491471309-.084085145208519,.027280682750643-.168025052902522,.041197103052582-.251992759965106,.010373986564446-.06259339715416,.021266658273817-.125102261536995,.031562778242005-.187708707374441,.007282016053068-.044279854386332,.013905215454542-.088667502239332,.020906826659484-.132993878015441,.012815792267247-.081134440873029,.032852328511581-.160650845067721,.054182670030968-.239856350209266,.02453946650985-.0911217892899,.050236719958775-.181940622203911,.07389015253284-.273289912443033,.016283479744743-.062887276186302,.029617106156365-.126533077983368,.044998524779658-.189662605804187,.004085230579221-.016766990179349,.005841696762218-.033463063603449,.005824393074363-.05055683818955-.000283808853055-.280391232605325,.000156867861733-.560785301880969-.001225016023454-.841170861145656-.000396566492782-.080491651407101-.003498039848637-.16115747436379-.009833742725277-.241389854115369-.010865723343159-.137598928407897-.034654606919503-.27323488104139-.073038158640884-.406032461480208-.040826775759342-.141250857614068-.076167573197381-.283915511653504-.110797784752322-.426769655261523-.016038107773966-.066159091586997-.031901618496704-.13236016589417-.048060284752864-.198490323446094-.001059638150764-.004336134057667-.003798443222877-.008320521011228-.006121534277554-.012253280567165-.000658958485474-.001116513388297-.00254761350061-.001784265551578-.00398850012516-.002068499905363-.001034249952681-.000204240253879-.002979780205351,.000259271656432-.00328543141859,.000961063861723-.001828801273405,.004199973888717-.003631788847997,.008464623857435-.004841770519306,.01287280933775-.024570386214691,.08951339729083-.049073968846642,.179046083938374-.073561666124078,.268582174589937-.05142769593931,.188041732455531-.103740716645916,.375807740568234-.163957409678915,.561300441187996-.028307486444646,.08719924174693-.043108947847031,.177101830187894-.051321391723832,.268460765106283-.00667191921184,.074222610279321-.00828102037849,.148459403910238-.008306266743602,.222797182998875-.000027373867852,.080644264264265-.005116076526974,.161083720939132-.011121520077722,.241346736728701-.01230625538301,.164472974486671-.047502949975751,.3243272825639-.103617746992313,.479565193568305-.021049653003502,.058232867732841-.042733301796034,.116125335042852-.068181850186193,.172639747973335-.060471426016193,.134291370962274-.107511147749392,.273521952064584-.15076441119254,.414120942868976-.04824147706131,.156813964964385-.089532828480515,.315517152276698-.129818083900318,.474506275944805-.015960099342919,.062988261645842-.032060472026387,.12595496459744-.049405079173994,.188569353111234-.006249397186366,.022559470714441-.009912743991663,.045387857763671-.012962377199983,.068343894970894-.004774825102686,.035942880687799,.002505843533072,.071068233024562,.011124711331831,.10563986733996,.005220395073593,.020940299368704,.012912451803459,.041319505372485,.020313324338531,.06165275731837,.045518982842623,.125055740146308,.089772030694803,.250518826132065,.126718028879623,.378453786524915,.012937627251631,.044799532365687,.020971999157155,.090295183596027,.025120842065007,.136725233987818,.00385652404475,.043159369659406,.009652479500801,.086144567769225,.014503611032524,.129216000652377,.007277264630829,.064611404330208,.014324049808238,.129250040694387,.021764990309748,.193842155666971,.004251033951732,.036902809880303,.008654751676659,.073797109750558,.013764729363174,.110588722159264,.007706594665251,.05548526898383,.010208112274995,.111228107621173,.004118845121411,.166807554055595-.003182247540281,.029046368113086-.011360935041921,.05762865698216-.01844005825933,.086132653754248-.004207774732095,.016942863730947-.014551408925399,.030752908900467-.028354504253002,.041519774286826-.024027589372963,.01874131263412-.053278126822988,.018023067741524-.076648034211757-.001976591790481-.005837938175318-.0049959435446-.011191089413842-.01076232671403-.01589116825744-.016849820948664-.029597745881802-.038334760994076-.052316353793685-.080076930225005-.065582254703259-.127072612654047-.012249521980266-.043394245951276-.01780329671783-.087929967988202-.025383801393218-.132127558938919-.007327544610234-.042724224451376-.015339364987994-.085245343317183-.027496127851919-.126924538469211-.007417892556077-.025433017620344-.017743265684658-.04951578022883-.031533312329884-.0720792222819-.001366991366012-.002235863446003-.004930877422339-.003333654811286-.00767833433747-.004467188220588-.00331879775149-.001368977034872-.005714968522625,.00020026891616-.007007851880189,.003911200863513-.00050485637712,.001448971134778-.001252957224096,.002811707495312-.001832347111304,.004237417934746-.011793030828812,.02899757738578-.018377651515038,.059018058042966-.0181366763818,.09045290245831,.000248988725616,.032492922397978-.001265332198273,.065038606860981,.007183725430878,.097005043271565,.002342947746911,.008865161687936,.002522579886318,.018427009576044,.002784440003779,.02769497843201,.001032264283822,.03654312010076,.012885361603367,.06936339423828,.030940519176511,.100940072164121,.040721748045144,.071219711212507,.080264859624549,.143114549931852,.120266873524997,.214746145656136,.003019635420969,.005406693388977,.005603841967059,.011070956431467,.008843815745422,.016336950978257,.029295569589522,.047616345867027,.032095079403007,.099416212935466,.023273744269318,.152659377798955-.003305997277494,.019954272808718-.01109634462955,.038579849298912-.024157437951544,.054655826618728-.020731236774736,.025515281055959-.049289555780888,.031727588780086-.078657815043698,.015453044546121-.010683183615583-.005920698027694-.020419912220859-.013908761292441-.029610120855068-.022056812756091-.008067667322393-.007151812891607-.014995596018707-.015652746127671-.022035431354197-.023891571036984-.074461103326939-.087140239006658-.148824164239159-.174363308783541-.223275161927631-.261511490466546-.008043271958741-.009414341037882-.01602495271527-.018948956892018-.024787852443296-.027671150402966-.090103850191554-.089684164835489-.148219120215799-.197616061692315-.180853025121905-.319592880010532-.036383326922078-.135989969073307-.073839176683578-.271718964489992-.105065133581775-.409041033886751-.002431702280774-.010693679294491-.005726975615289-.021018591464781-.01624930451726-.026897306774117v-.065066406228652c.007452671683495-.004067217723787,.010927480755527-.011107833143797,.01203321036428-.018819037397407,.002412443949652-.016824858251312,.004415957513629-.033738220612577,.005771143456514-.050679949676123,.005677163242581-.07097405557397,.011052506994019-.141971939177893,.016541517005862-.212961312770858,.000477482510178-.006174863677188,.001114691714065-.012341217344328,.001445598156351-.018524023697864,.003061644733862-.057207127791116,.007202234704891-.114384186877942,.008863641410244-.171632730054625,.003513504134389-.121067381854118,.020850385788435-.240327804795015,.042984072306353-.359144572517835,.006787761731175-.036437028634282,.01161574780599-.073380686565542,.01485211369436-.110310728480727,.010544647735514-.120326443598969,.015114886865376-.241009172975282,.020415612892975-.361658996976985,.002852511223864-.064925707387374,.009066308199181-.129703340590822,.013767193720923-.194547919210891,.004029383634588-.055581715771041,.008018114239349-.111166835545191,.012117439523536-.166743445309294,.001821567764637-.024695483370124,.00389088321208-.049373379385543,.005809482827317-.074062054746719,.001079618946278-.013892308605136,.002394911997726-.027775539866525,.003062805994887-.041689407164995,.002672870219612-.055676460554423,.00633790129632-.11133987242647,.007409985338199-.167051507692122,.001937020241712-.100659809148056,.007418974036227-.20115509142579,.012723706860015-.301644700362885,.003261975702117-.061791754157639,.009893968780489-.123403663425051,.01485191867414-.185109182809356,.004094768882169-.050963049361599,.011818419026895-.101403016738914,.020838409720454-.151694342598603,.01699761146574-.094772016494971,.04324737735169-.186689775441664,.08210509622495-.274968653863652,.045494693855289-.10335804983697,.089458685014506-.207352081130921,.128950381947107-.313205833403117,.030948497311329-.082955583136936,.053497117762163-.16809596965777,.065518004123987-.255696316568901,.00630212379383-.045926257766041,.010947348527225-.092166251255549,.012589922403095-.138697854440579,.002238983783172-.063426243523281,.005757412199273-.126840573032496,.010414763698464-.190135762392856,.003177425200192-.04318319768845,.009272755736674-.086149673774344,.014001130365614-.129220539323796,.004222028998811-.038458439814349,.008304883866913-.076932197648603,.012549251643577-.115388368127242,.003565091640667-.032300596158166,.006896264366333-.064634097691851,.010993089834301-.096868883101706,.010924796999461-.085956212868041,.022567307016288-.171821652289509,.033240172243495-.257808501195541,.00972109146096-.07831819470448,.019400164745093-.156660217438912,.027466732857647-.235159108035077,.005535832799069-.053870919977271,.008425619641457-.10801869896477,.01223760796438-.16206095382131,.005336982218978-.075660518400582,.010173930399105-.151357062512943,.015742739489724-.227000277224761,.002612502331431-.035487027787894,.006289961570474-.070899451148762,.009733962851897-.106321519187986,.021210208537013-.21815071722267,.103873260060027-.412520209878494,.228977507266791-.590349929638251,.028544206571496-.040574028445008,.060704600306053-.078223733587038,.094188229769316-.114846564119944,.087078257763096-.095242052745562,.193942502874961-.157608232618259,.317699473573157-.191548707815855,.037228885119475-.010210027026915,.075086801854013-.018658198197045,.113119882973479-.025232748704184,.029523496039474-.005104020679028,.056332440536607-.015452193544661,.082583553840777-.029214582655186,.105510940679778-.05531535243972,.211336893585212-.11002961446502,.316994206446907-.165065838556984,.126246148793143-.065761390426815,.251821283251047-.132851760839003,.378950345641897-.196857819750221,.05300218973025-.026685123842981,.088074638168109-.065044847535319,.108499372728147-.120435371734857,.026873195078224-.072878028608102,.048962629541165-.146766195471173,.058474693867538-.223924333900868,.003208699489733-.026027867359517,.003599167141147-.052506056113089,.003735610977856-.07878652895397,.000233032455981-.044908602333635-.000362526450772-.089716502876399,.006477394553258-.134393632922183,.003024741426998-.019757266063607,.002019141843448-.040157037926292,.002487334259058-.060273426436652,.000517266809766-.022223750797821-.004299399178308-.043424881990177-.017041296187017-.061699562376816-.027321530801601-.039185478385662-.038742816002014-.08401536312158-.047256656086574-.129808581054931-.009895440302898-.053223875505864-.018714647934758-.106647594427159-.028045874535565-.159976710396222-.001331391155873-.00760865862685-.002408049327641-.015316458876441-.004498675260038-.022725415920831-.003436625938775-.012179810810267-.009181450414872-.022988091581283-.021133192941306-.02916650109546-.002746889581431-.001420178932676-.005384283694184-.003053108129279-.008063235024565-.004603348390447-.047027878636072-.027213879167903-.073773990889094-.069015051138194-.087691545858434-.12049210513851-.008931114271036-.033034017237696-.012281221769626-.066959599917027-.017173910518977-.100600097241113-.009574612903634-.065830747013024-.018299784918781-.131794250190978-.026462728900697-.197815834190806-.002840357864443-.022972560811468-.004100406764337-.046279919622066-.004078564404153-.0694323962407,.000028366702281-.030089979077275,.014119100387688-.053234654852531,.039621900094971-.069313965260335,.00130954879387-.000825683776384,.002541798326092-.001895179356325,.003969636268266-.002394646060566,.019405802627261-.006787371688915,.024228992956523-.019596994197855,.020630534982956-.039725651306981-.006528738284032-.036520710405057-.010904160223618-.073452099738461-.015342981741924-.110312714149586-.003708804444614-.030797160956354-.009875867279334-.06101670494445-.017234047927559-.091114626698072-.005869070630069-.02400652709639-.010894799211201-.048141413519261-.013934716824224-.072858384666688-.009726658426189-.07908799607867,.004271174309906-.153986301198529,.035898770465792-.22633241868607,.025007091590851-.057201631742828,.05947447827657-.108526462929149,.098344518935846-.156935870865709,.055676318721453-.069340098084467,.119750174049841-.129375926799185,.196557558209861-.175242357418028,.07415765053247-.044283865614489,.153929638711816-.071680911679323,.239550273495297-.082417129946407,.012170733465609-.001526126347926,.024930359661994-.0009228663248,.035659781002323-.008574172514273,.03718080355975,0,.07436160711859,0,.111542410678339,.000000004431968,.005677028058017,.001901156309032,.011337319761878,.005392957699769,.017033920844369,.005453766601022,.049002626590664,.000523068687471,.098013763192284,.00067365376708,.147016389782948,.000247167052294,.007300454410142-.000063539196162,.014569989114534-.0037113186645,.021853707170521-.005700938085283h.130132812458214Zm-.215701252510371,.065535502832972c-.055271100384743-.000916532571864-.101737743822014-.002310831320756-.148202685258184-.002244404482553-.032491220395059,.000046450473747-.065311778201249-.000455742093436-.097406148436676,.00372904674532-.088937553240612,.011596644605561-.170865978100665,.042954783686582-.244278435373417,.094940355142171-.09524659141789,.067446939855472-.169041006332009,.153995449459217-.224857314728069,.25610316599159-.008138974118992,.014889079052409-.014843869621473,.030646781977339-.021201556692176,.046410193700467-.028654056624873,.071045858788239-.034055218507092,.144015582760403-.017068386388019,.218676387667983,.003774757026804,.016590194710261,.007722125434157,.033142236205094,.011355190784343,.049763137869377,.014905567199094,.068193693284229,.020688261221949,.137718564973511,.029878647147598,.206742764373303,.001009287255329,.007580362841509,.000630308117252,.015444747285983,.000061981244471,.023115670822335-.001233100533682,.016643240442136-.009650493831941,.029362089505412-.023700379466391,.03781557943239-.009243715326193,.005561788331761-.01981130463173,.00895153829606-.028946375488886,.014658067723758-.008051462843468,.005029629003729-.013806499331622,.012993084154004-.013800542324134,.022986247745393,.000008368177078,.013887273516048,.00013360716548,.027904750193557,.001937871242262,.04163941085335,.011288954535303,.085940469347406,.022983552908045,.171828034796818,.034720701334663,.257708934071161,.003145867243802,.023018160284664,.007850768427488,.045699040483669,.015660121469409,.067703658508435,.010219671706182,.028795890134461,.027248344710642,.05189787402287,.054130900800374,.067155613825889,.005383290858845,.003055377465898,.010847001319235,.005971332590889,.016194691967939,.00908670563058,.013852169721758,.008070326700363,.023952133945386,.019907467751182,.030629230080194,.034084861710653,.005232238171629,.011110102479506,.009435048730666,.022976319399277,.012129176247072,.034949053285345,.004411305817484,.019603802205893,.007136920373341,.039582895878993,.0107295631733,.0593754784868,.008843035660902,.048718534070758,.017675433809018,.097439479311106,.026709802874393,.146122696838574,.005132245547429,.027655690550091,.014079387004131,.05397686960805,.03030712618056,.077228487850334,.021271622445965,.030478461059829,.029357267165324,.0646396291977,.028209550405336,.101099493028414-.00107226133332,.034045573827825-.002543358495132,.068130010037748-.005551647235734,.102045380704112-.002057153224087,.023196586839731-.003413081576582,.046257864511063-.002922053966358,.069542955461657,.001145447424278,.054313724193889-.001789371557607,.108358673886869-.012431423455382,.161807355505516-.014557791432708,.073117159905451-.036232079213733,.144078308630014-.066128455549915,.212329728152326-.020508416330813,.046819808876535-.053637745686501,.082901402736752-.098776401973737,.107495049645877-.009513198993773,.005183447445233-.019148516639689,.010144216279514-.028756744085513,.01515150650448-.063144420339995,.032905657911215-.126300045526477,.065789757129096-.189445600534782,.098692862036842-.166096684504737,.086547374936345-.332416614954127,.172670951345026-.498113187128183,.259977702891774-.037564746869975,.019793149942416-.076755614928516,.032159329983187-.118164049910774,.039706574700176-.030402580132431,.005541151555917-.060779630232901,.011820972030364-.090591331963878,.019900092407624-.116440630935358,.031557388568217-.215912371690138,.090959531755288-.297401609087501,.180748937055796-.118425094486156,.130486828898029-.203034952763119,.280236634079301-.258308464316542,.447009297091427-.03188005980337,.096189216923449-.045306374412576,.195929093928498-.053519882040746,.296323958081302-.007702197825893,.094145112381739-.013735015242673,.188455318969318-.018690181654165,.282787651583931-.004309823941185,.082048416009457-.013572048540482,.163589919055084-.022587979249693,.245128018096693-.00935505463076,.084605106854724-.022303390313027,.168806555540868-.03268836897405,.253306421931484-.010952170866403,.089115128795129-.020735775447065,.178373225768155-.031022605319777,.267570050665199-.004079415405613,.035373277311919-.008442639663372,.070716485920457-.012139813759859,.106129476615024-.00626925387769,.060050038659028-.012797814869373,.120036535906365-.015766922102557,.18043435033087-.003799897016506,.077298695437094-.006160112991893,.154701780337746-.015954532377691,.231675393371006-.010198290304288,.080147279645644-.027368832277716,.158552276458977-.053177673240498,.235020394863568-.032191136147048,.095377929248571-.070791480387925,.188274339411691-.110340939017988,.28077815441975-.017034204511219,.039841600200816-.035050712453085,.079279258566203-.051355254473492,.119414170465461-.047017613435855,.115736711226418-.070071781702609,.237232997614228-.083180726104729,.360724597815533-.007516573220528,.070809528702739-.013022674170315,.141900455088944-.016992133147141,.213001593487206-.005179901606425,.092784078024124-.009423808424799,.185671410842588-.011376714019207,.278571225009728-.002574207283942,.122453378910905-.014332949861455,.244278151706567-.021716961938182,.366396803534371-.002616721878439,.043276240471641-.006522089837745,.086472486843377-.009474726654844,.129730572624794-.004956691120242,.07261818961797-.011018956720363,.14519836785621-.014078784211961,.217901657580114-.004494349337619,.106787584099948-.009437814484045,.213498010771218-.01917670605053,.319970724480299-.00325052264543,.03553723684945-.008439590242233,.07070343723808-.015233752210406,.10563930000626-.013304922854331,.068413677056924-.0244580983981,.137160379195848-.031575977622197,.206477819377142-.006645715470768,.064718630463176-.011256616495302,.129606893804521-.011463932763945,.194740245449793-.000039376527639,.01237071871401-.001250847451047,.024748812769758-.002167490830288,.037104780798472-.004582560915878,.061774734136634-.0093884918806,.123533582920572-.013843837003151,.185317394401864-.00467808578469,.06487294532144-.008362299844521,.129825317409086-.013830043694725,.194629615312806-.002907649000008,.034461571512111-.000116250290375,.068050015938752,.008462044260341,.101267423903664,.032495856578862,.125831285777167,.064553358966805,.251781144368579,.098030960505639,.377351456487304,.030082656921877,.112837066954853,.083870639753513,.212707147121364,.167236369942657,.295682019616834,.009859485508059,.009812609532673,.018888003941356,.020496644148807,.027896452932509,.031120541358177,.051087650100271,.060250874908888,.101860323433357,.120769531483347,.153134839181803,.180861552861643,.027146082749823,.031812688885111,.05494839369112,.063072794417167,.08280694161931,.094267089200002,.005035727844188,.005638165676828,.011697364126121,.009861400260888,.017783865526326,.014509000705402,.003037364609554,.002320396219147,.01025903050504-.00003404004201,.012099178459721-.003681997910462,.002071903909382-.004106363772735,.004611007399035-.008085644719358,.005972538175229-.012425750115653,.013180162553908-.042016758905447,.009556812799019-.082451790511186-.011886853694705-.121111066575395-.039046126962603-.070393672852333-.078042647654001-.140813443070329-.117153557072015-.211171941212342-.006017783064635-.010824733458321-.012749804226587-.021252333089251-.01877592000983-.032073662543553-.018308755888938-.032875872873774-.030989487196166-.067436727842505-.0314120446792-.105686388731556-.000085241939814-.007718012261648-.000111587513857-.015712883535343-.002050451591458-.023084822033525-.010408203898805-.039576655205565-.007752832389087-.079953251404731-.008441469536592-.120165320733577-.000674702005199-.039396810314429,.007971185076713-.07684085686742,.022724103961082-.113024287187727,.008178758417671-.020058662271367,.016445063570245-.040142287240997,.025996096653216-.059563266053374,.008698720064785-.017687773324724,.010429337091409-.038798272904387,.025668603080703-.053223308172164,.004330957133789-.004098988429178,.00700810008766-.000415288515796,.036084182320337,.050548895513202,.010741228979896,.018826980074664,.02155553767534,.037611977429151,.032407786833573,.056375416091214,.020306799997343,.035110034317768,.034914091324936,.072530252841716,.043740887049353,.112023509943356,.007420658309456,.033202089945917,.013809548752761,.066647566194661,.02004759925785,.100098148450343,.006240887176318,.033467034942078,.011339376348587,.067146252815292,.017640613682488,.100600806408693,.008420797303188,.044707056916195,.025570596124453,.085900046797178,.051879081083825,.123131910420852,.003563354180187,.005043599603596,.007600786866533,.00975701079733,.011512980563566,.014546444751431,.003295785264527,.004034879683786,.009410369700163,.005719861778744,.012209454012918,.003356348172929,.002268130569973-.001915319714499,.00553228696208-.003703556604705,.006300102666501-.006182806353536,.011480358856716-.037087760777467,.019442892089501-.074715623559314,.020699040567706-.113821958846529,.001702356699752-.052993537885413-.007058982859235-.104976086514398-.01290592746227-.157258187515254-.004645331108804-.04153565964134-.009719212166601-.083023095888166-.014514815879011-.124542870175901-.004615971572093-.03996414435278-.009133227022176-.079939068053136-.013667998910023-.119912857085183-.005059839540991-.044600965451536-.010378170652984-.089176400871111-.015056974470099-.133817647039905-.005168767675968-.04931607864728-.011104287305898-.09839728100178-.026455849974809-.145901862063511-.020931009273227-.064767988525091-.040417727917884-.13001367231027-.062095774285808-.194526360517557-.020202623284604-.060122090082587-.042472540889321-.119549763300711-.063811888836426-.179290037574901-.009888029501781-.027681362415933-.019169578916262-.055419458235519-.025321465564957-.084360302216737-.012850966977567-.060455682497377-.009872179607555-.119818112300891,.00633772400397-.179168060756638,.017527678750412-.064174557120168,.034558621091492-.128496053756862,.050855575019341-.192993991279764,.040179022121265-.15901351903176,.081620220644254-.31765600160179,.129799787378033-.474492092593209,.045021998224911-.146555998210715,.096089366133128-.290722952784563,.157385412174335-.431445055074619,.073804059592476-.16943884932698,.13071617368405-.344148799207687,.152342805405169-.528917014259605,.006662983701062-.05692573010856,.013453546643177-.113811746833562,.015602182481416-.171086954709608,.002961554598187-.078943396815703,.005001687802178-.157921968340816,.007357400563706-.236887491184461,.001800860072763-.060367745720214,.003095800016126-.120672517363346,.00998968867043-.180858148857624,.007590291186716-.066265183052565,.017442046768338-.131986292763031,.035439158977169-.196208505942195,.012519289315605-.044674718877104,.026732425319096-.088882521839878,.040576085030807-.133178261577996,.057243366252806-.183158688384538,.107632415400985-.368268438528503,.157967142314192-.553398612697492,.024354941113415-.089577506036221,.049044892976781-.179064238626779,.073925894577769-.268497074484003,.003708662610734-.013330647907424,.007326835442655-.027360251349819,.014471840326223-.038910605043384,.01217030796397-.019674577128171,.026996732063708-.037722040232438,.041050589036786-.056191599862359,.001413512757608-.001857451642536,.005508246182217-.003110125199782,.007780135339999-.002497971771845,.002538677989833,.000684204850586,.004905311931907,.003510663031193,.006448176850427,.00596892142039,.001590946477336,.002534848485084,.002333444900614,.005692629744772,.00304927862453,.008673402783643,.028904250935739,.120348569627822,.057163868570569,.240855992785328,.086781825727485,.361027554192333,.036281153606978,.147207865021301,.072971071390384,.294310773244433,.114928402054829,.440060589786299,.027014177586352,.09383988666923,.045670531948417,.189648989787202,.057905657826268,.286437311455302,.01223682788077,.096805341690015,.020027884400406,.194099157986784,.020324741935838,.291830388827293,.000620947105745,.204480236227027,.001459183147745,.408960472453145,.001919291053127,.613441276013873,.000212608430957,.094495724818444-.000217288937165,.188993151638897-.00043514520803,.283489443791041-.000053471232604,.023215876196446,.000627471446933,.046488485798363-.004864747547799,.069350345554994-.016262772052869,.067693162828618-.031440943256712,.135665454004084-.048904194135503,.203046583111245-.023286367450964,.08984925904042-.048464084754414,.179207206804676-.072568973389934,.268845984917789-.021705491152716,.080715181017695-.041953359326726,.161765656453099-.054470450222652,.244540827366109-.008792826598437,.058147767627815-.017206532225828,.116362480671341-.026877733749643,.17436557811925-.018833646248822,.112953370432479-.038914860048862,.225700231275368-.057507814831297,.338691613088486-.009295910057517,.056491719568839-.016934495554779,.113271644829183-.02444174322136,.170037386737931-.007712197088949,.058313996501056-.014471131158643,.116755075826404-.021427922974908,.175166653781162-.008055434181188,.067636429424965-.017392192289662,.135166200049753-.023413450276166,.202987580370973-.007804956203472,.087911813299797-.013013366345149,.176056233554846-.019094478072475,.264117823039669-.004374287272185,.063343412753966-.008278538292871,.126719730881632-.012519218398666,.190072788313955-.004654124786612,.069534161783849-.010917067073024,.138995137476741-.013889897435547,.208599081347529-.006484769895906,.151832204770471-.002266641317874,.303553212069346,.00922031279697,.455063171105394,.002692283680517,.035509437480869,.006056290862944,.070983700252327,.009901539143357,.106388748270547,.005014098233914,.046166240064849,.010535818599237,.092284824069793,.016350708829123,.13835915601976,.006977499508139,.055286702070589,.01428334359116,.11053255609022,.021837112649337,.165744370066932,.007552918056717,.055203871300364,.015595019888679,.110343066520727,.023408486103108,.165511763110771,.007596602777994,.053638029354261,.0149196087159,.10731690675857,.022824273877632,.160909549389544,.010614536196044,.071962918803365,.021896540889429,.14382598681641,.032476753377523,.215793444292103,.010805585933667,.073503798053025,.020898316648527,.147111985568699,.031691563068307,.220616918289124,.010792395417411,.073500394048096,.021871436359106,.146961074713545,.033184077090482,.220383176664654,.010840335144167,.070358498142014,.021764352059108,.14070678427197,.033337399114316,.210946142266039,.013857133894817,.084101597894914,.025907734377142,.168289430564073,.025174171464641,.253868366296047-.000318416228765,.037158110198106,.000843909382638,.07435820311548,.002336707072573,.111497023955963,.006099408249611,.151740296655589,.005811628058837,.303555481405056,.005861978954272,.455367262149593,.000041273551687,.123986315483307-.004957364830261,.247751370691731-.017292908833042,.371166948131759-.00338726787777,.033889131466822-.00650462658723,.067812302976563-.010435258640427,.101639027699093-.007146706885578,.061504683134444-.01438262704869,.12300482759656-.022383029828234,.184402851931736-.007399596033792,.056787867936691-.016232561515608,.113388515640509-.02373512867689,.170165036895924-.008922320592319,.06751955861273-.017859108203083,.135056137246465-.025347633847559,.202743626734446-.005616323315735,.050767319117767-.010048194992123,.101721858469318-.013092651277475,.152707033857951-.007871476120272,.131815525217462,.001862415815594,.263173779198951,.012460073824514,.394446933075415,.004983887696653,.061733886085676,.010341932191295,.123443944142309,.016353261831682,.185084787445703,.005708798764317,.058537526112559,.011924368658583,.117044416186218,.02323218705078,.174854620060614,.013663956654455,.069853570847044,.027240402034295,.139725296384313,.04103470368409,.209553904534005,.019793008108536,.100192325900935,.039845287872595,.200333591737945,.05960879461054,.300532725646917,.020659894519667,.104743479559147,.0411034929366,.209528941836652,.06165247365152,.314295114757442,.017273193975598,.088066128158061,.034658720091102,.17610956295357,.051815468755194,.264199519141584,.015677283324294,.080493353409111,.031833680244745,.160905010716306,.046403669359279,.241599200375276,.009633899310757,.053357766339104,.014609702497182,.107232941320945,.01485110313115,.161686797022412,.000282248684016,.063728632566381-.005901125004129,.126830928353229-.013820115349517,.189833373349757-.005983672105685,.047602729850041-.013386955810347,.095030720816794-.020459625603507,.142491617157248-.003229265348637,.021673294945685-.002398830149104,.042884779984888,.001288841101996,.064608000326189,.005172809931537,.03047491522193,.00938526516893,.061324270909608,.010893380876951,.09216454925263,.002821210340699,.057689929058142-.006444914679378,.114211149996663-.022013979036274,.169688476304145-.019830168487715,.070662589187123-.051108854208906,.136198748000425-.091596789713549,.197136097095608-.025693991278786,.038670622745485-.053687812915996,.075812847589987-.080673340133217,.113624526600688-.009891043464449,.013858835896826-.01998235584324,.027579242288994-.029733835133811,.041535659640431-.007490936814065,.010718074659053-.009448948414502,.023049647324115-.007227551986034,.035537804184059,.001600165655873,.008997917852867,.004465344384698,.018031010416962,.008327329019266,.026322030058509,.021880371870793,.04696845039507,.058009905455947,.0797569538272,.104307483350567,.10155052358914,.029492150833903,.013882663926779,.060694388293996,.023063263341101,.092541968222577,.029977930604218,.080203445715597,.017409212311577,.160971388799226,.030656462115076,.242673163710606,.039562471853969,.066450417616579,.007244855674799,.132909487077995,.008129896774335,.199466279826083,.009030823228386,.021580110330433,.000292744363833,.043768119083325-.000171334880179,.06470586544765-.004741777895106,.068005196550075-.014844862456812,.135438945889291-.032254074767479,.204059416203563-.044380272511262,.023325088000092-.004121114456211,.038404826747865-.018288580070475,.045265029943948-.041456232875134,.02014688271538-.068046044600123,.028173524694466-.135849270232029,.004675116146245-.205298899243644-.018379920851658-.054325638208866-.029109058524227-.110690274952503-.036133221257842-.167651747105083-.006819922478826-.055303722091594-.012867986997662-.110707294973508-.020296658900406-.165928186295787-.010111027238054-.075161548114011-.022051990416912-.150082546594604-.031603058958353-.225311040125234-.006821057147135-.053723129459286-.014264479735175-.107514339003501-.013285828517837-.161940962671906,.00033415974849-.018584728439237-.000186085564565-.037189880903497,.000388907483284-.055764397330677,.001590520977516-.051381174547714-.005390808035372-.101861422642287-.01394734000678-.152356421421246-.008789138927568-.05186454314935-.01522072125772-.104125085456872-.023705201805569-.156045227341565-.007016503724117-.042934705380503-.008049619008489-.086324412659451-.012065209334651-.129482647650548-.005037642596108-.05414522598403-.004610723732185-.108274566615364-.0018117812524-.162484468680304,.001757033517606-.0340286956407,.003575622778953-.068075545970714,.004268904974197-.102136012317715,.003435774938225-.168815916552376,.007921968849587-.337593254390413,.019567634661144-.506076713195398,.002880638581701-.041677493150928,.006899632911882-.083366332981313,.012662895744143-.124734061746494,.010037841146186-.07204688424099,.024869087586012-.143259787445459,.039740898409036-.214470421314218,.018029875749562-.086332355334889,.035044507237217-.17289164428621,.051279905422234-.259580285397533,.013956984685137-.074520460650092,.026811639334483-.149262181575068,.038998825486487-.224094675946617,.008954516799349-.054984880361189,.01693009871542-.110162654295891,.023733284840091-.165452760370499,.008136421115523-.066125051545896,.011805370344518-.132604119531607,.013168390371902-.199261330404624,.002666753649464-.130374496759032-.004550018989903-.260109040722455-.023723072827124-.389078818401686-.011605952429818-.078070837063933-.023827745958442-.156064516699189-.037094001451806-.233868706764952-.020304601577664-.11908454938839-.035270022517579-.238856707632294-.048802641342263-.358844452811354-.002795254808916-.024781150809758-.002919784629739-.04938302406299,.001001628244921-.074079074767724,.008980614165921-.05655979965286,.018286878069375-.11308102059138,.026190408562798-.169795135103413,.008331584024745-.059785660996567,.017071648558158-.119614439380712,.022234104642848-.179716672771065,.007288256728316-.084856152167049,.011224987622882-.169905197906701,.010213714698693-.255256065355752-.001265438573682-.106826730148896-.002349613921069-.213713597706374,.009027419223457-.320325875588424,.00543137241948-.050895536610369,.012586305648256-.101439326117543,.023214741529046-.151371529530479,.027722494133741-.130236067253463,.048155880538616-.261744097421797,.070467426277901-.392931016524017,.01089791954837-.064074706329848,.021409484617834-.128216358076315,.032759285728389-.192210502971648,.013781111134449-.077705473943752,.02866540330615-.155215784977372,.042330778295764-.232940548277838,.014469854657364-.082302014324341,.028894889925141-.164630126015254,.041768266596591-.247190844661418,.009059189929758-.058098409565901,.015779545285113-.116572394265859,.022990360916992-.174945393506277,.004554841329991-.036872173842312,.008102664740363-.073869161173207,.012081094686437-.110811684437067,.005469667467878-.05079228181512,.011014790361514-.101577755623111,.016348581326383-.152384788123527,.004364500759948-.041574238354769,.008512563583281-.083172304740401,.0126731077562-.124768101788504,.004777236273185-.047758179376615,.009710205738884-.095502742737153,.014118391220109-.143294962155778,.004408469147165-.047799027427573,.00764567717215-.095710386995052,.012486171190176-.143462893031938,.007028701405034-.069339566208328,.013437023039842-.138699556442589,.017376306936967-.208304634981687,.001835609282352-.032434486991406,.003717456288541-.06520880707285,.010006921441345-.096951713871022,.006281238809606-.031700356746114,.018078382810018-.062310297469594,.027539812573195-.093372970755809,.000431741203101-.001416633094777,.001415782093318-.003071546485444,.002623919928737-.00372057662571,.001015244262817-.000545775345017,.002797524144626,.000014750685295,.004119128788261,.000451030560725,.001371530038341,.000453299897345,.003438611608544,.00107282866702,.003767665351006,.002085519926368,.013866211239474,.042694723081695,.024784271146927,.086185415819273,.030559164326405,.130675751133822,.005179476106605,.039904006945108,.008196842190955,.080088276905371,.012164209123512,.120148868045362,.004120263456571,.041601470388741,.007788078016347,.083254000841407,.012455251485335,.124794199154167,.007604829122101,.06768748948798,.016199939807848,.135264916172673,.023747751858537,.202958079000382,.007719997931417,.069236311413988,.01451694338266,.138574742954006,.022021638045771,.207836017065347,.008004515952052,.073875969182154,.015867765728217,.147773497057642,.024730941748203,.221548480781166,.006830134491793,.056852544016692,.014455103971159,.113630199940417,.022916891158275,.170262618350534,.01029058846143,.068873217628607,.021750168708422,.137573965710544,.032851477510121,.206325773854587,.010608295522616,.065697281680514,.020950795047611,.131441084751714,.032236487412774,.197022630288302,.013646085632899,.079299682591227,.027939783069996,.158491571715786,.042359144998045,.237655094138972,.016637638018437,.091343049564784,.033298253065368,.182684964462169,.050717961056762,.273880507176727,.019451614850368,.101831921272606,.039759336765201,.20346754496768,.055074802806303,.306078983209773,.012601056333551,.084427247633357,.018766275331473,.169258437102144,.022199497267138,.254373293590106,.000934399161451,.023160844795711,.000227500949222,.046521391172973-.001635907700802,.069637983913708-.009749068120982,.120915903666173-.003671785898405,.241553813652899,.007128552196264,.361961386020084,.0056659650445,.063168106535159,.015315182374252,.125982196631412,.023348065028586,.188933581564015,.003134520563435,.024564429207203,.006612845554628,.049085741027739,.010209743360065,.07358776349065,.008865445355696,.060390439081857,.004222099915751,.120616351293393-.002970844693664,.180661851280092-.006810845134169,.05685935202564-.01552367763361,.113488366430829-.022714352907315,.170305735738111-.010689424289922,.084463557011986-.020735208113365,.169009944793288-.031129618702835,.253512080519613-.009071387611584,.073743213017224-.01827070904892,.147470540680843-.027362520685529,.221211484362357-.003978146279223,.032267690784465-.007331374114983,.064618212338246-.01183288604534,.096811015029743-.012297248955292,.087940180001169-.013004998168981,.176092542932565-.002809154492752,.264104207022683,.007657591187126,.066095550175305,.017763512418242,.131926722688149,.027751144502872,.197728393832222,.013701968035093,.090275326903793,.028382303620674,.180400877621651,.042533316547633,.270606989774024,.013671331997102,.087151585687025,.026495634274397,.174441600879618,.040964354263451,.261458161066003,.021073339199575,.126735616234328,.04167352181139,.253500733839246,.055932044539077,.381248473999221,.007732195613244,.069274890128327,.015437159192516,.138493046852091,.017766065421711,.208209322862785,.000568752373511,.017025694501172,.0023135882102,.034015079623714,.002790148801978,.051040774124886,.000692714861543,.024755053444096,.002059422560706,.049598610998146,.000734413913051,.074276507012655-.002090058597787,.038917980386032-.000109495468678,.077619239169508,.006196138703672,.11579855063701,.006092883908423,.036892597868246,.008468027861454,.073862353165168,.008756800887568,.111021598031584,.000542371340998,.069710602670057,.00037018546027,.139422340007513-.007693900565755,.208845871654376-.001606122663361,.013828199858835-.00201148283395,.027807310571916-.002680085998691,.041730822549653-.002004958492762,.041776209272939-.003934461558856,.083553553214188-.005747944813265,.125337705163474-.000674276504469,.015539279319455-.002226786101346,.030800564960373-.007948349882099,.045510401915635-.017085831908844,.043921866606979-.022757186627132,.089827133013387-.022992346585852,.136609497843892-.000389474817894,.077447904289329,.000456136566754,.154935521962216-.009687512377241,.231988561760772-.005250676528703,.039886986924103-.008385480758989,.080123451615691-.015298729687856,.119707482162994-.011175913227817,.063994144896242-.02477519380227,.12756505859943-.037176832221121,.191347020565445-.014205193328053,.073056738830019-.026634914781425,.146347219283598-.022354379459102,.221230773718162,.001446701798159,.02531104080208-.003456198964159,.049173110469383-.01210095137867,.07268456770089-.006935942289601,.018862722118683-.014011165086231,.037736790917734-.019622666062787,.057012532216504-.014125199228147,.048522945660807-.015364256769317,.097557626624621-.004129340801228,.146934977347883,.007537032704022,.033126634519249,.024050140901636,.055018920404109,.060695097461576,.060930541087146,.04268025606325,.006885165893436,.084661556591527,.018090013158144,.126964819186469,.027335288652466,.048385083489848,.010576241149465,.096798250014217,.020837044572545,.146255878503325,.025484645017968,.02480724817633,.002331742898605,.04931466031212,.002233026775684,.074121624821601-.000447059223006,.046176452076907-.004991404872271,.092448783606415-.009376896990943,.138780401543045-.012569852960951,.038739837497815-.002669873985724,.076980988374999-.007899559154794,.114672959904055-.016943998399256,.067686071152821-.016241638859356,.13527597918619-.032881546214412,.202900210928419-.04938075472819,.029784753363856-.007266414367223,.053327130301113-.023907456389679,.072104468646103-.047847818154878,.01545276087927-.019700107159224,.026160056190747-.042056472288095,.035975786061499-.064796355226463,.007220743977086-.016727276796701,.005663695707881-.032981397005642-.005285000237564-.048369765470852-.015258165303749-.021446361330163-.029923750204034-.043318223189999-.044653443849711-.065136755649291-.036416037275558-.053944389735079-.070579758417807-.109186839750691-.099005463091999-.167887758065262-.019708900837031-.0407005439356-.034334772354669-.08307472328579-.041478075235318-.127580943953035-.008826866641357-.054996227042466-.015183560877631-.110385049239085-.023506918559178-.165467511055795-.007015652722657-.046427213722382-.006808008464759-.092492468327691,.001725546478156-.13869501777026,.003080623830101-.016678486069395,.005103169678478-.033549865712303,.003282027414571-.050812705841054-.00536215766715-.05082405252233-.010403487935037-.101688953094708-.01485053579745-.152600375058682-.004446196860954-.050898940615298-.008318819009219-.10185234529763-.011786364653744-.152827308674205-.000941774504099-.01384408521244,.000084249105385-.027871986652826,.000892132776244-.041776209272939,.004048495699863-.069691313312433,.014535665404765-.138446525461404,.029293725753632-.206668443614035,.014393548228327-.066535801389364,.027901488022508-.133266765687949,.041322909375594-.200009076666902,.017082144237975-.084948060281931,.033704747905176-.169989163344326,.05049046010754-.254997361033929,.020083057635929-.101709377119732,.040458292301082-.203363155504121,.060100815055193-.305157632730698,.020815769546971-.107874028783954,.041887690412295-.215714017525897,.060989827494268-.323897810695598,.012374690052638-.070081639131786,.021887463545681-.140685225577727,.031778648843101-.211181018557909,.006236419420929-.044446083258663,.011635453800409-.089047616044809,.015900954769677-.133724036923013,.004706886851636-.049303597298604,.011522554325893-.098350759611094,.014319511136819-.147922138575268,.002961200014397-.052485206587335,.007099050825673-.104962470498322,.014231007025955-.157230955483101,.006898781911332-.050561944195579,.011417597528634-.101481308835901,.011641127140138-.15277624861028,.000426635197073-.097856044329092-.009875583611574-.194863356936366-.021832999477738-.291669833294691-.009103441984735-.073703499633666-.021373742573815-.147018942785508-.032543698794143-.220460334094241-.013730334737375-.090274192236393-.027761072848079-.1805029977495-.041700753846271-.270744284611283-.007568236075713-.048993832912856-.012797070243323-.098193040747901-.015680829162193-.147721302326318-.003330250807267-.05719748311185-.006396123952072-.114509567700225-.012843591634919-.171401825100475-.007196064946584-.06349829494593-.007862115107855-.126832063021538-.001376919712129-.190104559020256,.007459307940735-.072771937142534,.006882896557727-.145270419278859,.000209346260817-.217992431025777-.007092526484485-.077281108082389-.00767489487589-.154716531023041-.000792849319623-.232056641844792,.004116575784792-.046260417514532,.009227120805917-.092436869592348,.01438191788111-.138596301648249,.007215637971058-.064618212338246,.014410568249332-.129244367353749,.022507559649966-.193755920892727,.007517176012698-.059892319796745,.016107464359266-.11965188342765,.024408696013779-.179444352433165,.007449663261468-.053658453379285,.014868406819005-.107322580099208,.022820728038823-.160906145385525,.007497602988224-.050518826808911,.015640832112695-.100942341498921,.023556276621093-.151398761564451,.011272360014118-.071856260004097,.022559470713531-.143710250672484,.033908704490386-.215555163995305,.010384198577412-.065735860394852,.02138934425966-.131379812675732,.031152312065387-.197206446517157,.010899337883529-.07348791269942,.020559334560858-.147158506959386,.031025796572976-.220711095738807,.013738561081482-.09655344537714,.026506129955123-.193202202872271,.036637297550442-.290232208841189,.009012101205371-.086314200645575,.016497790178619-.172646555981373,.018017110734036-.259442990560274,.000189773236343-.010836080138688,.000803061331681-.021680102954633,.001633071030483-.03248668172364,.008906577073503-.116002790890889,.008452142508759-.232158761971732,.005823116573083-.348348773095495-.000280263015156-.012383767396386-.000707465545929-.024806113508021-.001956167765456-.037120666151168-.009228822807017-.091003783810265-.011086558117313-.182422856136327-.014644026206952-.273708604963758-.003316634789371-.085114289154262-.003862977468998-.170299495063773-.008563623646296-.255422861562693-.004783193280673-.086616589688674-.010669851266357-.173051065151412-.018970231919411-.259412354522283-.007858711103836-.081760210317952-.020497778817116-.162777780378747-.032780277088023-.243880450545475-.010891395208091-.071915830078979-.022533657015629-.143717058681432-.033876082784445-.215564241340871-.010377957902165-.065735860394852-.019528204945345-.131697519736917-.031513136512331-.197140068434237-.015885353083831-.086741403177257-.033585324089472-.173158858618081-.051240192039586-.259565534712237-.037796077324856-.184980397983054-.080068703881807-.368928815349136-.129302235425712-.55122685799779-.023068653014889-.085416110862752-.037862171740016-.172341897602564-.046693577053702-.260206622176156-.005572638594458-.055444420933782-.008071461368672-.111197471583182-.011914014812646-.166814362064542-.001067722660082-.015452477211511-.00208013025258-.030909493095351-.002998076726726-.046371047652428-.002018574509748-.034003732942438-.005172668098567-.067993849868799-.005666532379109-.102021410841189-.000854405061546-.058850694500507,.000043401054427-.117725217031875,.000009928346117-.176590094883977-.000007091675798-.012351429356386,.002256003805087-.025920357559698-.001990491475226-.036795583747335-.008367893403374-.021431610645777-.005625116993542-.042656711701056-.004507185270086-.064114419712496,.001047014968208-.020102914327254,.003830072095298-.04013094056063,.004489881582231-.060237258891902,.003404571565625-.103725114959161,.013162433364414-.207168264902066,.01364750396715-.311022164688438,.000079710433056-.01703193517551,.000709734882548-.034085996378053,.001827382939155-.051081622174934,.002438401697873-.037089462779477,.003631788848907-.074373521134476,.00844902217068-.11116967221551,.008843035661812-.067543953976383,.022765980304939-.134216482869306,.039539494825476-.20028253167402,.025887735852848-.101967514107855,.051499180028259-.204004810302649,.077123389220105-.306038702492515,.047107730901189-.187580489881839,.094205249790321-.375162681766597,.141134837803293-.562787991037112,.007169683914071-.02866285030268,.017838967845819-.055859709449578,.03154859489041-.081942324544798,.001953898429747-.003717172620782,.009225702470758-.004988000868252,.011920255486984-.002168918029383,.041308726024909,.043221776403698,.043141498636942,.046597981267951,.056012038638983,.103689372915142,.000680233511957,.00301821708581,.000927023818804,.00613571762824,.001623710018976,.009149396041721,.017416587653315,.075370327040218,.033802613025728,.15099935840135,.052553854005964,.226036660360478,.030012821647688,.120103481322985,.065574737527641,.238684238084716,.101558749932337,.357112381991101,.02698779655384,.088821817097596,.054694972667676,.177424075921408,.081788293352474,.266214122312704,.022170563231157,.072657335666918,.038696436444297,.146700101056012,.049318064316139,.221843494480709,.010859340834941,.076824971514725,.014938472572794,.154178698354372,.008842468327202,.231744040789636-.006339390548419,.080670928963627-.000307495049128,.161113222309723,.00620152837746,.241324043367058,.004750287905154,.058540930116578,.013551908181398,.116795923877362,.023851290319726,.174787107309385,.014619063509599,.082311091669908,.030962255161285,.164204625486491,.051631936193189,.245208579530299,.025697962616505,.10070916720997,.061523972492068,.197865688669481,.102245507786392,.293385451427639,.046123690011882,.108191168512349,.090054066629818,.2172129140572,.126931346478159,.329046934431062,.065951447330008,.200002835993473,.123129641085143,.402384503610847,.168251419184344,.608103230044435,.015909181112875,.072533089512035,.029855953785955,.145496218225162,.045737902864857,.218035548412445,.007502992662012,.034266975936589,.004399108135658,.067830457665877-.002530309812755,.101338340658913-.00311863520983,.015082008084391-.008395976437896,.029779363690977-.013450922722768,.04438934985501-.040471340984368,.11697123009526-.080879707889835,.233965720885863-.121809454776667,.35077639544761-.025817670099059,.073678536936313-.041046617699976,.149077230677904-.040504246358068,.227402800725031,.000150343519635,.021683506959562,.000196864911231,.043406159966253-.000892983777703,.065051655544266-.0026505846281,.052644060118837-.007412786549139,.104953960487364-.024488406445926,.155450093935542-.005424280743682,.016039667941186-.008387466427848,.032953597637061-.011910043474018,.049587264317779-.011687081197124,.05518458194274-.009403561691215,.110927987914692-.005753334486144,.166635651841716,.002125800642716,.032442429667753,.005579730270256,.064797489894772,.007933599196804,.097228572882159,.002577398538051,.035518514826435,.004543210981865,.071082416375248,.006851693185126,.106621355226707,.000506629296979,.007796304359545,.008797081603916,.01230434063109,.016933219052589,.010328883508919,.016140653400726-.003919143539861,.02708622900991-.014521482054079,.035996777421133-.027499815523697,.008862325018526-.01290798404807,.013715300385229-.027681362415933,.017649761944085-.0427123104364,.014903865196175-.05692402810655,.028153951669992-.114172571282324,.034242580572936-.172854200240181,.005298899921399-.051070275494567,.015798550974978-.10094688017216,.036284983112637-.148263673666406,.015984636539542-.036920397235917,.032593907856608-.073570743469645,.049073259678153-.110275553770407,.007764533653244-.017294043501352,.020375234666062-.030887367068317,.034549508288364-.043042498847171,.00174341750062-.001495492526374,.006387613942024-.001937445742442,.008179254835341-.000693849529853,.023407067768858,.016247312199994,.041056829712034,.035823173205245,.048013479694418,.065352342585356,.00888558571387,.037719770895819,.016878187650946,.075459398483872,.02212716217673,.113842382870644,.008492990559716,.062113999892063,.005108275684506,.123588046988516-.009267401521356,.18448908670598-.011473196264888,.048601237757794-.030363717751243,.094314745258998-.056587031686831,.136727503323527-.03272042334811,.052920919129065-.058464907355301,.109050679580832-.080120047611672,.167217169231662-.004317979369262,.011597442418861-.009650919332671,.022829521716631-.013675019668881,.034520006917774-.009065430604096,.026332242072385-.018091147825544,.052698524185871-.026112116464901,.079358685332409-.003065873144806,.01019272333906-.00375575133603,.02118652234094-.004700929844148,.031888711646388-.000392595155063,.004452437536202,.00117551612766,.009143155367383,.002206362076322,.01364438363089,.002230757439975,.009739990776325,.013598429572994,.013987053389428,.021504229402126,.008064086026025,.019888462060408-.014901595860465,.037975638548232-.031591428611137,.054055587206676-.050706047042695,.083758928135467-.099559181113364,.166083635822361-.200329053064706,.255572637748628-.294979660076024,.056454275521901-.0597107729036,.092246812688245-.131375274003403,.113372062953204-.210490573032075,.011175913228726-.041851097365907,.022055678087781-.083782756165419,.032915018922722-.125717818968951,.024435644379992-.094361266651504,.048855970741897-.188727639309036,.073115174236591-.283134292682917,.009687228710391-.037697644868786,.014112434211711-.075914400383226,.012431990789082-.114987262961222-.002462797061526-.057258187855041-.004043957027534-.114558925763049-.005552498236284-.17185342299581-.004117710453102-.15639697444567-.007885375804108-.312803593569697-.012158535782874-.469195462008429-.000420394522735-.015369646442196-.002363513605815-.030868645045302-.005330103294-.045967105816999-.011335901426719-.0576978717354-.023197154173431-.11529589267866-.035205346436669-.17285930624621-.016149730745383-.077421239589967-.026990916891009-.155588523440201-.031736098790134-.234492206873256-.004555124996841-.075756681520033-.007684539554248-.151599597814311-.011483975611554-.227402233391331-.000465781245111-.009281584873861-.001233951534232-.018548419061517-.001809795582631-.02782489792844-.004983462196833-.080377617265185-.009860265592579-.160762609873018-.014961733269047-.241132851795555-.0040223983342-.063367808117619-.008083375382739-.126736183568937-.012552265606246-.190073922982265-.004468322887988-.063334902743009-.011017059696314-.126561444684739-.013888337266508-.189961023508658-.004974384851266-.109855726581372-.01009173788043-.219735281192698-.008910548412132-.32979354602594,.000515139307026-.048003267681452-.000819797685836-.096032065394866-.001661721398705-.144043275752665-.00073526491451-.041942438147089-.00774524429653-.083181382085058-.014856776471788-.124387987983027-.009509085822174-.055102885841734-.025764340698515-.108306904656274-.04489030581135-.160734243171646-.049861286657688-.136678712596222-.105301736252841-.271175458480684-.158526179092405-.406540792777378-.019806198624792-.050374723963614-.039051871219272-.101067722323023-.055918144855241-.152479532908728-.03198345643159-.09749238321001-.053095658013262-.197238217222548-.054462933046125-.300395998143358-.000390325818444-.029429318588882,.000767602954511-.058910264575388-.000539534670679-.088289657768655-.002685192004719-.060326897670166-.005790211198473-.12065719934435-.010183645994402-.180879707551867-.003491373674478-.047853491494607-.00918570542035-.095545292789211-.013849758552169-.143314818847102-.004213022572003-.04314915764644-.007825238396435-.086364693375799-.012651549062866-.129444636269-.007584688763927-.06768862415629-.016497506511769-.135230308796963-.023852424988945-.202942477315446-.006700214997181-.061684811691521-.017348507569295-.122579894401497-.033329172771118-.182499162564454-.009995858427828-.037475817259292-.017376874270667-.075545349590357-.022017666707143-.113876139246713-.007629508152604-.063003012330228-.01418335096696-.126219909593601-.018390700198324-.189532402641817-.005338613304048-.080347264894954-.007916579175799-.160878346016943-.011604817761508-.241333971713175-.000993401901724-.021663933934178-.001411527087839-.043356234570638-.002594985892756-.06500825448984-.002370888947553-.043387721610088-.008641064743642-.086231937210869-.018489983654945-.12857009084928-.039544884499264-.169983773670538-.114414822916842-.323283104265101-.218813363379923-.462533542059646-.01391443463308-.018559765740974-.02903218476149-.036317888486337-.044670180204776-.053465276138922-.048621661783727-.053314932618377-.105174086093939-.095898174561626-.17218673174284-.123626625702855-.034302434314668-.014193846646776-.068530547870068-.028721285708343-.103484848994412-.041149305159706-.049669244085635-.017660257623902-.100390609147325-.031493563488766-.153550943240589-.03412741176362-.023490182204114-.001163602113593-.04569506914504-.007883390134339-.066763586005436-.018229860997963-.00972211975386-.004774115936016-.019236595249822-.009970328395866-.028862268217381-.014942443911423-.141649409776619-.073169070969925-.283533979512868-.145887111378215-.424874475905199-.219647628083294-.098779096810176-.051549389090724-.198908448633119-.100552583015087-.295532810764598-.156215994887134-.020292120228078-.011689917867443-.039922161634422-.023780089898537-.055494346328487-.04147155089413-.020904840989715-.023749453860546-.033838922404357-.051437907952277-.041125193462904-.082162450151372-.011065566757679-.046664075683111-.023437420139089-.093024627655723-.034063586684169-.139784724625315-.009595036929568-.042225112330925-.018594373117594-.084527240257557-.023589749328494-.127753271666734-.007305560416171-.063215053427484-.009794454844268-.126696186518529-.011725659911463-.190100587681627-.002569739528553-.084367393892535,.008458099515337-.166805852053585,.046558267884393-.243938460451318,.006733971372341-.013632185948154,.011183004903614-.02913402122158,.013164135367333-.044234751328986,.006040689176189-.046040291907957,.012277675930818-.092147529232534,.010927137252111-.13882734843537-.000357987778443-.012368165710541-.000525634986843-.024880859767109,.000890998107934-.037133856667424,.003617605497311-.031287763066757,.017268513469389-.055955588902179,.048370049136793-.067948888646242,.004327624047619-.001668813074502,.008561637978346-.003578175782422,.012860044322224-.005324288119482,.024388271988755-.009906361483445,.040315324123185-.027900637021958,.050225231444529-.051902412696109,.008319670009769-.02015042855237,.013563538529525-.041097252262261,.017051791866834-.062528153740459,.01193528983913-.0733204073249,.023955963450135-.146627482298754,.035622904289085-.219990723343471,.004618099074833-.029039205520348,.008625463056887-.058182516837405,.012392277407343-.087345401178027,.00097382887725-.007539160206761,.000734413913051-.015442336116394-.000387205481275-.02296355438375-.000625485778073-.004195080632599-.003271815401604-.009371294568155-.006657381277364-.011612405854066-.007686808889957-.005087922575512-.016755643498982-.008051746511228-.024612368933049-.012926776988934-.017056897873772-.010583332824353-.026077792756041-.026271962829924-.025776254714401-.046446715829006,.000207644257898-.01391209438043,.001131831407292-.027862483807439,.002640939950652-.041696924341522,.004700646177298-.043090651323837,.009620566960621-.086160098537221,.014856209137179-.129188981368316,.005420025738204-.044546855967383,.010653114911293-.089132432482984,.017141714311947-.133529512264431,.0103277488397-.070666525066372,.00415884217-.138510917874555-.027138707408085-.203884641860895-.06701831898954-.139987440168625-.166938324551666-.248582905100193-.304084804062768-.321870832551213-.090769474852095-.048505039180782-.187588999892796-.07074752529752-.29083301558785-.064758264064949-.043273971135022,.002510355610866-.08669856945744,.002424603957479-.121276728114026,.003297531588942Z"/>
  </g>
  <g id="male_kol">
    <path d="M6.343140918145764,6.513861939274648c-.00445711192242,.018490103817385,.697896720343124-.344361766461589,.734382734733117-.348801619928963s.017889079921588,.400226519706848,.037808449362274,.4050009261382c.019919369439776,.004774406432261-.669621694286434,.237036682414328-.675340935224995,.237735468690516-.005719240937651,.000698786276189-.092393136947067-.312424878716229-.096850248870396-.293934774899753Z" fill="none" stroke="#f7941d" stroke-miterlimit="10" stroke-width=".053104512934716"/>
  </g>
  <g id="male_boyun">
    <polygon points="4.161398853972969 3.218630554788433 5.260662232304639 3.218630554788433 5.276593585613227 3.36732318567374 4.149007801399421 3.36732318567374 4.161398853972969 3.218630554788433" fill="none" stroke="#f7941d" stroke-miterlimit="10" stroke-width=".053104512934716"/>
  </g>
</svg>