<?xml version="1.0" encoding="UTF-8"?>
<svg xmlns="http://www.w3.org/2000/svg" viewBox="0 0 80.46 228.67">
  <g id="Male">
    <path d="M42.7,16.05c.05,.06,.12,.08,.19,.09,2.99,.41,5.49,2.68,6.56,5.28,.3,.73,.42,1.49,.29,2.29-.19,1.19-.29,2.4-.43,3.59-.01,.1,0,.18,.1,.23,.05,.03,.1,.06,.14,.08,.37,.21,.49,.55,.46,.94-.02,.28-.08,.55-.12,.83-.1,.62-.19,1.25-.29,1.87-.08,.48-.15,.95-.24,1.43-.05,.24-.12,.47-.21,.69-.17,.43-.47,.75-.89,.95-.07,.03-.13,.07-.2,.09-.12,.05-.16,.15-.17,.26-.01,.15-.01,.3-.02,.44-.02,.54-.05,1.08-.13,1.61-.04,.3-.12,.58-.25,.85-.2,.4-.32,.83-.39,1.27-.03,.18-.05,.37-.06,.55-.03,.76-.02,1.52,.06,2.28,.05,.44,.05,.89,.15,1.33,.09,.38,.17,.76,.25,1.14,.1,.42,.2,.83,.31,1.24,.03,.11,.06,.21,.09,.32,.1,.31,.31,.55,.59,.71,.35,.2,.71,.41,1.07,.6,2.55,1.33,5.11,2.65,7.66,3.97,.05,.03,.1,.05,.15,.08,.27,.17,.58,.24,.9,.28,.24,.03,.48,.06,.72,.11,.61,.11,1.18,.31,1.75,.54,.24,.09,.48,.2,.72,.3,.89,.38,1.64,.94,2.29,1.64,.21,.23,.42,.48,.61,.73,1.27,1.7,2.2,3.57,2.69,5.64,.16,.69,.27,1.38,.29,2.09,.02,.98,.07,1.97,.13,2.95,.05,.82,.13,1.63,.22,2.44,.05,.48,.13,.96,.26,1.42,.19,.72,.33,1.45,.41,2.19,.11,.98,.22,1.95,.33,2.93,.1,.92,.21,1.85,.29,2.77,.07,.87,.17,1.74,.14,2.61,0,.13,0,.26,0,.39-.03,1.2,.18,2.37,.51,3.51,.19,.64,.42,1.27,.66,1.89,.63,1.61,1.26,3.21,1.89,4.82,.28,.73,.52,1.47,.67,2.24,.08,.44,.15,.88,.19,1.32,.06,.76,.07,1.52,.07,2.28,0,.76,0,1.52,.02,2.28,.01,.56,.05,1.11,.08,1.67,.05,.76,.1,1.52,.15,2.28,.06,.82,.11,1.63,.17,2.45,0,.09,.02,.18,.02,.28,.05,.91,.1,1.82,.14,2.73,.04,.82,.07,1.63,.13,2.45,.07,1.11,.23,2.21,.47,3.3,.12,.56,.24,1.12,.35,1.69,.03,.18,.04,.37,.04,.55,.01,.82,.02,1.63,.03,2.45,0,.18,0,.37,.08,.54v6.24s-.07,.04-.08,.07c-.08,.55-.24,1.09-.38,1.62-.29,1.11-.58,2.23-.88,3.34-.29,1.1-.81,2.07-1.6,2.9-.81,.85-1.56,1.75-2.31,2.64-.21,.26-.44,.51-.64,.77-.22,.28-.5,.5-.76,.73-.55,.47-1.23,.11-1.37-.51-.07-.3-.05-.59,.04-.88,.07-.23,.14-.46,.22-.69,.21-.55,.42-1.11,.66-1.66,.16-.37,.37-.73,.57-1.08,.21-.37,.41-.75,.54-1.16,.22-.7,.32-1.41,.24-2.14-.03-.22-.04-.44-.08-.66-.06-.36-.1-.46-.16-.43-.15,.08-.16,.24-.22,.37-.18,.39-.34,.79-.43,1.21-.07,.33-.11,.66-.15,.99-.08,.65-.23,1.28-.39,1.91-.05,.21-.14,.42-.24,.62-.23,.44-.6,.7-1.08,.8-.43,.09-.82-.16-.91-.6-.02-.11-.02-.22-.03-.33-.02-.65-.04-1.3-.11-1.95-.07-.67-.07-1.34-.03-2,.02-.34,.07-.67,.18-.98,.25-.71,.3-1.45,.33-2.19,.01-.28,.02-.56,.02-.84,.02-.9,.21-1.77,.51-2.61,.49-1.4,.98-2.8,1.46-4.21,.09-.26,.18-.53,.19-.81,0-.24,0-.48-.05-.72-.45-2.26-.98-4.5-1.61-6.71-.67-2.34-1.45-4.64-2.42-6.87-.5-1.14-.92-2.31-1.23-3.52-.25-.95-.46-1.91-.61-2.89-.11-.66-.23-1.32-.29-1.98-.13-1.22-.19-2.44-.11-3.67,.05-.78-.01-1.56-.11-2.33-.15-1.11-.43-2.18-.77-3.25-.67-2.11-1.31-4.22-1.88-6.35-.24-.9-.43-1.8-.64-2.71,0-.03-.04-.05-.06-.08-.02-.02-.1,.05-.12,.11,0,.02-.01,.04-.02,.05-.53,2.11-1.06,4.21-1.58,6.32-.28,1.1-.55,2.2-.83,3.29-.21,.83-.37,1.67-.47,2.52-.04,.29-.04,.59-.05,.89-.05,1.24-.08,2.49-.17,3.73-.03,.37-.03,.74-.05,1.11,0,.06-.01,.11,0,.17,.09,.5,.03,1,.03,1.5,0,.52-.01,1.04,0,1.56,0,.37,.04,.74,.06,1.11,0,.17,.02,.33,.03,.5,.05,.76,.09,1.52,.15,2.28,.11,1.22,.34,2.42,.66,3.61,.5,1.86,.94,3.74,1.33,5.63,.21,1,.42,2,.61,3,.15,.77,.26,1.54,.38,2.31,.18,1.1,.35,2.2,.52,3.3,.17,1.08,.33,2.17,.44,3.26,.06,.63,.1,1.26,.14,1.89,.13,1.98,.15,3.97,.23,5.96,.03,.72,.09,1.45,.13,2.17,.04,.67,.04,1.34,.01,2.01-.06,1.28-.1,2.56-.17,3.84-.03,.59-.1,1.18-.16,1.78-.04,.41-.09,.81-.15,1.22-.1,.81-.21,1.62-.32,2.43-.12,.88-.24,1.77-.37,2.65-.12,.79-.25,1.58-.38,2.36-.13,.84-.27,1.69-.4,2.53-.09,.59-.18,1.17-.27,1.76-.1,.68-.2,1.36-.29,2.04-.1,.72-.2,1.43-.29,2.15-.1,.79-.19,1.59-.27,2.38-.06,.57-.11,1.15-.17,1.72-.06,.63-.05,1.26,0,1.89,.11,1.17,.12,2.34,0,3.51-.05,.46-.04,.93,0,1.39,.07,.7,.12,1.41,.17,2.11,.05,.85,.14,1.7,.27,2.55,.13,.86,.27,1.72,.41,2.58,.1,.6,.21,1.21,.29,1.82,.1,.81,.21,1.62,.29,2.43,.09,.93,.1,1.85,.09,2.78,0,.58-.1,1.15-.17,1.72-.02,.18-.04,.37-.06,.55-.04,.59-.08,1.19-.13,1.78-.03,.33-.07,.66-.11,1-.14,1.16-.27,2.32-.46,3.48-.14,.86-.31,1.72-.47,2.57-.24,1.24-.48,2.48-.72,3.72-.24,1.22-.48,2.44-.72,3.66-.17,.86-.34,1.71-.52,2.57-.13,.62-.26,1.24-.38,1.85-.24,1.16-.24,2.32-.12,3.49,.05,.48,.1,.96,.15,1.44,.03,.26,.06,.52,.09,.77,.02,.19,.03,.37,0,.55-.16,.74-.11,1.48,0,2.22,.06,.4,.13,.81,.18,1.21,.08,.58,.24,1.12,.5,1.64,.26,.53,.56,1.05,.89,1.54,.22,.33,.44,.65,.66,.97,.07,.11,.15,.21,.21,.33,.14,.27,.2,.55,.09,.86-.16,.46-.38,.89-.7,1.26-.3,.35-.67,.58-1.12,.69-.81,.2-1.62,.4-2.43,.6-.4,.1-.8,.17-1.21,.19-.48,.03-.96,.08-1.44,.12-.09,0-.19,.01-.25,.1h-1.56c-.07-.03-.13-.07-.2-.09-.25-.05-.51-.08-.77-.13-.76-.16-1.52-.33-2.29-.49-.04,0-.07-.02-.11-.03-.36-.1-.62-.32-.79-.65-.07-.13-.13-.27-.16-.41-.15-.6-.19-1.21-.07-1.82,.07-.35,.16-.69,.29-1.01,.12-.3,.17-.6,.16-.92,0-.46,0-.93,.07-1.39,.09-.64,.21-1.28,.35-1.92,.21-.96,.38-1.93,.47-2.91,.07-.81,.15-1.63,.13-2.45,0-.2,0-.41,0-.61,0-.51,.09-1,.25-1.48,.06-.18,.09-.35,.1-.54,.05-.89,.11-1.78,.16-2.67,.05-.91,.1-1.82-.04-2.72-.11-.66-.13-1.33-.12-2,0-.61-.02-1.23-.06-1.84-.04-.57-.1-1.15-.17-1.72-.08-.72-.17-1.44-.28-2.15-.12-.81-.26-1.61-.39-2.42-.13-.81-.25-1.61-.38-2.42-.17-1.06-.34-2.13-.5-3.19-.15-.95-.29-1.91-.42-2.87-.08-.61-.14-1.22-.15-1.83,0-.67,.08-1.33,.15-2,.04-.46,.11-.92,.17-1.38,.09-.74,.17-1.48,.26-2.21,.09-.72,.19-1.44,.29-2.15,.14-1.1,.29-2.21,.42-3.32,.07-.61,.1-1.22-.03-1.83-.02-.09-.03-.18-.04-.28-.09-.72-.18-1.44-.27-2.16-.09-.76-.16-1.51-.18-2.28-.03-.98-.01-1.97,.02-2.95,.03-1.02-.02-2.04-.16-3.06-.13-.92-.28-1.84-.45-2.75-.38-1.97-.76-3.94-1.1-5.91-.31-1.77-.62-3.55-.89-5.33-.21-1.36-.43-2.71-.56-4.08-.09-.91-.19-1.81-.29-2.71-.04-.37-.08-.74-.12-1.11-.05-.46-.1-.92-.15-1.38-.04-.33-.08-.66-.12-.99,0-.05-.04-.07-.08-.05-.02,0-.04,.02-.04,.03-.02,.11-.05,.22-.06,.33-.05,.59-.09,1.19-.15,1.78-.09,.92-.19,1.85-.29,2.77-.11,1.02-.23,2.03-.33,3.05-.1,.94-.23,1.88-.38,2.81-.21,1.3-.46,2.6-.69,3.89-.24,1.37-.49,2.74-.72,4.11-.21,1.24-.41,2.49-.67,3.73-.08,.4-.17,.8-.23,1.2-.14,1.01-.22,2.03-.23,3.05,0,.74,0,1.49,0,2.23,0,.58-.01,1.15-.05,1.73-.04,.57-.11,1.15-.17,1.72-.09,.92-.25,1.84-.4,2.76-.07,.39-.11,.77-.07,1.16,.05,.55,.11,1.11,.18,1.66,.08,.64,.18,1.29,.28,1.93,.13,.84,.27,1.69,.4,2.53,.1,.62,.19,1.25,.27,1.87,.09,.64,.11,1.3,.16,1.94,.1,1.3,.03,2.6-.08,3.9-.12,1.29-.32,2.58-.55,3.86-.31,1.75-.66,3.5-1.03,5.24-.23,1.07-.39,2.16-.48,3.25-.06,.8-.1,1.6-.12,2.39-.05,1.65-.09,3.31-.14,4.96-.03,1,0,2,.11,3,.08,.68,.17,1.36,.3,2.04,.12,.68,.21,1.36,.18,2.05-.04,1.06,.09,2.12,.25,3.16,.15,.99,.27,1.99,.39,2.98,.12,1.11,.29,2.21,.63,3.28,.12,.39,.18,.8,.14,1.21-.05,.46-.13,.92-.26,1.37-.16,.55-.52,.89-1.09,1-.33,.06-.66,.13-.98,.2-.6,.13-1.2,.26-1.79,.4-.03,0-.06,.04-.09,.06h-1.34c-.09-.03-.17-.06-.26-.07-.18-.02-.37-.02-.56-.03-.8-.03-1.59-.14-2.38-.27-.64-.1-1.28-.23-1.91-.4-.38-.11-.74-.25-1.08-.45-.56-.33-.99-.78-1.27-1.37-.06-.13-.11-.28-.15-.42-.1-.34-.03-.66,.14-.96,.07-.13,.17-.25,.25-.37,.34-.47,.68-.93,1.01-1.4,.49-.71,.86-1.47,1.1-2.3,.27-.91,.3-1.83,.14-2.76-.07-.41-.08-.81-.02-1.22,.08-.59,.19-1.17,.26-1.76,.07-.61,.14-1.22,.15-1.83,0-.63-.05-1.26-.17-1.88-.25-1.37-.53-2.73-.79-4.1-.24-1.24-.47-2.48-.72-3.72-.36-1.8-.72-3.6-1.08-5.41-.21-1.09-.46-2.18-.62-3.28-.07-.51-.14-1.03-.19-1.55-.07-.66-.13-1.33-.19-2-.06-.68-.1-1.37-.15-2.06-.02-.26-.02-.52-.04-.78-.06-.78-.06-1.56,0-2.34,.06-.65,.1-1.3,.17-1.94,.08-.72,.18-1.44,.28-2.15,.09-.68,.18-1.36,.27-2.04,.09-.72,.19-1.44,.28-2.15,.06-.53,.11-1.07,.17-1.61,.08-.76,.1-1.52,.14-2.28,.1-1.89,.07-3.79,.02-5.68-.03-1.06-.04-2.12-.06-3.18,0-.69-.07-1.37-.18-2.05-.15-.92-.3-1.83-.45-2.75-.09-.57-.16-1.14-.25-1.71-.14-.96-.28-1.91-.42-2.87-.13-.88-.25-1.76-.38-2.65-.13-.88-.27-1.76-.4-2.64-.09-.64-.18-1.29-.26-1.93-.09-.64-.17-1.29-.26-1.93-.12-.88-.24-1.77-.31-2.66-.06-.67-.13-1.33-.17-2-.04-.82-.06-1.63-.07-2.45,0-.85,0-1.71,.04-2.56,.03-.8,.11-1.59,.17-2.39,.05-.63,.09-1.26,.14-1.89,.04-.52,.07-1.04,.1-1.56,.05-1.17,.2-2.33,.33-3.49,.09-.76,.17-1.51,.26-2.27,.08-.66,.18-1.33,.28-1.99,.16-1.01,.33-2.02,.49-3.02,.12-.75,.26-1.5,.38-2.25,.09-.53,.17-1.06,.25-1.6,.15-.97,.39-1.93,.65-2.88,.29-1.09,.6-2.18,.89-3.28,.2-.75,.36-1.52,.54-2.28,.05-.2,.07-.4,.07-.61,0-3.36,0-6.73-.01-10.09,0-.97-.04-1.93-.12-2.9-.13-1.65-.42-3.28-.88-4.87-.49-1.69-.91-3.41-1.33-5.12-.19-.79-.38-1.59-.58-2.38-.01-.05-.05-.1-.07-.15,0-.01-.03-.02-.05-.02-.01,0-.04,0-.04,.01-.02,.05-.04,.1-.06,.15-.29,1.07-.59,2.15-.88,3.22-.62,2.26-1.24,4.51-1.97,6.73-.34,1.05-.52,2.12-.62,3.22-.08,.89-.1,1.78-.1,2.67,0,.97-.06,1.93-.13,2.9-.15,1.97-.57,3.89-1.24,5.75-.25,.7-.51,1.39-.82,2.07-.73,1.61-1.29,3.28-1.81,4.97-.58,1.88-1.07,3.78-1.56,5.69-.19,.76-.38,1.51-.59,2.26-.07,.27-.12,.54-.16,.82-.06,.43,.03,.85,.13,1.27,.06,.25,.15,.5,.24,.74,.55,1.5,1.08,3.01,1.52,4.54,.16,.54,.25,1.08,.3,1.64,.05,.52,.12,1.03,.17,1.55,.09,.78,.17,1.55,.26,2.33,.05,.44,.1,.89,.17,1.33,.09,.67,.12,1.33,.05,2-.04,.35-.14,.69-.22,1.03-.05,.2-.17,.37-.34,.5-.29,.22-.64,.22-.92-.02-.07-.06-.13-.13-.19-.2-.36-.46-.63-.96-.79-1.52-.15-.52-.21-1.05-.3-1.58-.09-.51-.18-1.02-.33-1.52-.09-.31-.21-.59-.38-.86-.02-.03-.06-.04-.09-.05-.04-.02-.07,0-.08,.05,0,.02-.02,.03-.02,.05-.14,.35-.22,.71-.22,1.09,0,.39-.02,.78,.09,1.16,.03,.11,.03,.22,.03,.33,.01,.44,.15,.83,.37,1.21,.49,.85,.96,1.72,1.44,2.58,.04,.06,.07,.13,.11,.2,.35,.57,.38,1.19,.28,1.83-.04,.24-.13,.46-.29,.66-.25,.31-.59,.38-.94,.19-.13-.07-.24-.17-.36-.26-.1-.09-.18-.19-.26-.29-.89-1.05-1.79-2.09-2.68-3.14-.1-.11-.19-.23-.3-.33-1.08-1.08-1.78-2.37-2.17-3.83-.44-1.63-.89-3.26-1.26-4.91-.03-.13-.07-.25-.19-.32v-.78c.09-.05,.13-.13,.14-.23,.03-.2,.05-.4,.07-.61,.07-.85,.13-1.7,.2-2.55,0-.07,.01-.15,.02-.22,.04-.69,.09-1.37,.11-2.06,.04-1.45,.25-2.88,.52-4.31,.08-.44,.14-.88,.18-1.32,.13-1.44,.18-2.89,.24-4.34,.03-.78,.11-1.56,.17-2.33,.05-.67,.1-1.33,.15-2,.02-.3,.05-.59,.07-.89,.01-.17,.03-.33,.04-.5,.03-.67,.08-1.34,.09-2,.02-1.21,.09-2.41,.15-3.62,.04-.74,.12-1.48,.18-2.22,.05-.61,.14-1.22,.25-1.82,.2-1.14,.52-2.24,.98-3.3,.55-1.24,1.07-2.49,1.55-3.76,.37-1,.64-2.02,.79-3.07,.08-.55,.13-1.11,.15-1.66,.03-.76,.07-1.52,.12-2.28,.04-.52,.11-1.03,.17-1.55,.05-.46,.1-.92,.15-1.38,.04-.39,.08-.78,.13-1.16,.13-1.03,.27-2.06,.4-3.09,.12-.94,.23-1.88,.33-2.82,.07-.65,.1-1.3,.15-1.94,.06-.91,.12-1.82,.19-2.72,.03-.43,.08-.85,.12-1.28,.25-2.62,1.25-4.95,2.75-7.08,.34-.49,.73-.94,1.13-1.38,1.04-1.14,2.33-1.89,3.81-2.3,.45-.12,.9-.22,1.36-.3,.35-.06,.68-.19,.99-.35,1.27-.66,2.54-1.32,3.8-1.98,1.51-.79,3.02-1.59,4.55-2.36,.64-.32,1.06-.78,1.3-1.44,.32-.87,.59-1.76,.7-2.69,.04-.31,.04-.63,.04-.95,0-.54,0-1.08,.08-1.61,.04-.24,.02-.48,.03-.72,0-.27-.05-.52-.2-.74-.33-.47-.46-1.01-.57-1.56-.12-.64-.22-1.28-.34-1.92-.02-.09-.03-.18-.05-.27-.04-.15-.11-.28-.25-.35-.03-.02-.06-.04-.1-.06-.56-.33-.88-.83-1.05-1.45-.11-.4-.15-.8-.21-1.21-.11-.79-.22-1.58-.32-2.37-.03-.28-.05-.56-.05-.83,0-.36,.17-.64,.48-.83,.02,0,.03-.02,.05-.03,.23-.08,.29-.24,.25-.48-.08-.44-.13-.88-.18-1.32-.04-.37-.12-.73-.21-1.09-.07-.29-.13-.58-.17-.87-.12-.95,.05-1.85,.43-2.71,.3-.69,.71-1.3,1.18-1.88,.67-.83,1.44-1.55,2.36-2.1,.89-.53,1.85-.86,2.87-.99,.15-.02,.3-.01,.43-.1,.45,0,.89,0,1.34,0,.07,.02,.14,.06,.2,.07,.59,0,1.18,0,1.76,0,.09,0,.17-.04,.26-.07h1.56Zm-2.59,.79c-.66-.01-1.22-.03-1.78-.03-.39,0-.78,0-1.17,.04-1.07,.14-2.05,.52-2.93,1.14-1.14,.81-2.03,1.85-2.7,3.07-.1,.18-.18,.37-.25,.56-.34,.85-.41,1.73-.2,2.62,.05,.2,.09,.4,.14,.6,.18,.82,.25,1.65,.36,2.48,.01,.09,0,.19,0,.28-.01,.2-.12,.35-.28,.45-.11,.07-.24,.11-.35,.18-.1,.06-.17,.16-.17,.28,0,.17,0,.33,.02,.5,.14,1.03,.28,2.06,.42,3.09,.04,.28,.09,.55,.19,.81,.12,.35,.33,.62,.65,.81,.06,.04,.13,.07,.19,.11,.17,.1,.29,.24,.37,.41,.06,.13,.11,.28,.15,.42,.05,.24,.09,.47,.13,.71,.11,.58,.21,1.17,.32,1.75,.06,.33,.17,.65,.36,.93,.26,.37,.35,.78,.34,1.21-.01,.41-.03,.82-.07,1.22-.02,.28-.04,.55-.04,.83,.01,.65-.02,1.3-.15,1.94-.17,.88-.43,1.73-.79,2.55-.25,.56-.64,.99-1.18,1.29-.11,.06-.23,.12-.34,.18-.76,.39-1.52,.79-2.27,1.18-1.99,1.04-3.99,2.07-5.98,3.12-.45,.24-.92,.39-1.42,.48-.36,.07-.73,.14-1.09,.24-1.4,.38-2.59,1.09-3.57,2.17-1.42,1.57-2.44,3.36-3.1,5.36-.38,1.15-.54,2.35-.64,3.55-.09,1.13-.16,2.26-.22,3.39-.05,.98-.16,1.96-.27,2.94-.11,1.01-.27,2.02-.39,3.04-.13,1.07-.25,2.14-.37,3.21-.05,.42-.1,.85-.15,1.27-.08,.72-.15,1.44-.19,2.16-.05,.93-.07,1.86-.19,2.78-.12,.96-.33,1.9-.64,2.82-.39,1.14-.85,2.26-1.32,3.37-.2,.48-.42,.95-.62,1.43-.56,1.39-.84,2.85-1,4.33-.09,.85-.16,1.7-.2,2.56-.06,1.11-.11,2.23-.14,3.34-.03,1.47-.17,2.93-.26,4.4-.03,.52-.08,1.04-.11,1.56-.06,.87-.13,1.74-.17,2.61-.05,1.28-.11,2.56-.23,3.84-.04,.43-.1,.85-.18,1.27-.16,.82-.29,1.65-.38,2.48-.08,.78-.14,1.55-.14,2.34,0,.15-.02,.3-.03,.45-.05,.74-.11,1.48-.17,2.22-.06,.78-.1,1.56-.17,2.33-.03,.41,0,.82,.1,1.21,.39,1.51,.77,3.02,1.18,4.53,.36,1.35,1.01,2.55,2.01,3.55,.12,.12,.23,.25,.33,.37,.61,.72,1.22,1.45,1.84,2.17,.33,.38,.66,.76,.99,1.13,.06,.07,.14,.12,.21,.17,.04,.03,.12,0,.15-.04,.02-.05,.06-.1,.07-.15,.16-.5,.11-.99-.14-1.45-.47-.84-.94-1.69-1.41-2.53-.07-.13-.15-.25-.23-.38-.22-.39-.37-.81-.38-1.27,0-.09,0-.19-.02-.28-.12-.47-.09-.96-.1-1.44,0-.47,.1-.92,.27-1.36,.1-.24,.2-.48,.31-.71,.1-.21,.13-.47,.31-.64,.05-.05,.08,0,.43,.61,.13,.23,.26,.45,.39,.68,.24,.42,.42,.87,.52,1.34,.09,.4,.17,.8,.24,1.2,.07,.4,.14,.81,.21,1.21,.1,.54,.31,1.03,.62,1.48,.04,.06,.09,.12,.14,.17,.04,.05,.11,.07,.15,.04,.03-.02,.07-.04,.08-.07,.14-.44,.23-.9,.25-1.37,.02-.64-.08-1.26-.15-1.89-.06-.5-.12-1-.17-1.49-.06-.48-.11-.96-.16-1.44-.06-.54-.12-1.07-.18-1.61-.06-.59-.13-1.18-.32-1.75-.25-.78-.48-1.56-.74-2.33-.24-.72-.51-1.43-.77-2.15-.12-.33-.23-.66-.3-1.01-.15-.73-.12-1.44,.08-2.15,.21-.77,.41-1.54,.61-2.32,.48-1.91,.98-3.81,1.56-5.69,.54-1.76,1.15-3.49,1.89-5.18,.89-2.03,1.57-4.13,1.83-6.34,.08-.68,.16-1.37,.19-2.05,.04-.95,.06-1.89,.09-2.84,.02-.72,.04-1.45,.12-2.17,.09-.79,.21-1.58,.43-2.35,.15-.54,.32-1.07,.49-1.6,.69-2.2,1.29-4.42,1.89-6.64,.29-1.07,.59-2.15,.89-3.22,.04-.16,.09-.33,.17-.47,.15-.24,.32-.45,.49-.67,.02-.02,.07-.04,.09-.03,.03,0,.06,.04,.08,.07,.02,.03,.03,.07,.04,.1,.35,1.44,.69,2.89,1.04,4.33,.44,1.77,.88,3.53,1.38,5.28,.32,1.13,.55,2.27,.69,3.44,.15,1.16,.24,2.33,.24,3.5,0,2.45,.02,4.91,.02,7.36,0,1.13,0,2.27,0,3.4,0,.28,0,.56-.06,.83-.2,.81-.38,1.63-.59,2.44-.28,1.08-.58,2.15-.87,3.22-.26,.97-.5,1.94-.65,2.93-.11,.7-.21,1.4-.32,2.09-.23,1.35-.47,2.71-.69,4.06-.11,.68-.2,1.36-.29,2.04-.09,.7-.17,1.4-.26,2.1-.1,.81-.21,1.62-.28,2.43-.09,1.05-.16,2.11-.23,3.17-.05,.76-.1,1.52-.15,2.28-.06,.83-.13,1.67-.17,2.5-.08,1.82-.03,3.64,.11,5.46,.03,.43,.07,.85,.12,1.28,.06,.55,.13,1.11,.2,1.66,.08,.66,.17,1.33,.26,1.99,.09,.66,.19,1.32,.28,1.99,.09,.64,.18,1.29,.27,1.93,.13,.86,.26,1.73,.39,2.59,.13,.88,.25,1.76,.38,2.65,.13,.88,.26,1.76,.4,2.64,.13,.84,.26,1.69,.4,2.53,.17,1.01,.31,2.02,.3,3.05,0,.45,.01,.89,.03,1.34,.07,1.82,.07,3.64,.07,5.46,0,1.49-.06,2.97-.21,4.45-.04,.41-.08,.81-.13,1.22-.09,.74-.17,1.48-.27,2.21-.09,.68-.19,1.36-.28,2.04-.11,.81-.21,1.62-.3,2.43-.07,.61-.12,1.22-.16,1.83-.09,1.58,.02,3.16,.15,4.73,.06,.74,.12,1.48,.2,2.22,.07,.7,.14,1.4,.28,2.1,.16,.84,.33,1.68,.49,2.51,.24,1.2,.48,2.4,.72,3.61,.25,1.26,.49,2.51,.74,3.77,.21,1.06,.42,2.11,.62,3.17,.19,.97,.38,1.93,.56,2.9,.12,.64,.18,1.29,.18,1.94,0,.76-.07,1.52-.17,2.28-.07,.57-.16,1.14-.25,1.71-.04,.26-.03,.51,.02,.78,.06,.37,.11,.74,.13,1.11,.03,.69-.08,1.37-.26,2.04-.24,.85-.61,1.63-1.1,2.36-.31,.46-.64,.91-.97,1.36-.12,.17-.24,.33-.36,.5-.09,.13-.11,.28-.09,.43,.02,.11,.05,.22,.1,.32,.26,.56,.7,.96,1.25,1.22,.35,.17,.73,.28,1.11,.36,.96,.21,1.93,.37,2.91,.47,.8,.09,1.59,.1,2.39,.11,.26,0,.53,0,.78-.06,.82-.18,1.62-.39,2.45-.53,.28-.05,.46-.22,.54-.5,.24-.82,.34-1.63,.06-2.46-.22-.65-.35-1.33-.43-2.01-.08-.66-.15-1.33-.24-1.99-.12-.9-.26-1.8-.38-2.7-.08-.64-.17-1.29-.16-1.94,0-.22,0-.45,0-.67,.02-.62-.06-1.22-.17-1.83-.11-.62-.18-1.25-.28-1.87-.08-.52-.1-1.04-.14-1.55-.06-.65-.06-1.3-.02-1.95,.02-.41,.04-.82,.05-1.23,.04-2.03,.1-4.05,.23-6.07,.03-.5,.08-1,.15-1.5,.12-.86,.3-1.72,.48-2.57,.22-1.04,.42-2.07,.62-3.11,.17-.89,.32-1.79,.47-2.69,.11-.66,.2-1.32,.28-1.98,.1-.79,.14-1.59,.16-2.39,.03-1.56-.05-3.12-.28-4.67-.14-.94-.29-1.87-.44-2.81-.24-1.43-.42-2.87-.59-4.3-.03-.3-.04-.59,.01-.89,.11-.68,.22-1.36,.31-2.04,.1-.72,.2-1.43,.27-2.16,.09-1.02,.13-2.04,.12-3.06-.02-1.28-.03-2.56,.11-3.84,.07-.61,.15-1.22,.28-1.82,.33-1.56,.58-3.14,.85-4.71,.13-.77,.26-1.54,.39-2.31,.17-.93,.34-1.86,.51-2.79,.17-.99,.35-1.97,.5-2.97,.11-.7,.19-1.4,.28-2.1,.05-.44,.1-.89,.14-1.33,.07-.61,.13-1.22,.2-1.83,.05-.5,.1-1,.15-1.5,.06-.57,.12-1.15,.17-1.72,.05-.57,.09-1.15,.15-1.72,.08-.83,.16-1.66,.21-2.5,.02-.39,.04-.78,.12-1.16,.08-.38,.22-.75,.33-1.12,0-.02,.02-.04,.03-.04,.01,0,.03,0,.05,0,.02,0,.04,.01,.05,.03,.17,.51,.3,1.03,.37,1.57,.06,.48,.1,.96,.15,1.44,.05,.5,.09,1,.15,1.5,.09,.81,.19,1.62,.28,2.43,.09,.83,.17,1.66,.26,2.49,.1,.89,.19,1.77,.3,2.66,.08,.68,.17,1.36,.27,2.04,.12,.83,.26,1.65,.39,2.47,.13,.79,.25,1.58,.39,2.36,.16,.95,.34,1.9,.51,2.85,.2,1.1,.4,2.19,.61,3.29,.23,1.22,.48,2.44,.66,3.67,.15,1.01,.23,2.03,.27,3.05,.01,.28,0,.56-.02,.84-.12,1.45-.04,2.9,.09,4.34,.07,.76,.18,1.51,.28,2.27,.04,.29,.08,.59,.12,.88,.11,.72,.05,1.45-.04,2.17-.08,.68-.19,1.36-.27,2.04-.13,1.01-.25,2.03-.37,3.04-.11,.88-.22,1.77-.33,2.65-.05,.39-.09,.78-.14,1.16-.15,1.05-.16,2.11-.03,3.17,.09,.79,.21,1.58,.33,2.37,.16,1.08,.34,2.16,.51,3.25,.16,1.05,.32,2.09,.49,3.14,.25,1.52,.5,3.04,.67,4.57,.09,.83,.19,1.66,.21,2.5,0,.2,.03,.41,.03,.61,0,.3,.02,.59,0,.89-.03,.47,0,.93,.07,1.39,.07,.44,.1,.89,.11,1.33,0,.84,0,1.67-.09,2.51-.02,.17-.02,.33-.03,.5-.02,.5-.05,1-.07,1.5,0,.19-.03,.37-.1,.55-.2,.53-.27,1.08-.28,1.64,0,.93,0,1.86-.12,2.78-.06,.48-.1,.96-.18,1.44-.13,.77-.3,1.53-.45,2.3-.17,.88-.32,1.76-.27,2.65,.02,.3-.04,.59-.15,.87-.08,.23-.17,.45-.24,.68-.17,.58-.18,1.17-.05,1.76,.09,.4,.29,.66,.73,.73,.51,.08,1.02,.22,1.52,.33,.58,.13,1.16,.25,1.75,.31,.3,.03,.59,.03,.89,0,.55-.06,1.11-.11,1.66-.15,.46-.03,.92-.09,1.38-.2,.81-.19,1.62-.39,2.43-.59,.36-.09,.64-.29,.86-.57,.19-.24,.31-.5,.43-.78,.09-.2,.07-.4-.06-.58-.18-.26-.36-.52-.54-.78-.44-.65-.85-1.31-1.19-2.01-.24-.49-.41-1-.5-1.53-.11-.66-.18-1.32-.28-1.98-.08-.56-.08-1.11,.02-1.66,.04-.2,.06-.4,.04-.61-.06-.61-.12-1.22-.18-1.83-.05-.61-.1-1.22-.14-1.83-.01-.17,0-.33,.01-.5,.05-.84,.17-1.66,.35-2.48,.17-.8,.33-1.6,.5-2.4,.2-1.02,.4-2.04,.61-3.06,.24-1.22,.49-2.44,.72-3.66,.25-1.29,.5-2.59,.73-3.89,.15-.84,.26-1.69,.38-2.53,.07-.53,.14-1.07,.19-1.6,.06-.59,.14-1.18,.17-1.77,.04-.63,.09-1.26,.17-1.89,.08-.61,.14-1.22,.14-1.83,0-1.17-.12-2.34-.26-3.5-.11-.88-.26-1.76-.39-2.64-.16-1.08-.33-2.17-.5-3.25-.09-.59-.15-1.18-.19-1.77-.04-.69-.08-1.37-.15-2.06-.09-.76-.09-1.52-.02-2.28,.09-.87,.08-1.74,0-2.61-.09-.93-.09-1.86,0-2.78,.05-.55,.11-1.11,.17-1.66,.09-.78,.17-1.55,.27-2.32,.09-.72,.19-1.44,.29-2.15,.09-.64,.18-1.29,.27-1.93,.09-.61,.19-1.21,.28-1.82,.14-.86,.27-1.72,.41-2.59,.12-.79,.26-1.58,.37-2.37,.13-.88,.25-1.77,.37-2.65,.16-1.16,.32-2.32,.44-3.48,.11-1.04,.2-2.07,.22-3.11,0-.13,0-.26,.02-.39,.11-1.39,.1-2.78,.07-4.18,0-.15,0-.3-.02-.45-.11-1.09-.13-2.19-.18-3.28-.04-1.02-.05-2.04-.1-3.06-.06-1.04-.13-2.08-.23-3.11-.09-.98-.25-1.95-.39-2.93-.13-.86-.27-1.72-.41-2.59-.12-.79-.23-1.58-.38-2.36-.19-1.04-.4-2.08-.61-3.11-.45-2.22-.96-4.43-1.55-6.61-.28-1.02-.45-2.07-.56-3.12-.07-.67-.1-1.33-.14-2-.01-.19-.02-.37-.04-.56-.02-.41-.06-.82-.07-1.22-.01-.71,0-1.41,0-2.12,0-.15,.03-.31-.02-.44-.1-.26-.07-.51-.05-.77,.01-.24,.05-.48,.05-.72,.04-1.24,.16-2.49,.16-3.73,0-.2,0-.41,.02-.61,.03-.44,.04-.89,.1-1.33,.11-.81,.27-1.61,.47-2.4,.31-1.22,.62-2.45,.93-3.67,.57-2.25,1.13-4.5,1.69-6.75,.09-.34,.21-.67,.38-.98,.02-.04,.11-.06,.14-.03,.5,.52,.52,.56,.67,1.24,0,.04,.01,.07,.02,.11,.21,.9,.41,1.81,.63,2.71,.36,1.44,.79,2.86,1.22,4.28,.32,1.07,.66,2.13,.98,3.19,.27,.87,.46,1.76,.59,2.66,.13,.92,.18,1.85,.11,2.78-.08,.97,0,1.93,.07,2.89,.06,.7,.16,1.4,.29,2.1,.18,.99,.37,1.97,.62,2.94,.31,1.21,.74,2.37,1.23,3.52,.55,1.3,1.08,2.61,1.52,3.95,.79,2.4,1.48,4.83,2.02,7.29,.19,.87,.36,1.75,.55,2.62,.09,.41,.05,.81-.03,1.22-.04,.18-.1,.36-.16,.53-.49,1.4-.97,2.81-1.46,4.21-.31,.88-.49,1.79-.49,2.73,0,.26,0,.52-.01,.78-.03,.63-.09,1.26-.29,1.86-.07,.19-.1,.4-.14,.59-.14,.66-.11,1.33-.07,2,.03,.39,.07,.78,.1,1.17,.03,.43,.05,.85,.08,1.28,0,.09,.11,.15,.2,.12,.19-.05,.32-.17,.43-.33,.11-.15,.16-.33,.21-.51,.18-.68,.34-1.37,.41-2.07,.06-.61,.19-1.21,.44-1.78,.19-.44,.39-.88,.59-1.32,.09-.21,.24-.37,.41-.52,.02-.02,.08-.02,.1,0,.28,.19,.49,.43,.58,.78,.11,.45,.2,.91,.27,1.37,.1,.75,.06,1.48-.11,2.21-.14,.58-.36,1.13-.68,1.64-.39,.63-.7,1.31-.96,2.01-.05,.14-.12,.27-.16,.41-.11,.32-.22,.63-.31,.95-.04,.12-.05,.25-.06,.38,0,.05,.01,.11,.03,.16,.03,.12,.16,.17,.26,.1,.24-.18,.46-.38,.65-.61,1-1.19,1.99-2.4,3.07-3.54,.68-.72,1.11-1.58,1.36-2.52,.13-.5,.26-1.01,.39-1.51,.29-1.13,.59-2.26,.88-3.4,.12-.45,.17-.91,.15-1.38-.03-.69-.05-1.37-.07-2.06-.05-1.88-.09-3.75-.15-5.63,0-.18-.03-.37-.06-.55-.14-.69-.28-1.38-.42-2.07-.19-.93-.32-1.87-.38-2.81-.05-.91-.09-1.82-.14-2.73,0-.11-.01-.22-.02-.33-.06-.96-.12-1.93-.18-2.89-.05-.76-.1-1.52-.15-2.28-.05-.76-.13-1.52-.17-2.28-.06-1.32-.12-2.64-.11-3.96,0-.58,0-1.15-.02-1.73,0-.5-.09-1-.18-1.49-.11-.66-.31-1.3-.54-1.93-.6-1.64-1.26-3.25-1.9-4.88-.24-.6-.47-1.21-.67-1.83-.38-1.17-.64-2.37-.65-3.6,0-.35,0-.71,0-1.06-.03-.72-.07-1.45-.12-2.17-.04-.57-.11-1.15-.17-1.72-.05-.52-.09-1.04-.15-1.55-.09-.81-.2-1.62-.29-2.43-.08-.74-.21-1.47-.4-2.19-.12-.45-.21-.91-.26-1.37-.09-.76-.17-1.51-.22-2.27-.06-.96-.09-1.93-.14-2.89-.01-.26-.02-.52-.03-.78-.03-.52-.1-1.03-.22-1.54-.47-2.04-1.37-3.88-2.62-5.55-.17-.22-.35-.44-.54-.64-.58-.64-1.26-1.15-2.07-1.48-.41-.17-.82-.34-1.24-.49-.6-.21-1.2-.38-1.84-.41-.28-.01-.55-.09-.8-.22-.12-.06-.23-.12-.35-.18-1.7-.88-3.4-1.75-5.1-2.63-1.18-.62-2.39-1.21-3.55-1.87-.24-.14-.48-.29-.67-.5-.25-.28-.41-.62-.49-.99-.13-.56-.28-1.12-.41-1.68-.12-.51-.22-1.01-.28-1.53-.09-.76-.12-1.52-.14-2.28-.03-1.01,.1-2,.56-2.93,.08-.16,.13-.35,.16-.53,.07-.55,.15-1.11,.13-1.67,0-.15,0-.3,.01-.45,.04-.38,.21-.67,.58-.82,.05-.02,.1-.04,.15-.06,.29-.12,.48-.33,.6-.62,.1-.24,.16-.49,.2-.75,.14-.88,.29-1.76,.43-2.64,.06-.35,.1-.7,.15-1.05,.01-.09,0-.19,0-.28,0-.05-.04-.11-.08-.14-.09-.06-.2-.1-.3-.16-.2-.13-.31-.32-.31-.56,0-.17,.01-.33,.03-.5,.06-.52,.12-1.03,.18-1.55,.07-.53,.13-1.07,.21-1.6,.12-.85,.05-1.66-.33-2.45-.8-1.68-2-2.98-3.65-3.86-1.09-.58-2.25-.85-3.49-.78-.52,.03-1.04,.03-1.45,.04Z"/>
  </g>
  <g id="male_kol">
    <path d="M59.64,80.89c-.05,.22,8.37-4.13,8.81-4.18s.21,4.8,.45,4.86-8.03,2.84-8.1,2.85-1.11-3.75-1.16-3.53Z" style="fill: none; stroke: #f7941d; stroke-miterlimit: 10; stroke-width: .64px;"/>
  </g>
  <g id="male_boyun">
    <polygon points="33.47 41.36 46.66 41.36 46.85 43.14 33.32 43.14 33.47 41.36" style="fill: none; stroke: #f7941d; stroke-miterlimit: 10; stroke-width: .64px;"/>
  </g>
</svg>